<svg width="1276" height="628" viewBox="0 0 1276 628" fill="none" xmlns="http://www.w3.org/2000/svg">
<path d="M526.124 111.916L605.655 434.917L581.695 103.132L627.028 432.677L637.88 100.206L648.517 432.684L694.063 103.169L669.889 434.937L749.629 111.988L690.908 439.412L803.968 126.567L711.343 446.06L856.486 146.746L730.973 454.807L906.607 172.304L749.58 465.558L953.781 202.962L766.961 478.195L997.493 238.382L782.927 492.579L1037.26 278.178L797.301 508.554L1072.65 321.912L809.927 525.944L1103.28 369.107L820.666 544.558L1128.81 419.244L829.4 564.193L1148.95 471.775L836.034 584.633L1163.5 526.124L840.496 605.655L1172.28 581.695L842.735 627.028L1175.21 637.88L842.728 648.517L1172.24 694.063L840.475 669.889L1163.42 749.629L836 690.908L1148.85 803.968L829.353 711.344L1128.67 856.486L820.606 730.973L1103.11 906.607L809.855 749.58L1072.45 953.781L797.218 766.961L1037.03 997.493L782.833 782.927L997.234 1037.26L766.858 797.301L953.5 1072.65L749.468 809.927L906.305 1103.28L730.854 820.666L856.168 1128.81L711.219 829.4L803.637 1148.95L690.779 836.034L749.288 1163.5L669.757 840.496L693.717 1172.28L648.385 842.735L637.532 1175.21L626.895 842.728L581.349 1172.24L605.523 840.475L525.783 1163.42L584.505 836L471.444 1148.85L564.069 829.353L418.926 1128.67L544.439 820.606L368.805 1103.11L525.832 809.855L321.631 1072.45L508.451 797.218L277.919 1037.03L492.485 782.833L238.149 997.234L478.111 766.858L202.757 953.5L465.485 749.468L172.13 906.305L454.746 730.854L146.605 856.168L446.012 711.219L126.459 803.637L439.378 690.779L111.916 749.288L434.917 669.757L103.132 693.717L432.677 648.385L100.206 637.532L432.684 626.895L103.169 581.349L434.937 605.523L111.988 525.783L439.412 584.505L126.567 471.444L446.06 564.069L146.746 418.926L454.807 544.44L172.304 368.805L465.558 525.832L202.962 321.631L478.195 508.451L238.382 277.919L492.579 492.485L278.178 238.149L508.554 478.111L321.912 202.757L525.944 465.485L369.107 172.13L544.558 454.746L419.244 146.605L564.193 446.012L471.775 126.459L584.633 439.378L526.124 111.916Z" fill="white"/>
</svg>
