<?xml version="1.0" encoding="UTF-8" standalone="no"?><!DOCTYPE svg PUBLIC "-//W3C//DTD SVG 1.1//EN"><svg width="130px" height="130px" version="1.1" xmlns="http://www.w3.org/2000/svg" xmlns:xlink="http://www.w3.org/1999/xlink" xml:space="preserve" xmlns:serif="http://www.serif.com/" style="fill-rule:evenodd;clip-rule:evenodd;stroke-linecap:round;stroke-linejoin:round;stroke-miterlimit:1.5;"><g><circle cx="64.908" cy="64.927" r="64" style="fill:none;stroke:black;stroke-width:1px;"/><path d="M84.987,54.823c2.754,-2.754 2.754,-7.221 -0,-9.975c-0,-0.001 -0,-0.001 -0,-0.001c-2.755,-2.754 -7.221,-2.754 -9.976,0c-7.76,7.76 -22.635,22.635 -30.394,30.395c-2.755,2.754 -2.755,7.221 -0,9.975c-0,0 -0,0.001 -0,0.001c2.754,2.754 7.221,2.754 9.976,-0c7.759,-7.76 22.634,-22.635 30.394,-30.395Z" style="fill:none;stroke:black;stroke-width:1px;"/><path d="M109.928,39.858c2.645,-2.645 4.132,-6.233 4.132,-9.975c-0,-3.741 -1.487,-7.329 -4.132,-9.975c-0,-0 -0.001,-0 -0.001,-0.001c-2.646,-2.645 -6.234,-4.132 -9.976,-4.132c-3.742,0 -7.33,1.487 -9.976,4.132c-6.094,6.094 -13.859,13.859 -19.952,19.952c-2.646,2.646 -4.132,6.234 -4.132,9.976c-0,3.742 1.486,7.33 4.132,9.976c0,0 0.001,0.001 0.001,0.001c2.646,2.646 6.234,4.132 9.975,4.132c3.741,-0 7.329,-1.486 9.975,-4.132c6.094,-6.094 13.86,-13.86 19.954,-19.954Zm-4.989,-4.987c2.755,-2.755 2.755,-7.221 -0,-9.976c-0,-0 -0.001,-0 -0.001,-0.001c-2.754,-2.754 -7.22,-2.754 -9.974,0c-5.536,5.536 -14.417,14.417 -19.953,19.953c-2.755,2.755 -2.755,7.221 0,9.976c0,0 0,0 0,0c2.755,2.755 7.221,2.755 9.976,0c5.536,-5.535 14.416,-14.416 19.952,-19.952Z" style="fill:none;stroke:black;stroke-width:1px;"/><path d="M59.849,89.937c2.631,-2.631 4.109,-6.198 4.109,-9.919c-0,-3.72 -1.478,-7.287 -4.109,-9.918c0,0 -0,-0 -0.001,-0.001c-2.66,-2.66 -6.269,-4.155 -10.032,-4.155c-3.763,-0 -7.372,1.495 -10.033,4.155c-6.085,6.085 -13.821,13.821 -19.895,19.895c-2.646,2.646 -4.132,6.235 -4.132,9.976c-0,3.742 1.486,7.331 4.132,9.976c0,0.001 0,0.001 0.001,0.001c2.645,2.646 6.233,4.132 9.975,4.132c3.741,0 7.329,-1.486 9.975,-4.132c6.113,-6.113 13.908,-13.908 20.01,-20.01Zm-5.005,-4.97c1.312,-1.313 2.049,-3.093 2.049,-4.949c0,-1.855 -0.737,-3.635 -2.049,-4.948c-0.001,0 -0.001,-0 -0.001,-0.001c-2.777,-2.776 -7.278,-2.776 -10.054,0c-5.539,5.539 -14.392,14.392 -19.914,19.914c-2.754,2.755 -2.754,7.22 -0,9.974c0,0.001 0,0.001 0.001,0.001c2.755,2.755 7.221,2.755 9.976,0c5.549,-5.549 14.459,-14.459 19.992,-19.991Z" style="fill:none;stroke:black;stroke-width:1px;"/><path d="M53.43,66.428l-8.641,8.641c2.776,-2.776 7.277,-2.776 10.054,0c-0,0.001 0,0.001 0.001,0.001c1.312,1.313 2.049,3.093 2.049,4.948c0,1.856 -0.737,3.636 -2.049,4.949l8.612,-8.613c-0.622,-2.347 -1.86,-4.507 -3.607,-6.254c0,0 -0,-0 -0.001,-0.001c-1.789,-1.789 -4.008,-3.052 -6.418,-3.671Z" style="fill:none;stroke:black;stroke-width:1px;"/><path d="M74.993,44.869l-0.021,0.017l-8.588,8.588c0.62,2.379 1.871,4.569 3.639,6.337c0,0 0.001,0.001 0.001,0.001c1.768,1.768 3.957,3.018 6.336,3.639l8.627,-8.628c-2.755,2.755 -7.221,2.755 -9.976,0c0,0 0,0 0,0c-2.748,-2.748 -2.755,-7.2 -0.018,-9.954Z" style="fill:none;stroke:black;stroke-width:1px;"/><path d="M76.36,63.451c1.174,0.329 2.398,0.493 3.639,0.493c3.741,-0 7.329,-1.486 9.975,-4.132l2.792,-2.792c0.764,2.592 1.174,5.335 1.174,8.172c0,15.941 -12.942,28.883 -28.883,28.883c-2.837,0 -5.58,-0.41 -8.172,-1.174l2.964,-2.964c2.631,-2.631 4.109,-6.198 4.109,-9.919c-0,-1.249 -0.167,-2.482 -0.502,-3.664l12.904,-12.903Zm-39.194,9.266c-0.647,-2.399 -0.992,-4.922 -0.992,-7.525c0,-15.941 12.942,-28.883 28.883,-28.883c2.603,-0 5.127,0.345 7.525,0.992l-2.559,2.558c-2.646,2.646 -4.132,6.234 -4.132,9.976c-0,1.202 0.153,2.388 0.463,3.529l0.03,0.11l-12.954,12.954c-1.167,-0.324 -2.382,-0.484 -3.614,-0.484c-3.763,-0 -7.372,1.495 -10.033,4.155l-2.617,2.618Zm16.264,-6.289c-0,0 0.422,0.112 0.647,0.172c0.224,0.06 0.253,0.067 -0.534,-0.142l-0.113,-0.03Z" style="fill:none;stroke:black;stroke-width:1px;"/></g></svg>