<?xml version="1.0" encoding="UTF-8" standalone="no"?><!DOCTYPE svg PUBLIC "-//W3C//DTD SVG 1.1//EN" "http://www.w3.org/Graphics/SVG/1.1/DTD/svg11.dtd"><svg width="129px" height="129px" version="1.1" xmlns="http://www.w3.org/2000/svg" xmlns:xlink="http://www.w3.org/1999/xlink" xml:space="preserve" xmlns:serif="http://www.serif.com/" style="fill-rule:evenodd;clip-rule:evenodd;stroke-linecap:round;stroke-linejoin:round;stroke-miterlimit:1.5;"><g><path d="M127.984,64.419c0,35.042 -28.45,63.492 -63.492,63.492c-35.042,0 -63.492,-28.45 -63.492,-63.492c-0,-35.042 28.45,-63.492 63.492,-63.492c35.042,0 63.492,28.45 63.492,63.492Z" style="fill:none;stroke:black;stroke-width:1px;"/><path d="M100.017,64.419l-7.588,0" style="fill:none;stroke:black;stroke-width:1px;"/><path d="M127.924,64.419l-7.589,0" style="fill:none;stroke:black;stroke-width:1px;"/><path d="M36.495,64.419l-7.589,0" style="fill:none;stroke:black;stroke-width:1px;"/><path d="M120.335,64.419c-0,5.607 -4.552,10.159 -10.159,10.159c-5.607,-0 -10.159,-4.552 -10.159,-10.159c0,-5.607 4.552,-10.159 10.159,-10.159c5.607,0 10.159,4.552 10.159,10.159Z" style="fill:none;stroke:black;stroke-width:1px;"/><path d="M74.651,64.419c-0,5.607 -4.552,10.159 -10.159,10.159c-5.607,-0 -10.159,-4.552 -10.159,-10.159c0,-5.607 4.552,-10.159 10.159,-10.159c5.607,0 10.159,4.552 10.159,10.159Z" style="fill:none;stroke:black;stroke-width:1px;"/><path d="M28.937,64.419c-0,5.607 -4.552,10.159 -10.159,10.159c-5.607,-0 -10.159,-4.552 -10.159,-10.159c0,-5.607 4.552,-10.159 10.159,-10.159c5.607,0 10.159,4.552 10.159,10.159Z" style="fill:none;stroke:black;stroke-width:1px;"/><path d="M64.492,47.657c15.419,0 27.937,16.762 27.937,16.762c-0,0 -12.518,16.762 -27.937,16.762c-15.419,0 -27.936,-16.762 -27.936,-16.762c-0,0 12.517,-16.762 27.936,-16.762Z" style="fill:none;stroke:black;stroke-width:1px;"/><path d="M92.429,121.441c-8.432,4.143 -17.915,6.47 -27.937,6.47c-9.717,0 -18.927,-2.187 -27.166,-6.097l-0.77,-57.395l0.036,0.048c0.747,0.982 12.963,16.714 27.9,16.714c15.419,0 27.937,-16.762 27.937,-16.762l-0,57.022Zm-17.778,-17.911c-0,5.607 -4.552,10.159 -10.159,10.159c-5.607,0 -10.159,-4.552 -10.159,-10.159c0,-5.606 4.552,-10.158 10.159,-10.158c5.607,-0 10.159,4.552 10.159,10.158Z" style="fill:none;stroke:black;stroke-width:1px;"/><circle cx="64.492" cy="24.34" r="23.317" style="fill:none;stroke:black;stroke-width:1px;"/><path d="M45.723,38.171c4.132,-5.931 11.001,-9.815 18.769,-9.815c7.769,-0 14.637,3.884 18.769,9.815c-4.248,5.753 -11.076,9.486 -18.769,9.486c-7.693,0 -14.521,-3.733 -18.769,-9.486Z" style="fill:none;stroke:black;stroke-width:1px;"/><path d="M8.589,64.419l-7.589,0" style="fill:none;stroke:black;stroke-width:1px;"/></g></svg>