<svg width="586" height="323" viewBox="0 0 586 323" fill="none" xmlns="http://www.w3.org/2000/svg">
<path d="M-1165.26 -400.666C-1121.54 -1.53799 -712.259 281.184 -250.978 230.648C210.303 180.112 548.659 -184.516 504.932 -583.645C461.206 -982.773 51.9295 -1265.5 -409.352 -1214.96C-870.633 -1164.42 -1208.99 -799.795 -1165.26 -400.666Z" stroke="#F0F973"/>
<path d="M-329.668 -492.21C-307.794 -292.548 -241.245 -116.933 -151.36 5.59312C-61.465 128.131 51.7004 197.488 166.819 184.876C281.938 172.264 377.402 80.0511 438.634 -59.0437C499.859 -198.125 526.806 -383.982 504.932 -583.645C483.058 -783.307 416.51 -958.922 326.624 -1081.45C236.73 -1203.99 123.564 -1273.34 8.4454 -1260.73C-106.673 -1248.12 -202.138 -1155.91 -263.369 -1016.81C-324.594 -877.73 -351.542 -691.873 -329.668 -492.21Z" stroke="#F0F973"/>
<path d="M-597.19 -462.902C-575.319 -263.267 -493.815 -89.31 -379.745 30.5605C-265.675 150.431 -119.063 216.196 33.0581 199.53C185.179 182.865 314.075 86.9161 399.485 -54.8082C484.897 -196.533 526.803 -384.01 504.932 -583.645C483.061 -783.28 401.558 -957.237 287.487 -1077.11C173.418 -1196.98 26.8049 -1262.74 -125.316 -1246.08C-277.436 -1229.41 -406.332 -1133.46 -491.743 -991.738C-577.154 -850.014 -619.061 -662.537 -597.19 -462.902Z" stroke="#F0F973"/>
<ellipse rx="697.726" ry="727.628" transform="matrix(-0.994052 0.108904 0.108904 0.994052 -188.147 -507.714)" stroke="#F0F973" stroke-width="1.5" stroke-dasharray="1 5"/>
</svg>
