<svg width="441" height="328" viewBox="0 0 441 328" fill="none" xmlns="http://www.w3.org/2000/svg">
<path d="M47.4014 526.015C72.7165 757.086 309.679 920.814 576.812 891.548C843.946 862.282 1039.84 651.133 1014.52 420.061C989.209 188.99 752.246 25.2623 485.113 54.5281C217.979 83.7939 22.0863 294.943 47.4014 526.015Z" stroke="#F0F973"/>
<path d="M376.484 489.962C389.15 605.568 436.347 706.297 502.393 775.702C568.439 845.106 653.31 883.167 741.354 873.521C829.398 863.876 904.015 808.342 953.467 726.284C1002.92 644.226 1027.19 535.668 1014.52 420.061C1001.86 304.455 954.661 203.726 888.615 134.322C822.569 64.9175 737.698 26.856 649.654 36.5017C561.61 46.1474 486.993 101.682 437.541 183.739C388.088 265.797 363.819 374.355 376.484 489.962Z" stroke="#F0F973"/>
<path fill-rule="evenodd" clip-rule="evenodd" d="M567.748 44.2178C567.581 44.2359 567.414 44.2541 567.247 44.2724C567.08 44.2907 566.913 44.3091 566.746 44.3277L566.911 45.8185C567.078 45.8001 567.244 45.7817 567.411 45.7635C567.577 45.7453 567.744 45.7271 567.91 45.7091L567.748 44.2178ZM573.758 43.6135C573.425 43.6444 573.091 43.6758 572.757 43.7077L572.9 45.2009C573.232 45.1692 573.565 45.1379 573.897 45.107L573.758 43.6135ZM561.745 44.9141C561.413 44.9553 561.08 44.9968 560.748 45.0388L560.936 46.527C561.267 46.4852 561.598 46.4438 561.93 46.4028L561.745 44.9141ZM579.757 43.1025C579.424 43.1283 579.091 43.1545 578.758 43.1812L578.877 44.6764C579.209 44.6498 579.541 44.6237 579.873 44.598L579.757 43.1025ZM555.773 45.6992C555.442 45.7453 555.112 45.7918 554.781 45.8387L554.992 47.3238C555.321 47.2771 555.651 47.2308 555.98 47.1849L555.773 45.6992ZM585.743 42.6843C585.411 42.705 585.079 42.7261 584.746 42.7476L584.843 44.2444C585.174 44.223 585.505 44.202 585.836 44.1814L585.743 42.6843ZM549.833 46.5725C549.504 46.6235 549.175 46.6748 548.846 46.7266L549.079 48.2083C549.407 48.1568 549.735 48.1056 550.062 48.0549L549.833 46.5725ZM591.756 42.3566C591.421 42.3723 591.086 42.3884 590.751 42.4049L590.825 43.9031C591.159 43.8866 591.492 43.8706 591.826 43.8549L591.756 42.3566ZM543.897 47.538C543.566 47.5944 543.235 47.6512 542.905 47.7085L543.161 49.1865C543.49 49.1295 543.819 49.0729 544.149 49.0167L543.897 47.538ZM537.96 48.5974C537.631 48.6587 537.302 48.7204 536.974 48.7825L537.252 50.2564C537.58 50.1945 537.907 50.133 538.235 50.072L537.96 48.5974ZM597.779 42.121C597.445 42.1315 597.111 42.1424 596.776 42.1538L596.827 43.6529C597.16 43.6416 597.493 43.6307 597.826 43.6202L597.779 42.121ZM532.057 49.7446C531.73 49.8108 531.403 49.8773 531.077 49.9443L531.378 51.4137C531.703 51.347 532.029 51.2807 532.354 51.2148L532.057 49.7446ZM603.788 41.9784C603.455 41.9837 603.121 41.9895 602.788 41.9957L602.815 43.4954C603.148 43.4893 603.48 43.4835 603.812 43.4782L603.788 41.9784ZM526.187 50.9792C525.859 51.0508 525.531 51.1229 525.204 51.1953L525.528 52.66C525.854 52.5878 526.181 52.516 526.507 52.4447L526.187 50.9792ZM609.792 41.9282C609.457 41.9284 609.121 41.9291 608.785 41.9302L608.79 43.4302C609.125 43.4291 609.459 43.4284 609.793 43.4282L609.792 41.9282ZM520.301 52.3124C519.975 52.3889 519.649 52.4658 519.323 52.5431L519.67 54.0026C519.994 53.9256 520.319 53.849 520.644 53.7728L520.301 52.3124ZM615.825 41.9709C615.49 41.9659 615.156 41.9614 614.821 41.9573L614.802 43.4572C615.136 43.4613 615.469 43.4658 615.803 43.4707L615.825 41.9709ZM514.451 53.7329C514.127 53.8142 513.803 53.8959 513.479 53.9781L513.848 55.432C514.171 55.3502 514.493 55.2688 514.816 55.1878L514.451 53.7329ZM621.841 42.1065C621.507 42.0964 621.174 42.0867 620.84 42.0775L620.798 43.5769C621.131 43.5861 621.463 43.5957 621.796 43.6058L621.841 42.1065ZM508.638 55.2399C508.316 55.326 507.994 55.4125 507.672 55.4994L508.064 56.9474C508.384 56.8609 508.705 56.7747 509.025 56.6889L508.638 55.2399ZM627.84 42.3344C627.507 42.3192 627.174 42.3044 626.841 42.2901L626.777 43.7887C627.108 43.803 627.44 43.8177 627.771 43.8329L627.84 42.3344ZM502.834 56.8406C502.511 56.9322 502.189 57.0242 501.867 57.1166L502.281 58.5584C502.602 58.4664 502.922 58.3747 503.244 58.2835L502.834 56.8406ZM633.858 42.6564C633.523 42.6359 633.189 42.6158 632.854 42.5962L632.767 44.0936C633.1 44.1132 633.433 44.1332 633.766 44.1536L633.858 42.6564ZM497.051 58.5323C496.731 58.6286 496.411 58.7254 496.091 58.8225L496.527 60.2578C496.846 60.161 497.165 60.0646 497.483 59.9686L497.051 58.5323ZM639.866 43.0713C639.533 43.0457 639.199 43.0205 638.866 42.9958L638.755 44.4916C639.087 44.5163 639.419 44.5414 639.751 44.5669L639.866 43.0713ZM491.308 60.3095C490.99 60.4106 490.672 60.5121 490.355 60.614L490.813 62.0423C491.129 61.9408 491.446 61.8397 491.762 61.739L491.308 60.3095ZM645.855 43.5782C645.522 43.5475 645.19 43.5172 644.858 43.4874L644.724 44.9814C645.055 45.0111 645.386 45.0413 645.716 45.0718L645.855 43.5782ZM485.595 62.1748C485.277 62.2813 484.959 62.3882 484.642 62.4954L485.122 63.9165C485.438 63.8096 485.755 63.7031 486.071 63.597L485.595 62.1748ZM651.839 44.1782C651.506 44.1422 651.173 44.1066 650.839 44.0715L650.682 45.5632C651.014 45.5982 651.346 45.6337 651.678 45.6695L651.839 44.1782ZM479.894 64.1342C479.579 64.2454 479.264 64.357 478.948 64.469L479.451 65.8824C479.765 65.7708 480.079 65.6597 480.393 65.5489L479.894 64.1342ZM657.825 44.8723C657.493 44.8312 657.161 44.7905 656.829 44.7502L656.648 46.2393C656.979 46.2794 657.31 46.3199 657.64 46.3609L657.825 44.8723ZM474.236 66.178C473.922 66.2939 473.609 66.4101 473.297 66.5268L473.821 67.9323C474.132 67.8161 474.444 67.7003 474.756 67.5848L474.236 66.178ZM663.788 45.6576C663.458 45.6114 663.127 45.5657 662.796 45.5204L662.592 47.0065C662.922 47.0516 663.251 47.0972 663.581 47.1432L663.788 45.6576ZM468.619 68.3055C468.307 68.4263 467.996 68.5474 467.685 68.669L468.23 70.0662C468.54 69.9451 468.851 69.8244 469.161 69.7041L468.619 68.3055ZM669.731 46.5339C669.401 46.4826 669.071 46.4317 668.74 46.3813L668.514 47.8641C668.843 47.9143 669.172 47.965 669.501 48.0161L669.731 46.5339ZM463.017 70.527C462.707 70.6528 462.397 70.7789 462.087 70.9055L462.655 72.2941C462.963 72.168 463.272 72.0423 463.581 71.917L463.017 70.527ZM675.68 47.5055C675.35 47.449 675.02 47.3929 674.69 47.3373L674.441 48.8164C674.769 48.8718 675.098 48.9277 675.427 48.984L675.68 47.5055ZM457.456 72.8326C457.149 72.9629 456.841 73.0937 456.534 73.2248L457.122 74.6045C457.429 74.4738 457.735 74.3436 458.041 74.2137L457.456 72.8326ZM681.604 48.5674C681.275 48.5059 680.947 48.4449 680.618 48.3842L680.346 49.8593C680.673 49.9197 681 49.9806 681.328 50.0418L681.604 48.5674ZM451.94 75.2204C451.635 75.3553 451.329 75.4906 451.025 75.6262L451.635 76.9966C451.938 76.8615 452.242 76.7267 452.546 76.5923L451.94 75.2204ZM687.502 49.7191C687.175 49.6527 686.848 49.5866 686.521 49.521L686.226 50.9917C686.552 51.0571 686.878 51.1229 687.203 51.1891L687.502 49.7191ZM446.454 77.6959C446.15 77.836 445.846 77.9764 445.543 78.1172L446.174 79.478C446.476 79.3378 446.779 79.1979 447.082 79.0583L446.454 77.6959ZM693.393 50.9642C693.066 50.8924 692.739 50.8211 692.412 50.7502L692.094 52.2162C692.42 52.2868 692.746 52.3578 693.072 52.4293L693.393 50.9642ZM441.005 80.2574C440.703 80.402 440.402 80.5469 440.101 80.6922L440.753 82.0431C441.053 81.8984 441.353 81.754 441.653 81.61L441.005 80.2574ZM699.264 52.2998C698.938 52.2231 698.613 52.1469 698.287 52.071L697.947 53.5319C698.154 53.5802 698.362 53.6286 698.569 53.6773C698.686 53.7047 698.803 53.7322 698.92 53.7598L699.264 52.2998ZM435.601 82.8995C435.302 83.0485 435.004 83.1978 434.705 83.3476L435.378 84.6883C435.675 84.5391 435.973 84.3903 436.271 84.2419L435.601 82.8995ZM705.106 53.724C704.782 53.6425 704.458 53.5613 704.134 53.4805L703.772 54.936C704.094 55.0165 704.417 55.0973 704.74 55.1786L705.106 53.724ZM430.241 85.6237C429.943 85.7777 429.646 85.932 429.349 86.0867L430.043 87.4169C430.338 87.2628 430.634 87.1091 430.93 86.9557L430.241 85.6237ZM710.928 55.2385C710.605 55.1518 710.281 55.0654 709.958 54.9795L709.573 56.4292C709.895 56.5148 710.217 56.6009 710.539 56.6873L710.928 55.2385ZM424.914 88.4344C424.619 88.5927 424.325 88.7514 424.031 88.9105L424.744 90.2299C425.037 90.0714 425.331 89.9133 425.624 89.7556L424.914 88.4344ZM716.732 56.8439C716.41 56.7523 716.089 56.6611 715.767 56.5702L715.359 58.0139C715.68 58.1043 716 58.1952 716.321 58.2865L716.732 56.8439ZM419.636 91.3237C419.344 91.4864 419.053 91.6495 418.761 91.8129L419.495 93.1212C419.785 92.9584 420.076 92.796 420.366 92.6339L419.636 91.3237ZM722.505 58.5365C722.185 58.44 721.865 58.344 721.545 58.2483L721.115 59.6856C721.434 59.7809 721.753 59.8765 722.072 59.9726L722.505 58.5365ZM414.408 94.2909C414.118 94.4582 413.829 94.6259 413.54 94.7939L414.293 96.0909C414.581 95.9235 414.87 95.7564 415.158 95.5898L414.408 94.2909ZM728.248 60.3162C727.929 60.2148 727.611 60.1138 727.292 60.0132L726.84 61.4437C727.158 61.5439 727.476 61.6446 727.793 61.7456L728.248 60.3162ZM408.822 97.5793C408.667 97.6724 408.511 97.7657 408.356 97.859L409.13 99.1443C409.415 98.9726 409.701 98.8011 409.987 98.6301L409.217 97.3429C409.085 97.4216 408.953 97.5004 408.822 97.5793ZM733.353 61.9795C733.242 61.9425 733.131 61.9056 733.02 61.8687L732.547 63.2922C732.863 63.3973 733.179 63.5028 733.495 63.6086L733.972 62.1864C733.766 62.1173 733.56 62.0483 733.353 61.9795ZM404.076 100.472C403.791 100.648 403.508 100.824 403.224 101.001L404.017 102.274C404.299 102.098 404.582 101.922 404.865 101.747L404.076 100.472ZM739.663 64.1423C739.348 64.0313 739.032 63.9206 738.717 63.8104L738.222 65.2265C738.536 65.3363 738.851 65.4465 739.165 65.5571L739.663 64.1423ZM398.986 103.677C398.705 103.857 398.424 104.037 398.143 104.218L398.955 105.479C399.079 105.4 399.202 105.32 399.326 105.241C399.482 105.14 399.639 105.04 399.795 104.94L398.986 103.677ZM745.32 66.1833C745.006 66.0675 744.693 65.9522 744.379 65.8372L743.863 67.2456C744.175 67.3601 744.488 67.475 744.8 67.5903L745.32 66.1833ZM393.943 106.96C393.664 107.145 393.386 107.33 393.107 107.515L393.938 108.764C394.216 108.579 394.493 108.395 394.771 108.211L393.943 106.96ZM750.95 68.3119C750.638 68.1913 750.326 68.071 750.014 67.9512L749.476 69.3516C749.787 69.471 750.098 69.5908 750.409 69.7109L750.95 68.3119ZM388.95 110.321C388.674 110.509 388.398 110.698 388.123 110.888L388.973 112.124L389.188 111.975C389.391 111.836 389.594 111.697 389.797 111.559L388.95 110.321ZM756.546 70.5253C756.237 70.4 755.926 70.2751 755.616 70.1506L755.058 71.5427C755.219 71.6076 755.381 71.6726 755.542 71.7377C755.69 71.797 755.837 71.8564 755.984 71.916L756.546 70.5253ZM384.01 113.754C383.737 113.947 383.464 114.14 383.192 114.334L384.061 115.557C384.332 115.364 384.604 115.172 384.875 114.98L384.01 113.754ZM761.589 72.6043C761.454 72.5473 761.318 72.4904 761.182 72.4335L760.603 73.817C760.774 73.8886 760.944 73.9604 761.115 74.0322C761.251 74.0894 761.387 74.1467 761.523 74.2041L762.106 72.8221C761.934 72.7494 761.762 72.6768 761.589 72.6043ZM378.691 117.578C378.565 117.67 378.439 117.762 378.313 117.855L379.2 119.064C379.468 118.867 379.737 118.671 380.006 118.475L379.122 117.263C378.979 117.368 378.835 117.473 378.691 117.578ZM767.632 75.203C767.326 75.0684 767.02 74.9342 766.713 74.8003L766.113 76.1748C766.418 76.3082 766.723 76.442 767.028 76.5761L767.632 75.203ZM374.287 120.845C374.019 121.046 373.753 121.248 373.486 121.449L374.391 122.646L374.686 122.422C374.854 122.296 375.021 122.17 375.189 122.044L374.287 120.845ZM773.123 77.6674C772.819 77.5283 772.515 77.3895 772.21 77.251L771.589 78.6164C771.892 78.7543 772.195 78.8926 772.498 79.0313L773.123 77.6674ZM369.506 124.499C369.242 124.704 368.978 124.91 368.715 125.115L369.638 126.298C369.9 126.093 370.163 125.889 370.426 125.684L369.506 124.499ZM778.574 80.2134C778.272 80.0698 777.971 79.9264 777.668 79.7835L777.027 81.1394C777.328 81.2818 777.629 81.4246 777.929 81.5677L778.574 80.2134ZM364.279 128.627L364 128.852L364.94 130.021C365.2 129.812 365.459 129.603 365.72 129.395L364.782 128.224C364.614 128.358 364.447 128.493 364.279 128.627ZM783.987 82.8407C783.687 82.6924 783.387 82.5446 783.087 82.3971L782.425 83.7432C782.724 83.8902 783.023 84.0375 783.321 84.1852L783.987 82.8407ZM359.822 132.261C359.661 132.394 359.501 132.527 359.34 132.66L360.298 133.814C360.554 133.602 360.811 133.389 361.068 133.177L360.113 132.02L359.822 132.261ZM788.926 85.3264C788.773 85.2482 788.62 85.1702 788.467 85.0922L787.786 86.4283C788.082 86.5797 788.379 86.7314 788.675 86.8836L789.36 85.5492C789.215 85.4748 789.071 85.4005 788.926 85.3264ZM355.066 136.256C354.956 136.35 354.847 136.443 354.738 136.536L355.713 137.676C355.966 137.46 356.219 137.244 356.473 137.028L355.501 135.885C355.356 136.009 355.211 136.133 355.066 136.256ZM794.692 88.3373C794.397 88.1802 794.102 88.0235 793.807 87.8671L793.105 89.1929C793.399 89.3487 793.694 89.5048 793.987 89.6613L794.692 88.3373ZM350.947 139.819C350.696 140.039 350.445 140.26 350.194 140.481L351.186 141.606C351.436 141.386 351.686 141.166 351.936 140.947L350.947 139.819ZM799.982 91.2044C799.69 91.0429 799.397 90.8819 799.104 90.7211L798.382 92.0363C798.562 92.1348 798.742 92.2335 798.921 92.3323C799.033 92.3941 799.146 92.4559 799.258 92.5178L799.982 91.2044ZM345.967 144.259L345.71 144.492L346.718 145.603C346.965 145.379 347.212 145.155 347.459 144.932L346.453 143.819C346.291 143.965 346.129 144.112 345.967 144.259ZM805.229 94.1496C804.939 93.9838 804.648 93.8184 804.357 93.6533L803.617 94.9576C803.906 95.1221 804.196 95.2869 804.485 95.4521L805.229 94.1496ZM342.018 147.885C341.774 148.113 341.529 148.341 341.285 148.569L342.31 149.665C342.553 149.437 342.796 149.21 343.04 148.983L342.018 147.885ZM810.431 97.1723C810.144 97.0023 809.856 96.8325 809.567 96.6632L808.807 97.9564C809.095 98.1252 809.382 98.2943 809.668 98.4637L810.431 97.1723ZM337.262 152.384C337.148 152.493 337.034 152.603 336.921 152.713L337.961 153.793C338.201 153.562 338.441 153.331 338.682 153.1L337.644 152.017C337.517 152.139 337.389 152.262 337.262 152.384ZM814.922 99.8651C814.859 99.8268 814.796 99.7884 814.733 99.7501L813.954 101.032C814.239 101.205 814.523 101.378 814.807 101.552L815.589 100.272C815.367 100.136 815.145 100.001 814.922 99.8651ZM333.331 156.213C333.094 156.448 332.856 156.683 332.619 156.918L333.675 157.983C333.912 157.749 334.148 157.514 334.385 157.28L333.331 156.213ZM820.7 103.447C820.417 103.268 820.134 103.09 819.851 102.913L819.054 104.183C819.336 104.36 819.617 104.537 819.899 104.715L820.7 103.447ZM329.081 160.471C328.847 160.71 328.613 160.948 328.379 161.187L329.451 162.236C329.684 161.998 329.917 161.76 330.151 161.523L329.081 160.471ZM825.763 106.696C825.483 106.514 825.203 106.331 824.922 106.15L824.106 107.408C824.385 107.589 824.665 107.771 824.944 107.953L825.763 106.696ZM324.893 164.792C324.663 165.034 324.432 165.276 324.202 165.519L325.289 166.552C325.518 166.311 325.748 166.069 325.978 165.828L324.893 164.792ZM830.358 109.737C830.221 109.645 830.084 109.553 829.947 109.462L829.112 110.708C829.389 110.893 829.665 111.079 829.942 111.265L830.779 110.021C830.639 109.926 830.498 109.832 830.358 109.737ZM320.769 169.175C320.542 169.42 320.315 169.665 320.088 169.911L321.191 170.928C321.417 170.683 321.643 170.439 321.869 170.195L320.769 169.175ZM835.746 113.418C835.471 113.227 835.197 113.037 834.922 112.847L834.069 114.081C834.343 114.27 834.617 114.46 834.89 114.65L835.746 113.418ZM316.711 173.615C316.488 173.863 316.264 174.112 316.041 174.361L317.158 175.362C317.381 175.114 317.603 174.866 317.826 174.619L316.711 173.615ZM840.661 116.886C840.389 116.692 840.117 116.497 839.845 116.303L838.974 117.524C839.245 117.718 839.516 117.911 839.787 118.105L840.661 116.886ZM312.717 178.115C312.497 178.367 312.277 178.619 312.058 178.871L313.189 179.856C313.408 179.605 313.627 179.353 313.846 179.103L312.717 178.115ZM845.526 120.427C845.257 120.229 844.988 120.03 844.719 119.832L843.83 121.041C844.098 121.238 844.367 121.436 844.635 121.634L845.526 120.427ZM308.788 182.675C308.571 182.93 308.355 183.185 308.14 183.44L309.285 184.409C309.5 184.154 309.715 183.9 309.931 183.646L308.788 182.675ZM850.341 124.04C850.075 123.837 849.809 123.635 849.542 123.433L848.636 124.629C848.902 124.83 849.167 125.031 849.432 125.233L850.341 124.04ZM304.928 187.287C304.716 187.545 304.504 187.803 304.292 188.062L305.451 189.013C305.662 188.756 305.874 188.499 306.086 188.242L304.928 187.287ZM855.098 127.718C854.835 127.512 854.572 127.306 854.309 127.1L853.385 128.282C853.648 128.487 853.91 128.693 854.172 128.898L855.098 127.718ZM300.722 192.474L300.509 192.741L301.682 193.675C301.789 193.542 301.895 193.408 302.002 193.275C302.103 193.148 302.204 193.021 302.306 192.894L301.135 191.957C300.997 192.129 300.859 192.302 300.722 192.474ZM859.804 131.467C859.544 131.257 859.284 131.047 859.023 130.838L858.083 132.006C858.342 132.215 858.602 132.424 858.861 132.634L859.804 131.467ZM297.407 196.683C297.202 196.948 296.997 197.212 296.793 197.477L297.979 198.394C298.183 198.13 298.387 197.867 298.592 197.604L297.407 196.683ZM864.458 135.286C864.2 135.072 863.943 134.859 863.686 134.645L862.728 135.8C862.985 136.013 863.242 136.226 863.498 136.439L864.458 135.286ZM293.751 201.46C293.55 201.727 293.349 201.994 293.149 202.261L294.348 203.161C294.548 202.895 294.748 202.629 294.949 202.363L293.751 201.46ZM869.051 139.168C868.797 138.951 868.544 138.734 868.289 138.517L867.316 139.658C867.569 139.874 867.822 140.09 868.075 140.307L869.051 139.168ZM289.756 206.847L289.573 207.099L290.786 207.981C290.896 207.831 291.005 207.68 291.115 207.529L291.375 207.174L290.164 206.289C290.028 206.475 289.892 206.661 289.756 206.847ZM873.589 143.117C873.338 142.896 873.088 142.675 872.836 142.454L871.846 143.581C872.097 143.801 872.347 144.021 872.596 144.241L873.589 143.117ZM286.645 211.171C286.451 211.444 286.258 211.717 286.065 211.99L287.29 212.856C287.483 212.583 287.675 212.311 287.868 212.04L286.645 211.171ZM878.073 147.133C877.825 146.908 877.577 146.683 877.329 146.459L876.323 147.572C876.57 147.795 876.817 148.019 877.064 148.243L878.073 147.133ZM283.197 216.104C283.008 216.379 282.818 216.654 282.63 216.93L283.867 217.777C284.055 217.503 284.244 217.228 284.432 216.954L283.197 216.104ZM882.496 151.211C882.252 150.983 882.008 150.755 881.764 150.528L880.742 151.626C880.985 151.853 881.228 152.08 881.471 152.307L882.496 151.211ZM279.823 221.081C279.637 221.359 279.452 221.637 279.267 221.915L280.517 222.745C280.701 222.468 280.885 222.19 281.07 221.913L279.823 221.081ZM886.859 155.351C886.618 155.119 886.377 154.887 886.135 154.656L885.098 155.739C885.338 155.97 885.578 156.201 885.818 156.431L886.859 155.351ZM276.518 226.109C276.336 226.39 276.155 226.671 275.974 226.952L277.235 227.764C277.415 227.484 277.596 227.204 277.777 226.924L276.518 226.109ZM891.165 159.555C890.927 159.32 890.689 159.085 890.451 158.85L889.398 159.918C889.635 160.152 889.872 160.387 890.109 160.621L891.165 159.555ZM273.282 231.189C273.105 231.472 272.928 231.755 272.751 232.038L274.024 232.832C274.2 232.549 274.377 232.267 274.553 231.985L273.282 231.189ZM895.411 163.823C895.177 163.584 894.943 163.346 894.709 163.109L893.641 164.162C893.874 164.398 894.107 164.636 894.34 164.873L895.411 163.823ZM270.126 236.304C269.953 236.59 269.78 236.875 269.607 237.161L270.891 237.937C271.063 237.652 271.235 237.367 271.408 237.083L270.126 236.304ZM899.591 168.144C899.36 167.902 899.129 167.66 898.898 167.419L897.815 168.457C898.045 168.697 898.275 168.938 898.505 169.179L899.591 168.144ZM267.04 241.468C266.871 241.757 266.702 242.045 266.533 242.334L267.828 243.091C267.996 242.803 268.165 242.516 268.333 242.228L267.04 241.468ZM903.711 172.528C903.484 172.283 903.257 172.038 903.029 171.793L901.931 172.815C902.158 173.059 902.385 173.303 902.611 173.547L903.711 172.528ZM264.026 246.681C263.86 246.972 263.695 247.263 263.53 247.554L264.836 248.293C265 248.003 265.165 247.712 265.33 247.423L264.026 246.681ZM907.773 176.974C907.549 176.726 907.325 176.477 907.1 176.229L905.988 177.235C906.212 177.483 906.435 177.73 906.659 177.978L907.773 176.974ZM261.089 251.929C260.928 252.221 260.768 252.514 260.607 252.807L261.923 253.527C262.028 253.336 262.133 253.144 262.238 252.953L262.404 252.652L261.089 251.929ZM911.764 181.47C911.544 181.219 911.324 180.968 911.103 180.717L909.977 181.707C910.197 181.957 910.416 182.207 910.635 182.458L911.764 181.47ZM258.228 257.218C258.071 257.513 257.914 257.809 257.758 258.104L259.084 258.806C259.24 258.511 259.396 258.217 259.552 257.923L258.228 257.218ZM915.693 186.025C915.476 185.77 915.259 185.515 915.042 185.261L913.902 186.236C914.118 186.489 914.334 186.742 914.55 186.996L915.693 186.025ZM255.159 263.098L254.981 263.447L256.317 264.129C256.469 263.832 256.621 263.535 256.773 263.239L255.439 262.553C255.346 262.735 255.252 262.917 255.159 263.098ZM919.56 190.639C919.347 190.381 919.134 190.123 918.92 189.866L917.766 190.824C917.979 191.08 918.192 191.337 918.404 191.594L919.56 190.639ZM252.727 267.926C252.578 268.225 252.43 268.524 252.283 268.823L253.628 269.487C253.775 269.188 253.923 268.89 254.07 268.592L252.727 267.926ZM923.359 195.304C923.15 195.043 922.941 194.783 922.731 194.524L921.564 195.465C921.772 195.724 921.981 195.983 922.189 196.243L923.359 195.304ZM250.094 273.33C249.949 273.631 249.806 273.933 249.662 274.234L251.017 274.879C251.16 274.578 251.303 274.277 251.447 273.977L250.094 273.33ZM927.089 200.019C926.884 199.756 926.678 199.492 926.472 199.229L925.291 200.154C925.496 200.416 925.701 200.679 925.906 200.941L927.089 200.019ZM247.535 278.776C247.395 279.08 247.255 279.384 247.115 279.688L248.479 280.313C248.618 280.01 248.757 279.707 248.897 279.405L247.535 278.776ZM930.756 204.792C930.554 204.526 930.352 204.259 930.149 203.993L928.956 204.901C929.157 205.166 929.359 205.432 929.56 205.698L930.756 204.792ZM245.05 284.265C244.915 284.569 244.78 284.875 244.645 285.18L246.017 285.785L246.197 285.378C246.272 285.21 246.346 285.042 246.421 284.874L245.05 284.265ZM934.357 209.619C934.159 209.35 933.961 209.081 933.763 208.813L932.557 209.704C932.754 209.972 932.951 210.239 933.148 210.507L934.357 209.619ZM242.65 289.772C242.519 290.079 242.388 290.387 242.257 290.694L243.638 291.281C243.768 290.974 243.899 290.668 244.029 290.362L242.65 289.772ZM937.882 214.485C937.688 214.214 937.493 213.942 937.299 213.67L936.08 214.545C936.274 214.815 936.467 215.086 936.661 215.357L937.882 214.485ZM240.325 295.32C240.198 295.63 240.071 295.939 239.945 296.249L241.334 296.816C241.46 296.507 241.586 296.199 241.713 295.89L240.325 295.32ZM941.342 219.408C941.152 219.133 940.961 218.858 940.77 218.583L939.539 219.44C939.645 219.593 939.751 219.745 939.856 219.897C939.941 220.019 940.025 220.14 940.109 220.262L941.342 219.408ZM238.075 300.908C237.953 301.219 237.83 301.531 237.708 301.843L239.105 302.39C239.171 302.221 239.237 302.052 239.303 301.883C239.359 301.741 239.415 301.6 239.471 301.458L238.075 300.908ZM944.737 224.384C944.55 224.106 944.363 223.829 944.176 223.551L942.933 224.391C943.119 224.667 943.306 224.944 943.492 225.221L944.737 224.384ZM235.694 307.086L235.555 307.454L236.96 307.981C237.077 307.67 237.194 307.358 237.312 307.047L235.909 306.516C235.837 306.706 235.765 306.896 235.694 307.086ZM948.053 229.396C947.871 229.117 947.689 228.837 947.506 228.558L946.251 229.38C946.339 229.514 946.427 229.649 946.515 229.784C946.609 229.928 946.703 230.071 946.797 230.215L948.053 229.396ZM233.821 312.155C233.707 312.469 233.594 312.783 233.481 313.098L234.892 313.606C235.005 313.292 235.118 312.979 235.231 312.666L233.821 312.155ZM951.301 234.457C951.123 234.175 950.944 233.892 950.765 233.61L949.498 234.414C949.677 234.696 949.855 234.977 950.033 235.259L951.301 234.457ZM231.81 317.83C231.7 318.146 231.591 318.462 231.482 318.779L232.901 319.267C233.009 318.951 233.118 318.636 233.227 318.321L231.81 317.83ZM954.482 239.571C954.307 239.286 954.132 239 953.956 238.715L952.679 239.502C952.854 239.786 953.028 240.07 953.203 240.354L954.482 239.571ZM229.879 323.532C229.774 323.849 229.67 324.165 229.566 324.482L230.991 324.95C231.095 324.634 231.199 324.319 231.303 324.003L229.879 323.532ZM957.588 244.724C957.417 244.437 957.247 244.151 957.076 243.864L955.788 244.633C955.958 244.918 956.128 245.204 956.298 245.49L957.588 244.724ZM228.032 329.249C227.932 329.568 227.832 329.887 227.732 330.206L229.164 330.653L229.317 330.163C229.366 330.008 229.414 329.854 229.463 329.7L228.032 329.249ZM960.337 249.428C960.264 249.301 960.191 249.173 960.117 249.046L958.818 249.796C958.985 250.085 959.151 250.373 959.317 250.662L960.617 249.915C960.524 249.752 960.431 249.59 960.337 249.428ZM226.263 335.001C226.167 335.321 226.071 335.642 225.976 335.963L227.413 336.39C227.469 336.203 227.525 336.017 227.581 335.83L227.7 335.432L226.263 335.001ZM963.578 255.155C963.416 254.863 963.253 254.57 963.09 254.278L961.78 255.01C961.943 255.301 962.105 255.592 962.267 255.884L963.578 255.155ZM224.572 340.786C224.48 341.107 224.389 341.429 224.298 341.751L225.742 342.158C225.832 341.837 225.923 341.517 226.014 341.197L224.572 340.786ZM966.148 259.847C966.097 259.751 966.045 259.655 965.993 259.56L964.674 260.273C964.832 260.566 964.99 260.859 965.148 261.153L966.469 260.443C966.362 260.244 966.255 260.045 966.148 259.847ZM222.967 346.574C222.881 346.896 222.794 347.219 222.708 347.541L224.157 347.928C224.243 347.607 224.329 347.286 224.416 346.964L222.967 346.574ZM969.276 265.751C969.122 265.455 968.967 265.159 968.813 264.863L967.483 265.558C967.638 265.853 967.791 266.148 967.945 266.443L969.276 265.751ZM221.442 352.391C221.36 352.715 221.278 353.039 221.196 353.363L222.65 353.73C222.732 353.407 222.814 353.084 222.896 352.761L221.442 352.391ZM972.012 271.108C971.862 270.809 971.712 270.51 971.561 270.212L970.222 270.888C970.372 271.186 970.522 271.483 970.672 271.781L972.012 271.108ZM219.996 358.238C219.918 358.564 219.84 358.89 219.763 359.216L221.222 359.562C221.299 359.238 221.377 358.913 221.455 358.588L219.996 358.238ZM974.679 276.512C974.532 276.21 974.386 275.909 974.239 275.608L972.891 276.265C973.037 276.565 973.183 276.866 973.329 277.166L974.679 276.512ZM218.634 364.098C218.56 364.423 218.488 364.749 218.415 365.074L219.879 365.4C219.951 365.076 220.024 364.752 220.097 364.427L218.634 364.098ZM977.263 281.939C977.122 281.637 976.98 281.335 976.838 281.033L975.481 281.672C975.622 281.973 975.763 282.274 975.904 282.575L977.263 281.939ZM217.355 369.969C217.286 370.296 217.217 370.623 217.149 370.95L218.618 371.256C218.686 370.93 218.754 370.604 218.822 370.278L217.355 369.969ZM979.771 287.402C979.633 287.097 979.496 286.792 979.358 286.488L977.992 287.108C978.129 287.411 978.266 287.714 978.403 288.018L979.771 287.402ZM216.155 375.868C216.091 376.196 216.027 376.525 215.963 376.854L217.436 377.139C217.469 376.967 217.503 376.794 217.536 376.622C217.567 376.467 217.597 376.312 217.627 376.156L216.155 375.868ZM982.207 292.908C982.073 292.601 981.94 292.294 981.806 291.988L980.431 292.588C980.565 292.894 980.698 293.2 980.831 293.506L982.207 292.908ZM215.037 381.791C214.977 382.119 214.918 382.447 214.859 382.775L216.336 383.04C216.395 382.713 216.453 382.386 216.513 382.059L215.037 381.791ZM984.566 298.45C984.438 298.143 984.309 297.835 984.18 297.528L982.797 298.11C982.926 298.416 983.054 298.722 983.182 299.028L984.566 298.45ZM214.005 387.704C213.95 388.034 213.896 388.363 213.841 388.692L215.321 388.936C215.375 388.608 215.43 388.28 215.485 387.952L214.005 387.704ZM986.842 304.007C986.717 303.697 986.592 303.387 986.467 303.078L985.077 303.64C985.201 303.948 985.326 304.257 985.449 304.566L986.842 304.007ZM213.054 393.643C213.004 393.974 212.953 394.305 212.904 394.635L214.387 394.859C214.436 394.529 214.487 394.2 214.537 393.87L213.054 393.643ZM989.044 309.606C988.923 309.294 988.803 308.982 988.682 308.67L987.283 309.212C987.404 309.523 987.524 309.834 987.644 310.145L989.044 309.606ZM212.184 399.607C212.138 399.939 212.092 400.271 212.047 400.603L213.533 400.806C213.578 400.475 213.624 400.144 213.67 399.813L212.184 399.607ZM991.172 315.247C991.056 314.932 990.94 314.618 990.823 314.304L989.417 314.827C989.533 315.14 989.65 315.453 989.765 315.767L991.172 315.247ZM211.369 405.806C211.337 406.057 211.306 406.309 211.276 406.56L212.765 406.742C212.805 406.413 212.846 406.083 212.887 405.753L211.398 405.567L211.369 405.806ZM993.215 320.895C993.104 320.581 992.992 320.267 992.88 319.952L991.467 320.456C991.579 320.769 991.69 321.082 991.801 321.396L993.215 320.895ZM210.696 411.534C210.659 411.866 210.623 412.199 210.587 412.531L212.078 412.693C212.114 412.361 212.15 412.03 212.187 411.699L210.696 411.534ZM995.18 326.575C995.073 326.258 994.966 325.942 994.858 325.626L993.438 326.11C993.545 326.425 993.653 326.74 993.759 327.056L995.18 326.575ZM210.075 417.524C210.042 417.857 210.011 418.19 209.979 418.524L211.472 418.665C211.504 418.333 211.536 418 211.568 417.668L210.075 417.524ZM997.071 332.295C996.968 331.976 996.865 331.657 996.761 331.339L995.335 331.803C995.438 332.12 995.541 332.438 995.644 332.755L997.071 332.295ZM209.493 424.043C209.48 424.203 209.467 424.363 209.455 424.523L210.95 424.644C210.976 424.313 211.003 423.982 211.031 423.651L209.536 423.528C209.522 423.699 209.507 423.871 209.493 424.043ZM998.882 338.038C998.784 337.72 998.686 337.401 998.587 337.083L997.154 337.528C997.253 337.845 997.351 338.162 997.448 338.479L998.882 338.038ZM209.082 429.511C209.059 429.844 209.036 430.177 209.014 430.51L210.511 430.61C210.533 430.278 210.555 429.946 210.578 429.614L209.082 429.511ZM1000.61 343.787C1000.51 343.467 1000.42 343.146 1000.33 342.826L998.887 343.251C998.981 343.57 999.075 343.889 999.168 344.208L1000.61 343.787ZM208.709 435.514C208.691 435.848 208.673 436.182 208.655 436.516L210.153 436.595C210.171 436.262 210.189 435.929 210.207 435.596L208.709 435.514ZM1002.26 349.573C1002.17 349.251 1002.08 348.928 1001.99 348.606L1000.54 349.011C1000.63 349.332 1000.72 349.653 1000.81 349.975L1002.26 349.573ZM208.419 441.537C208.405 441.872 208.392 442.207 208.379 442.542L209.877 442.601C209.891 442.266 209.904 441.932 209.918 441.598L208.419 441.537ZM1003.83 355.396C1003.75 355.072 1003.66 354.747 1003.58 354.423L1002.13 354.808C1002.21 355.131 1002.3 355.454 1002.38 355.778L1003.83 355.396ZM208.212 447.543C208.203 447.876 208.194 448.209 208.186 448.543L209.685 448.581C209.694 448.248 209.702 447.916 209.712 447.584L208.212 447.543ZM1005.32 361.212C1005.24 360.889 1005.16 360.566 1005.08 360.242L1003.62 360.607C1003.7 360.93 1003.79 361.252 1003.87 361.574L1005.32 361.212ZM208.087 453.548C208.083 453.882 208.079 454.216 208.075 454.55L209.575 454.568C209.578 454.235 209.583 453.902 209.587 453.569L208.087 453.548ZM1006.73 367.054C1006.65 366.728 1006.58 366.403 1006.5 366.078L1005.04 366.423C1005.12 366.747 1005.19 367.071 1005.27 367.395L1006.73 367.054ZM208.045 459.57C208.045 459.905 208.045 460.24 208.046 460.575L209.546 460.572C209.545 460.238 209.545 459.904 209.545 459.57L208.045 459.57ZM1008.06 372.929C1007.99 372.602 1007.92 372.275 1007.85 371.948L1006.38 372.273C1006.45 372.599 1006.53 372.925 1006.6 373.251L1008.06 372.929ZM208.085 465.602C208.089 465.935 208.094 466.268 208.099 466.6L209.599 466.577C209.594 466.245 209.589 465.914 209.585 465.582L208.085 465.602ZM1009.32 378.823C1009.25 378.497 1009.18 378.171 1009.11 377.846L1007.64 378.151C1007.71 378.475 1007.78 378.8 1007.85 379.125L1009.32 378.823ZM208.206 471.597C208.215 471.93 208.224 472.264 208.234 472.597L209.734 472.554C209.724 472.221 209.714 471.889 209.705 471.556L208.206 471.597ZM1010.48 384.707C1010.42 384.379 1010.36 384.052 1010.29 383.724L1008.82 384.009C1008.88 384.336 1008.95 384.662 1009.01 384.989L1010.48 384.707ZM1011.57 390.623C1011.51 390.294 1011.45 389.964 1011.4 389.635L1009.92 389.9C1009.98 390.228 1010.04 390.557 1010.09 390.885L1011.57 390.623ZM208.409 477.606C208.423 477.941 208.437 478.275 208.451 478.609L209.95 478.545C209.935 478.212 209.922 477.879 209.908 477.545L208.409 477.606ZM1012.58 396.571C1012.53 396.24 1012.48 395.909 1012.42 395.578L1010.94 395.823C1011 396.153 1011.05 396.483 1011.1 396.813L1012.58 396.571ZM208.695 483.63C208.713 483.965 208.732 484.3 208.75 484.635L210.248 484.551C210.229 484.217 210.211 483.883 210.193 483.549L208.695 483.63ZM1013.51 402.505C1013.46 402.176 1013.41 401.846 1013.36 401.517L1011.88 401.742C1011.93 402.07 1011.98 402.398 1012.03 402.727L1013.51 402.505ZM209.061 489.633C209.083 489.965 209.106 490.297 209.13 490.629L210.626 490.525C210.603 490.194 210.58 489.862 210.558 489.531L209.061 489.633ZM1014.36 408.45C1014.31 408.118 1014.27 407.788 1014.22 407.457L1012.74 407.662C1012.78 407.991 1012.83 408.321 1012.87 408.651L1014.36 408.45ZM209.507 495.618C209.534 495.951 209.561 496.283 209.589 496.616L211.084 496.492C211.056 496.16 211.029 495.828 211.002 495.496L209.507 495.618ZM1015.13 414.423C1015.09 414.091 1015.05 413.758 1015.01 413.426L1013.52 413.611C1013.56 413.942 1013.6 414.274 1013.64 414.605L1015.13 414.423ZM210.035 501.615C210.067 501.948 210.099 502.282 210.131 502.615L211.624 502.47L211.572 501.934C211.558 501.78 211.543 501.627 211.528 501.473L210.035 501.615ZM1015.77 419.925L1015.71 419.424L1014.22 419.589L1014.28 420.089L1014.33 420.588L1015.82 420.426L1015.77 419.925ZM210.646 507.623L210.7 508.124L210.756 508.626L212.246 508.461L212.191 507.961L212.137 507.461L210.646 507.623ZM1016.43 426.435C1016.4 426.101 1016.37 425.768 1016.34 425.434L1014.84 425.579C1014.87 425.912 1014.91 426.244 1014.94 426.577L1016.43 426.435ZM211.337 513.626C211.378 513.959 211.419 514.291 211.46 514.624L212.949 514.439C212.926 514.258 212.904 514.078 212.882 513.898L212.826 513.444L211.337 513.626ZM1016.96 432.432C1016.93 432.099 1016.91 431.766 1016.88 431.433L1015.38 431.558C1015.41 431.89 1015.44 432.222 1015.46 432.553L1016.96 432.432ZM212.179 520.125C212.2 520.281 212.222 520.437 212.243 520.593L213.729 520.388C213.684 520.058 213.638 519.728 213.594 519.398L212.107 519.6C212.131 519.775 212.155 519.95 212.179 520.125ZM1017.41 438.417C1017.38 438.085 1017.36 437.752 1017.34 437.42L1015.84 437.525C1015.86 437.856 1015.89 438.187 1015.91 438.518L1017.41 438.417ZM212.955 525.545C213.004 525.874 213.054 526.203 213.103 526.532L214.587 526.307C214.537 525.979 214.487 525.651 214.438 525.323L212.955 525.545ZM1017.77 444.42C1017.75 444.085 1017.74 443.749 1017.72 443.414L1016.22 443.499C1016.24 443.833 1016.26 444.167 1016.27 444.501L1017.77 444.42ZM213.882 531.479C213.936 531.81 213.991 532.141 214.046 532.472L215.526 532.227C215.471 531.897 215.417 531.567 215.363 531.237L213.882 531.479ZM1018.06 450.443C1018.04 450.109 1018.03 449.775 1018.02 449.44L1016.52 449.505C1016.53 449.838 1016.55 450.171 1016.56 450.504L1018.06 450.443ZM214.978 537.897C215.009 538.069 215.04 538.242 215.071 538.415L216.547 538.15C216.509 537.934 216.47 537.719 216.432 537.504L216.372 537.165L214.895 537.426L214.978 537.897ZM1018.26 456.453C1018.25 456.119 1018.24 455.786 1018.23 455.452L1016.73 455.496C1016.74 455.829 1016.75 456.161 1016.76 456.493L1018.26 456.453ZM216.094 543.913L216.174 544.325L217.646 544.04C217.583 543.714 217.52 543.387 217.458 543.061L215.985 543.343C216.021 543.533 216.058 543.723 216.094 543.913ZM217.151 549.227C217.218 549.553 217.286 549.878 217.353 550.204L218.822 549.899L218.758 549.591C218.712 549.369 218.666 549.147 218.621 548.925L217.151 549.227ZM1018.38 462.447C1018.38 462.115 1018.37 461.782 1018.37 461.449L1016.87 461.473C1016.87 461.804 1016.88 462.136 1016.88 462.467L1018.38 462.447ZM218.504 555.577C218.543 555.752 218.582 555.927 218.62 556.102L220.085 555.777C220.012 555.451 219.94 555.125 219.869 554.799L218.404 555.12L218.504 555.577ZM1018.42 468.48C1018.42 468.145 1018.42 467.81 1018.42 467.474L1016.92 467.477C1016.92 467.812 1016.92 468.145 1016.92 468.479L1018.42 468.48ZM219.736 560.996C219.812 561.321 219.889 561.647 219.966 561.972L221.426 561.627C221.349 561.303 221.273 560.979 221.197 560.654L219.736 560.996ZM1018.38 474.502C1018.38 474.168 1018.39 473.834 1018.39 473.499L1016.89 473.482C1016.89 473.815 1016.88 474.148 1016.88 474.481L1018.38 474.502ZM221.145 566.837C221.226 567.161 221.307 567.484 221.388 567.807L222.843 567.442C222.762 567.12 222.681 566.798 222.601 566.475L221.145 566.837ZM1018.25 480.507C1018.26 480.174 1018.27 479.84 1018.28 479.507L1016.78 479.469C1016.77 479.801 1016.76 480.133 1016.76 480.465L1018.25 480.507ZM222.633 572.653C222.718 572.978 222.804 573.302 222.89 573.626L224.34 573.242C224.274 572.994 224.209 572.747 224.144 572.5L224.084 572.272L222.633 572.653ZM1018.05 486.513C1018.06 486.178 1018.07 485.843 1018.09 485.508L1016.59 485.449C1016.58 485.783 1016.56 486.117 1016.55 486.451L1018.05 486.513ZM224.208 578.476C224.297 578.799 224.387 579.121 224.478 579.443L225.922 579.038C225.832 578.717 225.742 578.396 225.653 578.075L224.208 578.476ZM1017.76 492.536C1017.78 492.202 1017.79 491.868 1017.81 491.533L1016.31 491.454C1016.3 491.787 1016.28 492.12 1016.26 492.453L1017.76 492.536ZM225.859 584.263C225.952 584.583 226.046 584.903 226.141 585.223L227.58 584.799C227.485 584.48 227.392 584.161 227.298 583.841L225.859 584.263ZM1017.38 498.539C1017.41 498.206 1017.43 497.873 1017.45 497.54L1015.96 497.44C1015.93 497.772 1015.91 498.104 1015.89 498.436L1017.38 498.539ZM227.584 590.012C227.682 590.33 227.781 590.648 227.879 590.966L229.312 590.522C229.214 590.205 229.116 589.888 229.018 589.57L227.584 590.012ZM1016.93 504.522C1016.96 504.19 1016.99 503.858 1017.01 503.526L1015.52 503.406C1015.49 503.737 1015.46 504.068 1015.44 504.398L1016.93 504.522ZM229.396 595.755C229.498 596.074 229.602 596.393 229.705 596.711L231.132 596.247C231.058 596.02 230.984 595.793 230.911 595.565L230.823 595.294L229.396 595.755ZM1016.39 510.526C1016.42 510.193 1016.46 509.859 1016.49 509.526L1014.99 509.385C1014.96 509.717 1014.93 510.049 1014.9 510.382L1016.39 510.526ZM231.286 601.475C231.394 601.791 231.501 602.108 231.609 602.424L233.029 601.94C232.921 601.625 232.814 601.309 232.707 600.994L231.286 601.475ZM1015.77 516.515C1015.81 516.183 1015.84 515.851 1015.88 515.519L1014.39 515.357C1014.35 515.688 1014.32 516.019 1014.28 516.35L1015.77 516.515ZM233.252 607.154C233.363 607.469 233.475 607.783 233.586 608.097L234.999 607.594L234.864 607.213C234.798 607.027 234.732 606.841 234.666 606.654L233.252 607.154ZM1015.07 522.482C1015.11 522.151 1015.15 521.821 1015.19 521.489L1013.7 521.307C1013.66 521.637 1013.62 521.967 1013.58 522.297L1015.07 522.482ZM235.294 612.803C235.41 613.117 235.527 613.432 235.644 613.746L237.05 613.223C236.933 612.91 236.817 612.597 236.701 612.283L235.294 612.803ZM1014.28 528.443C1014.33 528.111 1014.37 527.778 1014.42 527.446L1012.93 527.243C1012.89 527.574 1012.84 527.905 1012.8 528.236L1014.28 528.443ZM237.423 618.444C237.543 618.756 237.664 619.068 237.785 619.38L239.183 618.837C239.063 618.527 238.942 618.216 238.822 617.904L237.423 618.444ZM1013.41 534.406C1013.46 534.076 1013.51 533.745 1013.56 533.414L1012.08 533.191C1012.03 533.52 1011.98 533.85 1011.93 534.18L1013.41 534.406ZM239.625 624.043C239.749 624.353 239.874 624.662 239.999 624.972L241.39 624.41C241.265 624.102 241.141 623.793 241.017 623.484L239.625 624.043ZM1012.46 540.345C1012.52 540.016 1012.57 539.687 1012.63 539.357L1011.15 539.113C1011.09 539.442 1011.04 539.77 1010.98 540.098L1012.46 540.345ZM241.9 629.599C242.029 629.907 242.157 630.214 242.286 630.521L243.669 629.94C243.541 629.634 243.412 629.328 243.284 629.021L241.9 629.599ZM1011.43 546.258C1011.49 545.931 1011.55 545.603 1011.61 545.275L1010.13 545.01C1010.07 545.337 1010.01 545.664 1009.95 545.99L1011.43 546.258ZM244.26 635.141C244.393 635.448 244.527 635.755 244.661 636.062L246.035 635.462C245.902 635.156 245.769 634.85 245.636 634.544L244.26 635.141ZM1010.31 552.182C1010.38 551.853 1010.44 551.525 1010.5 551.196L1009.03 550.911C1008.97 551.238 1008.9 551.566 1008.84 551.893L1010.31 552.182ZM246.696 640.648C246.833 640.953 246.971 641.257 247.109 641.562L248.475 640.942C248.408 640.794 248.341 640.646 248.274 640.498C248.204 640.343 248.133 640.187 248.063 640.032L246.696 640.648ZM1009.28 557.274L1009.32 557.1L1007.85 556.794C1007.78 557.12 1007.71 557.446 1007.64 557.772L1009.11 558.081C1009.17 557.812 1009.22 557.543 1009.28 557.274ZM249.204 646.11C249.345 646.412 249.487 646.714 249.629 647.016L250.986 646.378C250.844 646.077 250.703 645.776 250.562 645.475L249.204 646.11ZM1007.83 563.952C1007.91 563.626 1007.98 563.301 1008.05 562.975L1006.59 562.649C1006.52 562.974 1006.44 563.298 1006.37 563.622L1007.83 563.952ZM251.788 651.538C251.934 651.839 252.081 652.141 252.227 652.442L253.576 651.784C253.429 651.484 253.283 651.184 253.138 650.884L251.788 651.538ZM1006.63 569.162L1006.7 568.834L1005.24 568.487C1005.17 568.812 1005.09 569.137 1005.01 569.461L1006.47 569.811C1006.52 569.595 1006.57 569.378 1006.63 569.162ZM254.454 656.942C254.604 657.241 254.755 657.539 254.905 657.838L256.244 657.162C256.158 656.99 256.071 656.819 255.985 656.647L255.795 656.269L254.454 656.942ZM1005.02 575.659C1005.11 575.335 1005.19 575.011 1005.27 574.686L1003.82 574.32C1003.76 574.556 1003.7 574.792 1003.64 575.028L1003.57 575.289L1005.02 575.659ZM257.191 662.298C257.345 662.595 257.499 662.891 257.654 663.186L258.983 662.492C258.829 662.197 258.675 661.902 258.522 661.606L257.191 662.298ZM1003.5 581.476C1003.59 581.154 1003.67 580.831 1003.76 580.509L1002.31 580.121C1002.22 580.443 1002.14 580.764 1002.05 581.085L1003.5 581.476ZM260.388 668.332L260.473 668.49L261.793 667.776C261.634 667.483 261.476 667.19 261.319 666.897L259.997 667.607C260.127 667.849 260.257 668.09 260.388 668.332ZM1001.89 587.264C1001.99 586.942 1002.08 586.621 1002.17 586.299L1000.72 585.892C1000.68 586.05 1000.64 586.208 1000.59 586.366C1000.54 586.528 1000.5 586.691 1000.45 586.853L1001.89 587.264ZM262.888 672.895C263.051 673.187 263.214 673.479 263.377 673.771L264.686 673.04C264.524 672.749 264.361 672.457 264.199 672.166L262.888 672.895ZM1000.2 593.049C1000.3 592.728 1000.4 592.408 1000.49 592.087L999.053 591.659C998.958 591.979 998.863 592.298 998.767 592.618L1000.2 593.049ZM265.849 678.135C266.016 678.425 266.182 678.714 266.349 679.003L267.648 678.253C267.482 677.965 267.316 677.677 267.15 677.388L265.849 678.135ZM998.434 598.8C998.535 598.482 998.635 598.163 998.735 597.844L997.303 597.396C997.204 597.714 997.104 598.032 997.004 598.349L998.434 598.8ZM268.879 683.325C269.049 683.612 269.22 683.899 269.39 684.185L270.679 683.417C270.509 683.132 270.339 682.846 270.169 682.56L268.879 683.325ZM996.587 604.518C996.692 604.201 996.796 603.884 996.9 603.567L995.475 603.099C995.372 603.415 995.268 603.731 995.163 604.047L996.587 604.518ZM272.187 688.809C272.295 688.984 272.402 689.159 272.51 689.334L273.788 688.548C273.613 688.264 273.438 687.98 273.264 687.695L271.985 688.478L272.187 688.809ZM994.656 610.22C994.766 609.904 994.875 609.587 994.984 609.271L993.566 608.783C993.457 609.098 993.348 609.414 993.239 609.729L994.656 610.22ZM275.614 694.3L275.702 694.439L276.968 693.635C276.861 693.467 276.754 693.298 276.647 693.129L276.433 692.791L275.165 693.592C275.315 693.828 275.464 694.064 275.614 694.3ZM992.646 615.895C992.759 615.581 992.873 615.266 992.986 614.952L991.575 614.444C991.462 614.758 991.349 615.071 991.235 615.384L992.646 615.895ZM278.413 698.653C278.595 698.933 278.778 699.213 278.961 699.492L280.216 698.67C280.033 698.392 279.851 698.113 279.67 697.834L278.413 698.653ZM990.765 620.985L990.911 620.596L989.507 620.069C989.39 620.38 989.273 620.691 989.155 621.002L990.558 621.533C990.627 621.351 990.696 621.168 990.765 620.985ZM281.729 703.665C281.916 703.943 282.103 704.221 282.291 704.498L283.534 703.659C283.347 703.382 283.161 703.106 282.975 702.829L281.729 703.665ZM988.391 627.142C988.514 626.831 988.636 626.519 988.759 626.207L987.362 625.66C987.24 625.971 987.118 626.281 986.996 626.592L988.391 627.142ZM285.124 708.642C285.315 708.917 285.506 709.192 285.697 709.466L286.928 708.609C286.737 708.336 286.547 708.062 286.358 707.788L285.124 708.642ZM986.141 632.729C986.269 632.42 986.395 632.111 986.522 631.801L985.133 631.234C985.007 631.543 984.881 631.851 984.754 632.159L986.141 632.729ZM288.585 713.564C288.779 713.836 288.973 714.108 289.168 714.379L290.387 713.505C290.193 713.235 289.999 712.964 289.806 712.693L288.585 713.564ZM983.816 638.277C983.948 637.97 984.079 637.663 984.209 637.355L982.828 636.769C982.698 637.076 982.568 637.382 982.437 637.688L983.816 638.277ZM292.11 718.431C292.307 718.7 292.505 718.968 292.703 719.237L293.91 718.345C293.771 718.157 293.632 717.969 293.493 717.78L293.318 717.543L292.11 718.431ZM981.416 643.785C981.552 643.48 981.687 643.175 981.821 642.87L980.449 642.264C980.365 642.455 980.281 642.645 980.196 642.836L980.045 643.176L981.416 643.785ZM295.71 723.257C295.912 723.524 296.115 723.791 296.317 724.057L297.511 723.149C297.309 722.883 297.108 722.618 296.906 722.352L295.71 723.257ZM978.932 649.273C979.072 648.969 979.212 648.666 979.351 648.361L977.988 647.736C977.849 648.039 977.709 648.342 977.57 648.645L978.932 649.273ZM299.377 728.03C299.583 728.294 299.789 728.557 299.995 728.82L301.176 727.895C300.97 727.633 300.765 727.371 300.56 727.108L299.377 728.03ZM976.373 654.72C976.517 654.419 976.661 654.117 976.805 653.815L975.45 653.171C975.307 653.472 975.163 653.772 975.02 654.073L976.373 654.72ZM303.107 732.746C303.316 733.006 303.526 733.266 303.735 733.526L304.903 732.584L304.639 732.257C304.518 732.107 304.398 731.957 304.277 731.807L303.107 732.746ZM973.74 660.124C973.888 659.825 974.036 659.526 974.184 659.226L972.839 658.563C972.72 658.803 972.601 659.043 972.483 659.283L972.396 659.457L973.74 660.124ZM306.906 737.411C307.119 737.669 307.333 737.926 307.546 738.184L308.701 737.226C308.488 736.969 308.275 736.712 308.062 736.455L306.906 737.411ZM971.028 665.496C971.181 665.199 971.333 664.901 971.485 664.603L970.15 663.921C969.998 664.217 969.846 664.514 969.693 664.811L971.028 665.496ZM310.774 742.025C310.99 742.28 311.207 742.534 311.424 742.788L312.565 741.814C312.348 741.561 312.132 741.307 311.917 741.053L310.774 742.025ZM968.539 670.265L968.709 669.945L967.383 669.244C967.294 669.412 967.205 669.58 967.116 669.748L966.914 670.127L968.239 670.831C968.339 670.643 968.439 670.454 968.539 670.265ZM314.703 746.58C314.923 746.831 315.143 747.082 315.363 747.333L316.49 746.342C316.27 746.092 316.051 745.842 315.831 745.592L314.703 746.58ZM965.377 676.121C965.538 675.828 965.699 675.535 965.859 675.242L964.543 674.522C964.383 674.814 964.223 675.106 964.063 675.398L965.377 676.121ZM318.693 751.075C318.917 751.324 319.142 751.572 319.366 751.821L320.478 750.814C320.255 750.567 320.031 750.319 319.808 750.071L318.693 751.075ZM962.686 680.938C962.769 680.79 962.853 680.643 962.936 680.495L961.631 679.757C961.466 680.047 961.302 680.337 961.137 680.627L962.441 681.369C962.522 681.225 962.604 681.081 962.686 680.938ZM322.755 755.522C322.982 755.767 323.21 756.012 323.438 756.257L324.536 755.235C324.309 754.991 324.082 754.747 323.855 754.502L322.755 755.522ZM959.426 686.581C959.596 686.293 959.765 686.005 959.934 685.716L958.639 684.959C958.528 685.147 958.418 685.336 958.307 685.525L958.133 685.821L959.426 686.581ZM326.876 759.906C327.107 760.148 327.337 760.389 327.569 760.631L328.652 759.593C328.421 759.352 328.191 759.112 327.962 758.871L326.876 759.906ZM956.613 691.296C956.695 691.16 956.778 691.024 956.86 690.888L955.576 690.113C955.404 690.398 955.231 690.683 955.058 690.967L956.34 691.746C956.431 691.596 956.522 691.446 956.613 691.296ZM331.055 764.227C331.289 764.465 331.523 764.703 331.757 764.941L332.826 763.888C332.592 763.651 332.359 763.414 332.126 763.177L331.055 764.227ZM953.184 696.861C953.361 696.578 953.538 696.295 953.715 696.012L952.442 695.218C952.266 695.5 952.09 695.782 951.913 696.064L953.184 696.861ZM335.302 768.494C335.54 768.73 335.778 768.965 336.016 769.2L337.069 768.131C336.831 767.897 336.594 767.663 336.358 767.429L335.302 768.494ZM949.949 701.94C950.131 701.659 950.312 701.378 950.493 701.097L949.232 700.285C949.051 700.566 948.871 700.846 948.69 701.125L949.949 701.94ZM339.608 772.699C339.849 772.931 340.09 773.162 340.331 773.393L341.369 772.31C341.128 772.08 340.888 771.849 340.648 771.618L339.608 772.699ZM946.993 706.445L947.199 706.134L945.95 705.305C945.766 705.582 945.581 705.859 945.396 706.136L946.644 706.969C946.76 706.794 946.877 706.62 946.993 706.445ZM344.433 777.271L344.703 777.522L345.725 776.424C345.481 776.197 345.238 775.97 344.995 775.743L343.97 776.838C344.125 776.982 344.279 777.127 344.433 777.271ZM943.27 711.946C943.459 711.671 943.648 711.396 943.837 711.12L942.599 710.272C942.505 710.411 942.41 710.549 942.315 710.686C942.222 710.823 942.128 710.959 942.034 711.095L943.27 711.946ZM348.394 780.916C348.641 781.141 348.889 781.366 349.137 781.591L350.143 780.478C349.896 780.254 349.649 780.031 349.403 779.806L348.394 780.916ZM939.821 716.878C940.015 716.606 940.208 716.333 940.401 716.059L939.176 715.194C939.081 715.328 938.986 715.463 938.891 715.597C938.793 715.735 938.696 715.873 938.598 716.01L939.821 716.878ZM352.877 784.933C353.128 785.154 353.379 785.375 353.63 785.596L354.62 784.469C354.37 784.249 354.12 784.029 353.87 783.808L352.877 784.933ZM936.503 721.487C936.633 721.308 936.763 721.13 936.893 720.951L935.681 720.068C935.485 720.338 935.288 720.607 935.092 720.875L936.302 721.761L936.503 721.487ZM357.416 788.881C357.669 789.099 357.923 789.316 358.177 789.533L359.151 788.392C358.898 788.176 358.645 787.959 358.392 787.743L357.416 788.881ZM933.134 726.033L933.318 725.789L932.118 724.888C931.918 725.155 931.718 725.421 931.518 725.686L932.716 726.589C932.855 726.404 932.995 726.219 933.134 726.033ZM362.009 792.763C362.266 792.977 362.523 793.191 362.781 793.405L363.738 792.25C363.481 792.037 363.225 791.824 362.969 791.611L362.009 792.763ZM929.338 731.007C929.45 730.862 929.562 730.718 929.674 730.573L928.487 729.655C928.283 729.919 928.079 730.183 927.875 730.446L929.059 731.366L929.338 731.007ZM366.663 796.582C366.923 796.792 367.183 797.002 367.443 797.212L368.384 796.043C368.124 795.834 367.865 795.625 367.606 795.416L366.663 796.582ZM925.332 736.093C925.541 735.832 925.749 735.57 925.958 735.309L924.784 734.374C924.577 734.635 924.369 734.895 924.161 735.155L925.332 736.093ZM371.369 800.331C371.631 800.538 371.895 800.744 372.158 800.949L373.081 799.767C372.819 799.562 372.557 799.357 372.295 799.151L371.369 800.331ZM921.538 740.762C921.751 740.504 921.963 740.246 922.175 739.988L921.015 739.036L920.78 739.323C920.647 739.485 920.514 739.647 920.381 739.808L921.538 740.762ZM376.126 804.01C376.392 804.212 376.658 804.415 376.924 804.617L377.83 803.421C377.565 803.22 377.3 803.018 377.035 802.817L376.126 804.01ZM917.679 745.374C917.895 745.12 918.111 744.865 918.327 744.609L917.181 743.641C916.966 743.895 916.751 744.15 916.536 744.403L917.679 745.374ZM380.941 807.622C381.209 807.821 381.479 808.02 381.748 808.218L382.637 807.009C382.368 806.812 382.1 806.614 381.832 806.416L380.941 807.622ZM913.749 749.934C913.969 749.683 914.189 749.431 914.409 749.179L913.277 748.194C913.058 748.445 912.839 748.696 912.62 748.947L913.749 749.934ZM385.806 811.163C386.078 811.358 386.35 811.552 386.622 811.746L387.493 810.525L387.072 810.225C386.941 810.131 386.81 810.038 386.68 809.944L385.806 811.163ZM909.755 754.435C909.979 754.186 910.202 753.938 910.425 753.689L909.308 752.688C909.086 752.936 908.863 753.184 908.64 753.431L909.755 754.435ZM390.721 814.632C390.995 814.822 391.27 815.013 391.544 815.203L392.397 813.969C392.124 813.779 391.85 813.59 391.577 813.4L390.721 814.632ZM905.697 758.875C905.925 758.63 906.151 758.385 906.378 758.139L905.276 757.122C905.05 757.366 904.824 757.611 904.598 757.855L905.697 758.875ZM395.687 818.029C395.964 818.216 396.242 818.402 396.52 818.588L397.355 817.342C397.078 817.156 396.801 816.971 396.525 816.785L395.687 818.029ZM901.573 763.257C901.804 763.015 902.035 762.773 902.265 762.531L901.178 761.498C901.046 761.636 900.915 761.774 900.784 761.911C900.685 762.015 900.587 762.118 900.488 762.221L901.573 763.257ZM400.703 821.353C400.983 821.536 401.264 821.718 401.544 821.9L402.36 820.642C402.081 820.46 401.802 820.279 401.523 820.097L400.703 821.353ZM897.385 767.578C897.619 767.34 897.854 767.101 898.087 766.863L897.015 765.813C896.782 766.051 896.549 766.289 896.316 766.527L897.385 767.578ZM405.767 824.603C406.049 824.781 406.332 824.959 406.615 825.137L407.413 823.867C407.131 823.69 406.849 823.512 406.568 823.335L405.767 824.603ZM893.135 771.837C893.373 771.602 893.611 771.367 893.848 771.131L892.791 770.067C892.555 770.301 892.318 770.535 892.081 770.769L893.135 771.837ZM410.877 827.778C411.162 827.952 411.448 828.126 411.734 828.299L412.513 827.018C412.228 826.845 411.943 826.671 411.659 826.498L410.877 827.778ZM888.823 776.032C889.064 775.801 889.305 775.569 889.546 775.337L888.505 774.257C888.372 774.385 888.239 774.513 888.106 774.641L887.785 774.949L888.823 776.032ZM416.035 830.877C416.323 831.047 416.611 831.217 416.899 831.386L417.659 830.093C417.372 829.925 417.085 829.755 416.798 829.586L416.035 830.877ZM884.448 780.164C884.693 779.937 884.937 779.708 885.181 779.48L884.157 778.385C884.004 778.527 883.852 778.67 883.699 778.812L883.426 779.066L884.448 780.164ZM421.238 833.9C421.528 834.066 421.818 834.231 422.109 834.396L422.85 833.092C422.631 832.968 422.413 832.844 422.195 832.719L421.982 832.598L421.238 833.9ZM880.013 784.231C880.261 784.007 880.509 783.782 880.757 783.558L879.748 782.447C879.502 782.671 879.255 782.895 879.008 783.118L880.013 784.231ZM426.484 836.845C426.777 837.007 427.07 837.168 427.363 837.329L428.084 836.013C427.792 835.853 427.5 835.693 427.209 835.532L426.484 836.845ZM875.519 788.231C875.77 788.011 876.022 787.79 876.272 787.569L875.281 786.444C875.031 786.664 874.781 786.884 874.53 787.103L875.519 788.231ZM431.774 839.712C432.069 839.869 432.364 840.026 432.66 840.183L433.362 838.857C433.067 838.701 432.773 838.545 432.479 838.388L431.774 839.712ZM870.966 792.164C871.22 791.948 871.475 791.731 871.729 791.513L870.754 790.373C870.501 790.59 870.247 790.806 869.994 791.022L870.966 792.164ZM437.106 842.5C437.404 842.653 437.701 842.805 437.999 842.957L438.681 841.621C438.384 841.47 438.088 841.318 437.791 841.166L437.106 842.5ZM866.354 796.029C866.612 795.816 866.869 795.603 867.127 795.39L866.169 794.235C865.912 794.448 865.656 794.66 865.399 794.872L866.354 796.029ZM442.48 845.209C442.78 845.357 443.079 845.505 443.38 845.653L444.041 844.306L443.729 844.152C443.534 844.057 443.34 843.961 443.145 843.865L442.48 845.209ZM861.685 799.825C861.946 799.616 862.206 799.407 862.467 799.197L861.526 798.029C861.267 798.238 861.007 798.446 860.747 798.655L861.685 799.825ZM447.892 847.836C448.194 847.98 448.496 848.123 448.798 848.266L449.44 846.91C449.139 846.768 448.838 846.625 448.537 846.482L447.892 847.836ZM856.96 803.55C857.224 803.345 857.488 803.14 857.752 802.934L856.829 801.752C856.566 801.957 856.303 802.161 856.04 802.365L856.96 803.55ZM453.344 850.382C453.648 850.521 453.952 850.66 454.256 850.799L454.877 849.433C454.574 849.295 454.271 849.157 453.968 849.018L453.344 850.382ZM852.18 807.204C852.447 807.003 852.714 806.802 852.981 806.6L852.076 805.404C851.81 805.605 851.544 805.806 851.278 806.006L852.18 807.204ZM458.834 852.847C459.14 852.981 459.447 853.115 459.753 853.249L460.354 851.875C460.048 851.741 459.743 851.608 459.438 851.474L458.834 852.847ZM847.344 810.787C847.614 810.59 847.884 810.393 848.154 810.195L847.267 808.985C847.121 809.092 846.975 809.199 846.828 809.306C846.706 809.396 846.583 809.486 846.46 809.575L847.344 810.787ZM464.36 855.228C464.668 855.357 464.976 855.487 465.284 855.616L465.864 854.233C465.557 854.104 465.25 853.975 464.943 853.846L464.36 855.228ZM842.457 814.295C842.729 814.102 843.002 813.909 843.275 813.716L842.406 812.493C842.135 812.686 841.863 812.878 841.591 813.07L842.457 814.295ZM469.92 857.524C470.23 857.65 470.54 857.775 470.85 857.899L471.409 856.507C471.1 856.383 470.791 856.259 470.482 856.134L469.92 857.524ZM837.517 817.729C837.793 817.54 838.068 817.351 838.344 817.162L837.494 815.926C837.219 816.115 836.945 816.303 836.67 816.491L837.517 817.729ZM475.516 859.738C475.828 859.858 476.14 859.979 476.453 860.098L476.99 858.698C476.679 858.579 476.368 858.459 476.058 858.339L475.516 859.738ZM832.927 820.822C833.071 820.726 833.215 820.63 833.359 820.534L832.528 819.286C832.251 819.47 831.973 819.655 831.695 819.839L832.523 821.089C832.658 821 832.792 820.911 832.927 820.822ZM481.404 861.961C481.632 862.045 481.859 862.129 482.087 862.212L482.604 860.804C482.291 860.69 481.979 860.575 481.667 860.459L481.147 861.866L481.404 861.961ZM827.48 824.373C827.762 824.193 828.043 824.013 828.323 823.832L827.511 822.571C827.232 822.751 826.952 822.93 826.671 823.11L827.48 824.373ZM487.309 864.085C487.456 864.137 487.603 864.188 487.75 864.239L488.244 862.823C487.93 862.713 487.616 862.603 487.302 862.493L486.804 863.907C486.972 863.967 487.141 864.026 487.309 864.085ZM822.391 827.578C822.675 827.402 822.959 827.226 823.243 827.049L822.45 825.776C822.167 825.952 821.884 826.127 821.601 826.303L822.391 827.578ZM493.09 866.062L493.446 866.181L493.919 864.757C493.603 864.652 493.287 864.547 492.971 864.441L492.494 865.863C492.693 865.93 492.892 865.996 493.09 866.062ZM817.25 830.707C817.537 830.535 817.824 830.363 818.11 830.191L817.337 828.905C817.052 829.077 816.766 829.248 816.48 829.42L817.25 830.707ZM498.218 867.733C498.537 867.835 498.856 867.936 499.175 868.036L499.626 866.606C499.308 866.506 498.991 866.405 498.673 866.304L498.218 867.733ZM812.059 833.759C812.348 833.591 812.638 833.424 812.927 833.256L812.173 831.959C811.885 832.126 811.597 832.293 811.308 832.46L812.059 833.759ZM503.962 869.513C504.282 869.61 504.602 869.706 504.922 869.801L505.351 868.364C505.032 868.269 504.713 868.173 504.395 868.077L503.962 869.513ZM806.83 836.726C807.122 836.563 807.414 836.4 807.705 836.237L806.972 834.928C806.681 835.091 806.391 835.254 806.1 835.416L806.83 836.726ZM510.285 871.362L510.7 871.479L511.107 870.036C510.787 869.945 510.466 869.854 510.146 869.763L509.735 871.206C509.918 871.258 510.101 871.31 510.285 871.362ZM801.553 839.615C801.847 839.457 802.142 839.298 802.436 839.139L801.722 837.82C801.429 837.978 801.136 838.136 800.842 838.294L801.553 839.615ZM515.538 872.811C515.862 872.898 516.185 872.984 516.509 873.07L516.894 871.62C516.571 871.535 516.249 871.449 515.927 871.362L515.538 872.811ZM796.226 842.426C796.523 842.272 796.82 842.118 797.117 841.963L796.424 840.633C796.128 840.787 795.832 840.941 795.536 841.094L796.226 842.426ZM521.36 874.326C521.684 874.407 522.008 874.488 522.332 874.569L522.695 873.114C522.372 873.033 522.049 872.952 521.727 872.871L521.36 874.326ZM790.865 845.15C791.164 845.001 791.463 844.852 791.761 844.702L791.088 843.361C790.791 843.511 790.494 843.659 790.196 843.808L790.865 845.15ZM527.203 875.75C527.528 875.827 527.854 875.903 528.179 875.979L528.519 874.518C528.195 874.442 527.871 874.366 527.547 874.29L527.203 875.75ZM785.462 847.792C785.763 847.648 786.065 847.503 786.366 847.357L785.714 846.007C785.414 846.151 785.114 846.296 784.813 846.44L785.462 847.792ZM533.073 877.085C533.4 877.157 533.727 877.229 534.054 877.299L534.372 875.834C534.046 875.763 533.72 875.692 533.395 875.62L533.073 877.085ZM780.012 850.354C780.316 850.214 780.62 850.073 780.924 849.932L780.293 848.572C780.108 848.657 779.923 848.743 779.738 848.828L779.385 848.991L780.012 850.354ZM538.964 878.331C539.291 878.397 539.618 878.463 539.946 878.529L540.241 877.058C539.915 876.993 539.589 876.927 539.263 876.861L538.964 878.331ZM774.527 852.829C774.832 852.694 775.137 852.559 775.442 852.423L774.832 851.053C774.528 851.188 774.224 851.323 773.92 851.457L774.527 852.829ZM544.863 879.482C545.191 879.544 545.52 879.605 545.848 879.665L546.121 878.19C545.793 878.13 545.466 878.069 545.139 878.008L544.863 879.482ZM769.01 855.217C769.318 855.087 769.626 854.956 769.933 854.825L769.344 853.445C769.038 853.576 768.732 853.706 768.425 853.836L769.01 855.217ZM550.787 880.544C551.117 880.601 551.446 880.657 551.777 880.712L552.026 879.233C551.859 879.205 551.692 879.177 551.525 879.149L551.04 879.066L550.787 880.544ZM763.449 857.523C763.76 857.397 764.07 857.271 764.379 857.144L763.812 855.756C763.503 855.882 763.195 856.007 762.886 856.133L763.449 857.523ZM556.736 881.516C557.066 881.567 557.396 881.618 557.726 881.668L557.953 880.186C557.624 880.135 557.295 880.085 556.966 880.034L556.736 881.516ZM757.848 859.744C758.159 859.623 758.471 859.502 758.782 859.381L758.236 857.983L757.782 858.161C757.623 858.222 757.464 858.284 757.306 858.346L757.848 859.744ZM562.678 882.392C563.009 882.438 563.34 882.484 563.671 882.529L563.874 881.043C563.677 881.016 563.48 880.989 563.283 880.962C563.151 880.943 563.018 880.925 562.886 880.906L562.678 882.392ZM752.231 861.872C752.544 861.756 752.857 861.639 753.17 861.523L752.646 860.117C752.334 860.234 752.023 860.349 751.71 860.465L752.231 861.872ZM569.118 883.236C569.291 883.257 569.464 883.278 569.638 883.299L569.818 881.81C569.487 881.77 569.157 881.73 568.826 881.689L568.642 883.177C568.8 883.197 568.959 883.217 569.118 883.236ZM746.572 863.915C746.888 863.804 747.203 863.693 747.518 863.581L747.016 862.167C746.702 862.279 746.388 862.39 746.073 862.501L746.572 863.915ZM574.628 883.871C574.961 883.907 575.294 883.943 575.627 883.978L575.785 882.486C575.453 882.451 575.121 882.416 574.789 882.38L574.628 883.871ZM740.872 865.875C741.19 865.768 741.507 865.661 741.825 865.554L741.344 864.133C741.028 864.24 740.712 864.347 740.395 864.453L740.872 865.875ZM580.612 884.471C580.944 884.502 581.276 884.532 581.609 884.562L581.743 883.068C581.412 883.039 581.081 883.008 580.75 882.978L580.612 884.471ZM735.159 867.74C735.477 867.639 735.794 867.538 736.112 867.436L735.654 866.007C735.337 866.109 735.021 866.21 734.704 866.311L735.159 867.74ZM586.601 884.978C586.934 885.004 587.267 885.029 587.601 885.054L587.712 883.558C587.379 883.533 587.047 883.508 586.715 883.483L586.601 884.978ZM729.819 869.396C730.005 869.34 730.19 869.283 730.375 869.227L729.939 867.792C729.621 867.889 729.302 867.985 728.983 868.081L729.415 869.517L729.819 869.396ZM592.609 885.393C592.943 885.414 593.278 885.434 593.612 885.453L593.7 883.956C593.367 883.936 593.034 883.916 592.701 883.896L592.609 885.393ZM723.633 871.209C723.955 871.117 724.277 871.025 724.599 870.933L724.186 869.491C723.865 869.583 723.544 869.675 723.223 869.766L723.633 871.209ZM717.829 872.81C718.151 872.724 718.473 872.637 718.794 872.55L718.403 871.102C718.083 871.189 717.762 871.275 717.441 871.361L717.829 872.81ZM598.627 885.715C598.959 885.73 599.292 885.745 599.625 885.76L599.69 884.261C599.358 884.247 599.027 884.232 598.695 884.217L598.627 885.715ZM712.545 874.184C712.692 874.146 712.84 874.109 712.987 874.072L712.618 872.618C712.296 872.699 711.973 872.781 711.65 872.862L712.016 874.317C712.192 874.272 712.369 874.228 712.545 874.184ZM604.625 885.943C604.959 885.953 605.293 885.963 605.627 885.972L605.668 884.473C605.336 884.464 605.003 884.454 604.671 884.444L604.625 885.943ZM706.166 875.737C706.492 875.661 706.817 875.584 707.143 875.507L706.797 874.047C706.472 874.124 706.148 874.201 705.823 874.277L706.166 875.737ZM611.257 886.087L611.646 886.092L611.664 884.592C611.331 884.588 610.997 884.584 610.664 884.579L610.641 886.079C610.846 886.082 611.051 886.085 611.257 886.087ZM700.279 877.07C700.607 876.999 700.935 876.927 701.263 876.854L700.939 875.39C700.613 875.462 700.286 875.534 699.959 875.605L700.279 877.07ZM616.674 886.121C617.01 886.121 617.345 886.121 617.681 886.119L617.676 884.619C617.342 884.621 617.007 884.621 616.673 884.621L616.674 886.121ZM694.41 878.305C694.736 878.239 695.063 878.172 695.39 878.105L695.089 876.636L694.589 876.738C694.43 876.77 694.271 876.803 694.112 876.835L694.41 878.305ZM622.679 886.071C623.012 886.066 623.345 886.06 623.679 886.054L623.651 884.554L623.438 884.558C623.177 884.563 622.916 884.567 622.654 884.572L622.679 886.071ZM688.507 879.452C688.835 879.391 689.164 879.329 689.493 879.267L689.214 877.793C688.887 877.855 688.559 877.917 688.232 877.978L688.507 879.452ZM628.687 885.929C629.022 885.918 629.356 885.907 629.69 885.896L629.639 884.397C629.306 884.408 628.973 884.419 628.64 884.429L628.687 885.929ZM682.57 880.512C682.901 880.455 683.231 880.398 683.562 880.341L683.306 878.863C682.976 878.92 682.647 878.977 682.318 879.033L682.57 880.512ZM634.711 885.693C635.046 885.677 635.381 885.661 635.716 885.645L635.642 884.147C635.308 884.163 634.974 884.179 634.64 884.195L634.711 885.693ZM676.634 881.477C676.963 881.426 677.292 881.375 677.621 881.323L677.387 879.841C677.06 879.893 676.732 879.944 676.404 879.995L676.634 881.477ZM640.723 885.365C641.056 885.345 641.388 885.324 641.72 885.302L641.623 883.805C641.292 883.827 640.961 883.848 640.63 883.868L640.723 885.365ZM671.504 882.237L671.685 882.211L671.475 880.726C671.145 880.773 670.816 880.819 670.486 880.865L670.693 882.35C670.963 882.313 671.234 882.275 671.504 882.237ZM646.71 884.947C647.043 884.921 647.376 884.895 647.709 884.869L647.589 883.373C647.257 883.4 646.926 883.426 646.594 883.452L646.71 884.947ZM664.721 883.136C665.054 883.094 665.386 883.053 665.719 883.011L665.531 881.523C665.2 881.564 664.868 881.606 664.537 881.647L664.721 883.136ZM652.708 884.436C653.042 884.405 653.376 884.374 653.709 884.342L653.567 882.849C653.234 882.88 652.902 882.912 652.57 882.943L652.708 884.436ZM659.219 883.777C659.386 883.759 659.554 883.74 659.721 883.722L659.555 882.231C659.389 882.25 659.222 882.268 659.056 882.286L658.557 882.341L658.718 883.832C658.885 883.814 659.052 883.796 659.219 883.777Z" fill="#F0F973"/>
</svg>
