<svg width="817" height="345" viewBox="0 0 817 345" fill="none" xmlns="http://www.w3.org/2000/svg">
<path fill-rule="evenodd" clip-rule="evenodd" d="M1249.27 -593.455L1249.2 -594.46L1247.7 -594.494L1247.77 -593.49L1249.27 -593.455ZM1249.69 -587.441C1249.66 -587.775 1249.64 -588.109 1249.62 -588.443L1248.12 -588.484C1248.14 -588.151 1248.16 -587.818 1248.19 -587.484L1249.69 -587.441ZM1248.82 -599.473C1248.79 -599.807 1248.76 -600.141 1248.74 -600.474L1247.24 -600.5C1247.27 -600.167 1247.29 -599.833 1247.32 -599.5L1248.82 -599.473ZM1250.07 -581.44C1250.05 -581.773 1250.03 -582.106 1250.01 -582.439L1248.51 -582.489C1248.53 -582.156 1248.55 -581.824 1248.57 -581.491L1250.07 -581.44ZM1248.33 -605.478C1248.31 -605.812 1248.28 -606.145 1248.25 -606.478L1246.75 -606.496C1246.78 -606.163 1246.81 -605.83 1246.84 -605.497L1248.33 -605.478ZM1250.42 -575.451C1250.41 -575.783 1250.39 -576.116 1250.37 -576.448L1248.87 -576.506C1248.89 -576.174 1248.9 -575.842 1248.92 -575.51L1250.42 -575.451ZM1247.82 -611.473C1247.79 -611.805 1247.76 -612.138 1247.73 -612.471L1246.23 -612.48C1246.26 -612.148 1246.29 -611.816 1246.32 -611.484L1247.82 -611.473ZM1250.74 -569.475C1250.73 -569.806 1250.71 -570.138 1250.69 -570.47L1249.19 -570.536C1249.21 -570.205 1249.23 -569.873 1249.24 -569.542L1250.74 -569.475ZM1247.27 -617.456C1247.24 -617.788 1247.21 -618.12 1247.18 -618.452L1245.68 -618.454C1245.71 -618.122 1245.74 -617.791 1245.78 -617.459L1247.27 -617.456ZM1251.03 -563.511C1251.01 -563.842 1251 -564.173 1250.98 -564.504L1249.48 -564.578C1249.5 -564.248 1249.51 -563.917 1249.53 -563.587L1251.03 -563.511ZM1246.7 -623.429C1246.66 -623.76 1246.63 -624.091 1246.6 -624.423L1245.1 -624.416C1245.13 -624.085 1245.17 -623.754 1245.2 -623.423L1246.7 -623.429ZM1251.28 -557.561C1251.27 -557.891 1251.26 -558.221 1251.24 -558.551L1249.74 -558.634C1249.75 -558.304 1249.77 -557.974 1249.78 -557.644L1251.28 -557.561ZM1246.09 -629.389C1246.05 -629.72 1246.02 -630.051 1245.98 -630.382L1244.49 -630.367C1244.52 -630.036 1244.56 -629.706 1244.59 -629.376L1246.09 -629.389ZM1251.5 -551.568C1251.49 -551.902 1251.48 -552.235 1251.47 -552.569L1249.97 -552.659C1249.98 -552.326 1249.99 -551.993 1250 -551.66L1251.5 -551.568ZM1245.44 -635.382C1245.4 -635.716 1245.37 -636.05 1245.33 -636.384L1243.84 -636.361C1243.87 -636.027 1243.91 -635.694 1243.95 -635.36L1245.44 -635.382ZM1251.69 -545.572C1251.68 -545.905 1251.67 -546.238 1251.66 -546.571L1250.16 -546.669C1250.17 -546.337 1250.18 -546.005 1250.19 -545.672L1251.69 -545.572ZM1244.76 -641.391C1244.72 -641.724 1244.69 -642.058 1244.65 -642.391L1243.15 -642.36C1243.19 -642.027 1243.23 -641.694 1243.27 -641.361L1244.76 -641.391ZM1251.85 -539.59C1251.84 -539.922 1251.83 -540.254 1251.83 -540.586L1250.32 -540.693C1250.33 -540.362 1250.34 -540.03 1250.35 -539.699L1251.85 -539.59ZM1244.05 -647.388C1244.01 -647.72 1243.97 -648.053 1243.93 -648.386L1242.44 -648.346C1242.48 -648.014 1242.52 -647.682 1242.56 -647.35L1244.05 -647.388ZM1251.97 -533.622C1251.97 -533.954 1251.96 -534.285 1251.95 -534.616L1250.45 -534.731C1250.46 -534.4 1250.46 -534.069 1250.47 -533.739L1251.97 -533.622ZM1243.31 -653.372C1243.27 -653.704 1243.23 -654.036 1243.18 -654.368L1241.69 -654.321C1241.73 -653.989 1241.78 -653.657 1241.82 -653.326L1243.31 -653.372ZM1252.06 -527.669C1252.06 -527.999 1252.05 -528.329 1252.05 -528.66L1250.55 -528.783C1250.55 -528.453 1250.55 -528.123 1250.56 -527.793L1252.06 -527.669ZM1242.54 -659.344C1242.49 -659.675 1242.45 -660.006 1242.4 -660.338L1240.91 -660.282C1240.96 -659.951 1241 -659.62 1241.05 -659.289L1242.54 -659.344ZM1252.12 -521.729C1252.12 -522.059 1252.11 -522.388 1252.11 -522.718L1250.61 -522.849C1250.61 -522.52 1250.61 -522.191 1250.61 -521.862L1252.12 -521.729ZM1241.73 -665.303C1241.69 -665.633 1241.64 -665.964 1241.6 -666.294L1240.11 -666.23C1240.15 -665.9 1240.2 -665.57 1240.24 -665.24L1241.73 -665.303ZM1252.14 -515.766C1252.14 -516.099 1252.14 -516.432 1252.14 -516.765L1250.64 -516.904C1250.64 -516.572 1250.64 -516.239 1250.64 -515.907L1252.14 -515.766ZM1240.89 -671.275C1240.85 -671.609 1240.8 -671.943 1240.75 -672.277L1239.26 -672.204C1239.31 -671.871 1239.36 -671.537 1239.41 -671.204L1240.89 -671.275ZM1252.13 -509.783C1252.13 -510.115 1252.13 -510.447 1252.14 -510.779L1250.63 -510.927C1250.63 -510.595 1250.63 -510.264 1250.63 -509.932L1252.13 -509.783ZM1240.02 -677.281C1239.97 -677.614 1239.92 -677.947 1239.87 -678.28L1238.38 -678.2C1238.43 -677.867 1238.48 -677.534 1238.53 -677.201L1240.02 -677.281ZM1252.09 -503.815C1252.09 -504.146 1252.09 -504.477 1252.1 -504.809L1250.59 -504.965C1250.59 -504.634 1250.59 -504.303 1250.58 -503.973L1252.09 -503.815ZM1239.11 -683.273C1239.06 -683.605 1239 -683.937 1238.95 -684.27L1237.47 -684.181C1237.52 -683.849 1237.57 -683.517 1237.62 -683.185L1239.11 -683.273ZM1252.01 -497.863C1252.02 -498.193 1252.02 -498.523 1252.03 -498.854L1250.52 -499.018C1250.52 -498.688 1250.51 -498.358 1250.51 -498.029L1252.01 -497.863ZM1238.17 -689.251C1238.11 -689.582 1238.06 -689.914 1238.01 -690.245L1236.52 -690.148C1236.58 -689.817 1236.63 -689.486 1236.68 -689.155L1238.17 -689.251ZM1251.9 -491.926C1251.91 -492.256 1251.92 -492.585 1251.92 -492.915L1250.42 -493.087C1250.41 -492.758 1250.41 -492.429 1250.4 -492.1L1251.9 -491.926ZM1237.2 -695.214C1237.14 -695.545 1237.09 -695.876 1237.03 -696.207L1235.55 -696.101C1235.6 -695.771 1235.66 -695.441 1235.71 -695.11L1237.2 -695.214ZM1251.76 -486.006C1251.77 -486.334 1251.78 -486.663 1251.78 -486.991L1250.28 -487.172C1250.27 -486.844 1250.26 -486.516 1250.26 -486.188L1251.76 -486.006ZM1236.2 -701.164C1236.14 -701.494 1236.08 -701.824 1236.03 -702.154L1234.54 -702.04C1234.6 -701.711 1234.66 -701.381 1234.71 -701.051L1236.2 -701.164ZM1251.61 -481.07L1250.11 -481.259C1250.1 -480.928 1250.09 -480.596 1250.08 -480.265L1251.58 -480.074L1251.61 -481.07ZM1235.16 -707.113C1235.1 -707.447 1235.04 -707.78 1234.98 -708.113L1233.5 -707.991C1233.56 -707.658 1233.62 -707.325 1233.68 -706.992L1235.16 -707.113ZM1251.37 -474.111C1251.38 -474.442 1251.39 -474.773 1251.41 -475.104L1249.9 -475.302C1249.89 -474.971 1249.88 -474.641 1249.87 -474.311L1251.37 -474.111ZM1234.08 -713.108C1234.02 -713.441 1233.96 -713.773 1233.9 -714.106L1232.42 -713.975C1232.48 -713.643 1232.54 -713.311 1232.6 -712.979L1234.08 -713.108ZM1251.12 -468.166C1251.14 -468.495 1251.15 -468.825 1251.17 -469.155L1249.66 -469.361C1249.65 -469.032 1249.64 -468.702 1249.62 -468.373L1251.12 -468.166ZM1232.97 -719.088C1232.91 -719.42 1232.85 -719.751 1232.79 -720.083L1231.31 -719.944C1231.37 -719.613 1231.43 -719.282 1231.5 -718.95L1232.97 -719.088ZM1250.84 -462.237C1250.86 -462.566 1250.88 -462.895 1250.89 -463.224L1249.39 -463.438C1249.38 -463.11 1249.36 -462.781 1249.34 -462.453L1250.84 -462.237ZM1231.83 -725.052C1231.77 -725.383 1231.71 -725.714 1231.64 -726.044L1230.17 -725.897C1230.23 -725.567 1230.3 -725.236 1230.36 -724.906L1231.83 -725.052ZM1250.53 -456.325C1250.55 -456.653 1250.57 -456.981 1250.59 -457.309L1249.08 -457.532C1249.07 -457.205 1249.05 -456.877 1249.03 -456.55L1250.53 -456.325ZM1230.66 -731C1230.6 -731.33 1230.53 -731.66 1230.47 -731.99L1228.99 -731.834C1229.06 -731.505 1229.12 -731.175 1229.19 -730.846L1230.66 -731ZM1250.25 -451.412L1248.74 -451.644L1248.68 -450.664L1250.19 -450.431L1250.25 -451.412ZM1229.46 -736.933C1229.4 -737.262 1229.33 -737.591 1229.26 -737.92L1227.79 -737.755C1227.86 -737.427 1227.92 -737.098 1227.99 -736.77L1229.46 -736.933ZM1249.81 -444.534C1249.83 -444.865 1249.85 -445.195 1249.87 -445.525L1248.37 -445.765C1248.35 -445.435 1248.33 -445.105 1248.3 -444.775L1249.81 -444.534ZM1228.23 -742.857C1228.16 -743.189 1228.09 -743.522 1228.02 -743.854L1226.55 -743.681C1226.62 -743.349 1226.69 -743.017 1226.76 -742.685L1228.23 -742.857ZM1249.46 -439.588L1247.96 -439.836C1247.94 -439.507 1247.91 -439.178 1247.89 -438.85L1249.39 -438.6L1249.46 -439.588ZM1226.95 -748.833C1226.88 -749.165 1226.81 -749.496 1226.73 -749.827L1225.26 -749.646C1225.34 -749.315 1225.41 -748.984 1225.48 -748.653L1226.95 -748.833ZM1248.94 -432.684C1248.96 -433.012 1248.99 -433.34 1249.01 -433.669L1247.51 -433.925C1247.49 -433.598 1247.46 -433.27 1247.44 -432.942L1248.94 -432.684ZM1225.42 -755.784L1223.95 -755.594C1224.02 -755.264 1224.1 -754.934 1224.17 -754.604L1225.64 -754.792L1225.42 -755.784ZM1248.45 -426.787C1248.48 -427.114 1248.51 -427.441 1248.53 -427.769L1247.04 -428.034C1247.01 -427.707 1246.98 -427.38 1246.95 -427.054L1248.45 -426.787ZM1224.3 -760.734C1224.22 -761.064 1224.15 -761.394 1224.07 -761.723L1222.61 -761.525C1222.68 -761.196 1222.76 -760.866 1222.83 -760.537L1224.3 -760.734ZM1247.93 -420.909C1247.96 -421.235 1247.99 -421.561 1248.02 -421.887L1246.52 -422.161C1246.49 -421.835 1246.46 -421.51 1246.43 -421.184L1247.93 -420.909ZM1222.69 -767.645L1221.23 -767.438C1221.31 -767.11 1221.39 -766.781 1221.46 -766.453L1222.92 -766.659L1222.69 -767.645ZM1247.47 -416.025L1245.98 -416.307C1245.95 -415.983 1245.91 -415.658 1245.88 -415.333L1247.38 -415.05L1247.47 -416.025ZM1221.52 -772.566C1221.44 -772.893 1221.36 -773.221 1221.29 -773.549L1219.82 -773.333C1219.9 -773.006 1219.98 -772.679 1220.06 -772.352L1221.52 -772.566ZM1246.79 -409.19C1246.83 -409.518 1246.86 -409.847 1246.89 -410.175L1245.4 -410.466C1245.36 -410.138 1245.33 -409.81 1245.3 -409.482L1246.79 -409.19ZM1220.09 -778.462C1220 -778.793 1219.92 -779.124 1219.84 -779.455L1218.38 -779.231C1218.46 -778.9 1218.55 -778.57 1218.63 -778.239L1220.09 -778.462ZM1246.27 -404.274L1244.78 -404.573L1244.67 -403.593L1246.17 -403.293L1246.27 -404.274ZM1218.6 -784.411C1218.52 -784.741 1218.44 -785.071 1218.35 -785.401L1216.9 -785.168L1217.15 -784.18L1218.6 -784.411ZM1245.5 -397.415C1245.54 -397.741 1245.58 -398.067 1245.62 -398.394L1244.12 -398.701C1244.09 -398.376 1244.05 -398.05 1244.01 -397.725L1245.5 -397.415ZM1217.09 -790.342C1217 -790.671 1216.92 -791 1216.83 -791.328L1215.38 -791.087C1215.46 -790.758 1215.55 -790.43 1215.63 -790.102L1217.09 -790.342ZM1244.81 -391.559C1244.85 -391.884 1244.89 -392.208 1244.93 -392.533L1243.44 -392.85C1243.4 -392.525 1243.36 -392.201 1243.32 -391.877L1244.81 -391.559ZM1215.54 -796.253C1215.46 -796.581 1215.37 -796.909 1215.28 -797.237L1213.83 -796.986C1213.92 -796.659 1214 -796.332 1214.09 -796.004L1215.54 -796.253ZM1244.08 -385.723C1244.12 -386.047 1244.16 -386.37 1244.21 -386.694L1242.71 -387.019C1242.67 -386.696 1242.63 -386.373 1242.59 -386.05L1244.08 -385.723ZM1213.97 -802.145C1213.88 -802.472 1213.79 -802.799 1213.7 -803.125L1212.25 -802.866C1212.34 -802.54 1212.43 -802.214 1212.52 -801.888L1213.97 -802.145ZM1243.32 -379.908C1243.36 -380.231 1243.41 -380.553 1243.45 -380.876L1241.96 -381.21C1241.92 -380.887 1241.87 -380.565 1241.83 -380.243L1243.32 -379.908ZM1212.36 -808.018C1212.27 -808.344 1212.18 -808.669 1212.09 -808.995L1210.64 -808.727C1210.73 -808.402 1210.82 -808.077 1210.91 -807.751L1212.36 -808.018ZM1242.52 -374.088C1242.57 -374.414 1242.61 -374.74 1242.66 -375.066L1241.17 -375.408C1241.12 -375.083 1241.08 -374.758 1241.03 -374.432L1242.52 -374.088ZM1210.72 -813.884C1210.62 -814.213 1210.53 -814.542 1210.44 -814.871L1208.99 -814.594C1209.09 -814.266 1209.18 -813.937 1209.27 -813.609L1210.72 -813.884ZM1241.68 -368.237C1241.73 -368.561 1241.78 -368.886 1241.82 -369.211L1240.34 -369.562C1240.29 -369.238 1240.24 -368.914 1240.19 -368.59L1241.68 -368.237ZM1209.03 -819.797C1208.93 -820.125 1208.84 -820.453 1208.74 -820.78L1207.3 -820.495C1207.39 -820.168 1207.49 -819.84 1207.58 -819.513L1209.03 -819.797ZM1240.81 -362.408C1240.86 -362.731 1240.91 -363.054 1240.96 -363.378L1239.47 -363.738L1239.41 -363.375C1239.38 -363.173 1239.35 -362.971 1239.32 -362.769L1240.81 -362.408ZM1207.01 -826.669L1205.58 -826.375C1205.67 -826.049 1205.77 -825.723 1205.86 -825.396L1207.3 -825.689L1207.01 -826.669ZM1239.9 -356.601C1239.95 -356.923 1240 -357.245 1240.05 -357.567L1238.57 -357.936C1238.52 -357.614 1238.47 -357.293 1238.41 -356.971L1239.9 -356.601ZM1205.55 -831.561C1205.45 -831.886 1205.36 -832.212 1205.26 -832.537L1203.82 -832.234C1203.92 -831.909 1204.02 -831.584 1204.11 -831.259L1205.55 -831.561ZM1238.96 -350.817C1239.01 -351.138 1239.06 -351.459 1239.12 -351.78L1237.63 -352.157C1237.58 -351.837 1237.53 -351.516 1237.47 -351.196L1238.96 -350.817ZM1203.77 -837.411C1203.67 -837.735 1203.57 -838.059 1203.47 -838.384L1202.03 -838.072C1202.13 -837.748 1202.23 -837.424 1202.33 -837.1L1203.77 -837.411ZM1237.98 -345.056C1238.04 -345.376 1238.09 -345.695 1238.15 -346.015L1236.67 -346.401C1236.61 -346.082 1236.56 -345.763 1236.5 -345.444L1237.98 -345.056ZM1201.96 -843.239C1201.85 -843.563 1201.75 -843.886 1201.65 -844.209L1200.22 -843.888C1200.32 -843.565 1200.42 -843.243 1200.52 -842.92L1201.96 -843.239ZM1236.97 -339.279C1237.03 -339.602 1237.08 -339.925 1237.14 -340.248L1235.66 -340.643C1235.6 -340.32 1235.54 -339.998 1235.49 -339.676L1236.97 -339.279ZM1200.1 -849.072C1200 -849.399 1199.89 -849.725 1199.79 -850.052L1198.36 -849.722L1198.68 -848.744L1200.1 -849.072ZM1235.91 -333.484C1235.97 -333.805 1236.03 -334.127 1236.09 -334.448L1234.61 -334.852C1234.55 -334.531 1234.49 -334.21 1234.43 -333.89L1235.91 -333.484ZM1198.2 -854.939C1198.1 -855.265 1197.99 -855.59 1197.88 -855.915L1196.46 -855.576C1196.56 -855.252 1196.67 -854.927 1196.78 -854.602L1198.2 -854.939ZM1235 -328.673L1233.53 -329.086C1233.46 -328.766 1233.4 -328.447 1233.34 -328.127L1234.82 -327.713L1235 -328.673ZM1196.27 -860.784C1196.16 -861.108 1196.06 -861.432 1195.95 -861.756L1194.52 -861.408C1194.63 -861.084 1194.74 -860.761 1194.85 -860.437L1196.27 -860.784ZM1233.69 -321.967C1233.76 -322.285 1233.82 -322.604 1233.88 -322.923L1232.41 -323.344L1232.22 -322.39L1233.69 -321.967ZM1194.31 -866.605C1194.2 -866.928 1194.09 -867.251 1193.98 -867.573L1192.56 -867.216C1192.67 -866.894 1192.78 -866.572 1192.89 -866.25L1194.31 -866.605ZM1232.54 -316.245C1232.6 -316.562 1232.67 -316.879 1232.73 -317.197L1231.26 -317.628C1231.19 -317.311 1231.13 -316.994 1231.06 -316.677L1232.54 -316.245ZM1192.32 -872.403C1192.21 -872.725 1192.09 -873.046 1191.98 -873.367L1190.57 -873.001C1190.68 -872.681 1190.79 -872.36 1190.9 -872.039L1192.32 -872.403ZM1231.34 -310.548C1231.41 -310.864 1231.48 -311.18 1231.54 -311.496L1230.07 -311.936C1230 -311.62 1229.94 -311.305 1229.87 -310.989L1231.34 -310.548ZM1190.3 -878.178C1190.18 -878.498 1190.07 -878.818 1189.96 -879.138L1188.54 -878.763C1188.66 -878.443 1188.77 -878.124 1188.88 -877.804L1190.3 -878.178ZM1230.1 -304.818C1230.17 -305.137 1230.24 -305.456 1230.31 -305.775L1228.84 -306.224C1228.77 -305.905 1228.7 -305.587 1228.63 -305.268L1230.1 -304.818ZM1188.23 -883.974C1188.11 -884.298 1187.99 -884.621 1187.88 -884.944L1186.47 -884.56C1186.58 -884.237 1186.7 -883.915 1186.82 -883.592L1188.23 -883.974ZM1228.83 -299.09C1228.9 -299.407 1228.97 -299.725 1229.04 -300.043L1227.57 -300.5C1227.5 -300.183 1227.43 -299.866 1227.36 -299.549L1228.83 -299.09ZM1186.11 -889.785C1186 -890.107 1185.88 -890.429 1185.76 -890.751L1184.35 -890.357C1184.47 -890.036 1184.59 -889.715 1184.71 -889.393L1186.11 -889.785ZM1227.51 -293.388C1227.59 -293.704 1227.66 -294.02 1227.73 -294.336L1226.27 -294.803L1226.05 -293.856L1227.51 -293.388ZM1183.97 -895.57C1183.85 -895.891 1183.73 -896.211 1183.61 -896.532L1182.21 -896.129C1182.33 -895.809 1182.45 -895.489 1182.57 -895.169L1183.97 -895.57ZM1226.17 -287.713C1226.24 -288.027 1226.32 -288.342 1226.39 -288.657L1224.93 -289.133C1224.85 -288.819 1224.78 -288.504 1224.7 -288.19L1226.17 -287.713ZM1181.43 -902.288L1180.03 -901.876C1180.15 -901.558 1180.28 -901.239 1180.4 -900.92L1181.8 -901.33L1181.43 -902.288ZM1224.79 -282.065C1224.86 -282.378 1224.94 -282.691 1225.02 -283.004L1223.56 -283.489L1223.45 -283.068C1223.41 -282.895 1223.37 -282.723 1223.32 -282.551L1224.79 -282.065ZM1179.59 -907.065C1179.47 -907.383 1179.35 -907.701 1179.22 -908.018L1177.83 -907.597C1177.95 -907.28 1178.07 -906.963 1178.2 -906.646L1179.59 -907.065ZM1223.37 -276.442C1223.45 -276.754 1223.53 -277.067 1223.61 -277.379L1222.15 -277.873C1222.07 -277.561 1221.99 -277.249 1221.91 -276.938L1223.37 -276.442ZM1177.36 -912.774C1177.23 -913.091 1177.11 -913.408 1176.98 -913.725L1175.59 -913.295C1175.72 -912.979 1175.84 -912.662 1175.97 -912.345L1177.36 -912.774ZM1221.9 -270.764C1221.98 -271.079 1222.06 -271.394 1222.15 -271.708L1220.69 -272.212C1220.61 -271.897 1220.52 -271.583 1220.44 -271.269L1221.9 -270.764ZM1175.07 -918.531C1174.94 -918.85 1174.81 -919.17 1174.68 -919.489L1173.29 -919.05C1173.42 -918.731 1173.55 -918.412 1173.68 -918.093L1175.07 -918.531ZM1220.39 -265.115C1220.48 -265.428 1220.56 -265.741 1220.65 -266.055L1219.19 -266.567C1219.11 -266.254 1219.02 -265.942 1218.94 -265.629L1220.39 -265.115ZM1172.74 -924.273C1172.61 -924.591 1172.48 -924.909 1172.35 -925.227L1170.96 -924.778C1171.09 -924.46 1171.22 -924.143 1171.35 -923.825L1172.74 -924.273ZM1218.86 -259.495C1218.94 -259.806 1219.03 -260.118 1219.11 -260.429L1217.66 -260.951C1217.58 -260.64 1217.49 -260.329 1217.4 -260.018L1218.86 -259.495ZM1169.98 -930.937L1168.6 -930.478C1168.73 -930.163 1168.87 -929.846 1169 -929.53L1170.38 -929.987L1169.98 -930.937ZM1217.28 -253.903C1217.37 -254.213 1217.46 -254.523 1217.55 -254.833L1216.1 -255.364C1216.01 -255.055 1215.92 -254.745 1215.83 -254.436L1217.28 -253.903ZM1167.99 -935.674C1167.86 -935.989 1167.72 -936.304 1167.59 -936.619L1166.21 -936.151C1166.35 -935.837 1166.48 -935.522 1166.61 -935.208L1167.99 -935.674ZM1215.68 -248.342C1215.77 -248.65 1215.86 -248.958 1215.95 -249.266L1214.5 -249.807L1214.38 -249.398C1214.33 -249.226 1214.28 -249.055 1214.23 -248.884L1215.68 -248.342ZM1165.57 -941.333C1165.44 -941.647 1165.3 -941.96 1165.16 -942.273L1163.79 -941.796C1163.93 -941.484 1164.06 -941.171 1164.2 -940.857L1165.57 -941.333ZM1214.2 -243.376L1214.3 -243.707L1212.86 -244.257C1212.77 -243.946 1212.67 -243.635 1212.58 -243.324L1214.02 -242.773C1214.08 -242.974 1214.14 -243.175 1214.2 -243.376ZM1163.11 -946.987C1162.97 -947.304 1162.83 -947.621 1162.7 -947.937L1161.33 -947.45C1161.47 -947.134 1161.6 -946.818 1161.74 -946.502L1163.11 -946.987ZM1212.32 -237.185C1212.42 -237.494 1212.51 -237.804 1212.61 -238.114L1211.17 -238.673C1211.07 -238.364 1210.98 -238.055 1210.88 -237.746L1212.32 -237.185ZM1160.6 -952.677C1160.45 -952.992 1160.31 -953.307 1160.17 -953.622L1158.81 -953.126C1158.95 -952.811 1159.09 -952.497 1159.23 -952.182L1160.6 -952.677ZM1210.59 -231.628C1210.68 -231.936 1210.78 -232.244 1210.88 -232.552L1209.44 -233.121C1209.34 -232.813 1209.24 -232.506 1209.15 -232.198L1210.59 -231.628ZM1158.05 -958.337C1157.91 -958.65 1157.76 -958.964 1157.62 -959.277L1156.26 -958.771C1156.4 -958.458 1156.55 -958.145 1156.69 -957.832L1158.05 -958.337ZM1208.82 -226.103C1208.91 -226.409 1209.01 -226.715 1209.11 -227.021L1207.68 -227.599C1207.62 -227.418 1207.56 -227.237 1207.5 -227.056L1207.38 -226.682L1208.82 -226.103ZM1155.47 -963.967C1155.33 -964.279 1155.18 -964.591 1155.04 -964.903L1153.68 -964.387C1153.83 -964.076 1153.97 -963.765 1154.12 -963.453L1155.47 -963.967ZM1207.01 -220.609C1207.11 -220.913 1207.21 -221.218 1207.31 -221.522L1205.88 -222.11C1205.78 -221.806 1205.68 -221.502 1205.58 -221.198L1207.01 -220.609ZM1152.86 -969.567C1152.72 -969.878 1152.57 -970.188 1152.43 -970.498L1151.08 -969.973C1151.22 -969.663 1151.37 -969.353 1151.51 -969.044L1152.86 -969.567ZM1205.17 -215.147C1205.28 -215.45 1205.38 -215.752 1205.48 -216.055L1204.05 -216.652C1203.95 -216.35 1203.85 -216.048 1203.74 -215.746L1205.17 -215.147ZM1150.23 -975.137C1150.08 -975.446 1149.93 -975.754 1149.79 -976.062L1148.44 -975.528C1148.59 -975.22 1148.73 -974.912 1148.88 -974.604L1150.23 -975.137ZM1203.41 -210.038C1203.47 -210.21 1203.53 -210.383 1203.59 -210.555L1202.17 -211.162C1202.06 -210.856 1201.95 -210.551 1201.85 -210.246L1203.27 -209.638L1203.41 -210.038ZM1147.53 -980.742C1147.38 -981.054 1147.23 -981.366 1147.08 -981.677L1145.73 -981.133C1145.89 -980.822 1146.04 -980.511 1146.19 -980.199L1147.53 -980.742ZM1201.46 -204.495C1201.52 -204.685 1201.59 -204.876 1201.66 -205.066L1200.24 -205.682C1200.16 -205.48 1200.09 -205.278 1200.02 -205.077L1199.91 -204.772L1201.33 -204.154L1201.46 -204.495ZM1144.79 -986.339C1144.64 -986.649 1144.49 -986.959 1144.33 -987.268L1143 -986.714C1143.15 -986.405 1143.3 -986.095 1143.45 -985.786L1144.79 -986.339ZM1199.53 -199.175C1199.59 -199.32 1199.64 -199.465 1199.69 -199.611L1198.27 -200.237C1198.16 -199.935 1198.05 -199.634 1197.94 -199.333L1199.36 -198.705C1199.42 -198.862 1199.48 -199.018 1199.53 -199.175ZM1141.56 -992.827L1140.23 -992.262C1140.38 -991.955 1140.54 -991.648 1140.69 -991.34L1142.02 -991.903L1141.56 -992.827ZM1197.35 -193.289C1197.47 -193.589 1197.58 -193.889 1197.69 -194.19L1196.28 -194.825C1196.16 -194.526 1196.05 -194.226 1195.94 -193.927L1197.35 -193.289ZM1138.75 -998.353L1137.43 -997.778C1137.58 -997.473 1137.74 -997.167 1137.9 -996.861L1139.22 -997.434L1138.75 -998.353ZM1195.31 -187.908C1195.43 -188.206 1195.54 -188.504 1195.66 -188.803L1194.24 -189.448C1194.18 -189.285 1194.12 -189.121 1194.06 -188.958C1194.01 -188.824 1193.95 -188.689 1193.9 -188.555L1195.31 -187.908ZM1136.4 -1002.93C1136.24 -1003.24 1136.08 -1003.54 1135.92 -1003.85L1134.6 -1003.26C1134.76 -1002.96 1134.92 -1002.65 1135.07 -1002.35L1136.4 -1002.93ZM1193.22 -182.519C1193.34 -182.82 1193.46 -183.121 1193.58 -183.422L1192.17 -184.077C1192.05 -183.777 1191.93 -183.476 1191.81 -183.176L1193.22 -182.519ZM1133.52 -1008.43C1133.36 -1008.73 1133.2 -1009.04 1133.04 -1009.35L1131.72 -1008.76C1131.88 -1008.45 1132.04 -1008.14 1132.21 -1007.83L1133.52 -1008.43ZM1191.08 -177.12C1191.2 -177.419 1191.32 -177.718 1191.44 -178.017L1190.03 -178.682C1189.91 -178.384 1189.79 -178.085 1189.67 -177.787L1191.08 -177.12ZM1130.59 -1013.95C1130.43 -1014.25 1130.26 -1014.56 1130.1 -1014.87L1128.79 -1014.26C1128.95 -1013.96 1129.11 -1013.65 1129.28 -1013.35L1130.59 -1013.95ZM1188.9 -171.757C1189.02 -172.054 1189.14 -172.351 1189.26 -172.649L1187.86 -173.324C1187.74 -173.027 1187.62 -172.73 1187.5 -172.434L1188.9 -171.757ZM1127.63 -1019.43C1127.46 -1019.74 1127.29 -1020.04 1127.13 -1020.35L1125.82 -1019.73C1125.99 -1019.43 1126.15 -1019.13 1126.32 -1018.82L1127.63 -1019.43ZM1186.68 -166.432C1186.81 -166.726 1186.93 -167.022 1187.05 -167.317L1185.66 -168.001C1185.53 -167.707 1185.41 -167.412 1185.29 -167.118L1186.68 -166.432ZM1124.63 -1024.89C1124.46 -1025.19 1124.3 -1025.49 1124.13 -1025.79L1122.83 -1025.17C1123 -1024.87 1123.16 -1024.56 1123.33 -1024.26L1124.63 -1024.89ZM1184.43 -161.143C1184.56 -161.436 1184.68 -161.729 1184.81 -162.022L1183.42 -162.716C1183.29 -162.424 1183.17 -162.131 1183.04 -161.839L1184.43 -161.143ZM1121.61 -1030.3C1121.44 -1030.6 1121.27 -1030.9 1121.1 -1031.2L1119.81 -1030.57C1119.98 -1030.27 1120.14 -1029.97 1120.31 -1029.67L1121.61 -1030.3ZM1182.14 -155.878C1182.27 -156.173 1182.4 -156.468 1182.53 -156.764L1181.14 -157.469C1181.02 -157.174 1180.89 -156.879 1180.76 -156.584L1182.14 -155.878ZM1118.56 -1035.68C1118.38 -1035.98 1118.21 -1036.29 1118.04 -1036.59L1116.75 -1035.94C1116.92 -1035.64 1117.09 -1035.34 1117.27 -1035.04L1118.56 -1035.68ZM1179.97 -150.994C1180.04 -151.148 1180.11 -151.302 1180.18 -151.457L1178.8 -152.172C1178.67 -151.878 1178.54 -151.585 1178.4 -151.292L1179.79 -150.576C1179.85 -150.715 1179.91 -150.854 1179.97 -150.994ZM1115.42 -1041.12C1115.25 -1041.42 1115.07 -1041.72 1114.9 -1042.02L1113.62 -1041.36C1113.79 -1041.06 1113.97 -1040.76 1114.14 -1040.46L1115.42 -1041.12ZM1177.39 -145.313C1177.53 -145.604 1177.66 -145.896 1177.8 -146.187L1176.42 -146.912C1176.28 -146.621 1176.15 -146.33 1176.02 -146.04L1177.39 -145.313ZM1112.26 -1046.51C1112.08 -1046.81 1111.91 -1047.11 1111.73 -1047.41L1110.45 -1046.74C1110.63 -1046.44 1110.81 -1046.15 1110.98 -1045.85L1112.26 -1046.51ZM1174.97 -140.09C1175.1 -140.379 1175.24 -140.668 1175.37 -140.957L1174 -141.692C1173.86 -141.403 1173.73 -141.115 1173.59 -140.826L1174.97 -140.09ZM1109.07 -1051.87C1108.89 -1052.17 1108.71 -1052.46 1108.53 -1052.76L1107.26 -1052.08C1107.44 -1051.79 1107.62 -1051.49 1107.8 -1051.2L1109.07 -1051.87ZM1172.5 -134.906C1172.64 -135.193 1172.78 -135.48 1172.92 -135.767L1171.55 -136.512C1171.41 -136.225 1171.27 -135.939 1171.14 -135.653L1172.5 -134.906ZM1105.85 -1057.19C1105.67 -1057.49 1105.49 -1057.78 1105.31 -1058.07L1104.04 -1057.39C1104.22 -1057.1 1104.4 -1056.8 1104.58 -1056.51L1105.85 -1057.19ZM1170.01 -129.762C1170.15 -130.047 1170.29 -130.332 1170.43 -130.617L1169.06 -131.372C1168.92 -131.088 1168.78 -130.803 1168.64 -130.519L1170.01 -129.762ZM1102.6 -1062.47C1102.42 -1062.77 1102.23 -1063.06 1102.05 -1063.35L1100.79 -1062.65C1100.98 -1062.36 1101.16 -1062.07 1101.34 -1061.78L1102.6 -1062.47ZM1167.44 -124.58C1167.58 -124.867 1167.72 -125.155 1167.87 -125.442L1166.51 -126.208C1166.37 -125.921 1166.22 -125.634 1166.08 -125.347L1167.44 -124.58ZM1099.28 -1067.78C1099.09 -1068.08 1098.9 -1068.37 1098.72 -1068.67L1097.47 -1067.96C1097.65 -1067.67 1097.84 -1067.37 1098.02 -1067.08L1099.28 -1067.78ZM1165.08 -119.932C1165.14 -120.05 1165.2 -120.168 1165.26 -120.286L1163.91 -121.062C1163.76 -120.777 1163.62 -120.493 1163.47 -120.208L1164.83 -119.43C1164.91 -119.597 1165 -119.764 1165.08 -119.932ZM1095.91 -1073.08C1095.72 -1073.37 1095.53 -1073.66 1095.35 -1073.96L1094.1 -1073.24C1094.29 -1072.95 1094.48 -1072.65 1094.66 -1072.36L1095.91 -1073.08ZM1162.18 -114.324C1162.33 -114.606 1162.47 -114.889 1162.62 -115.172L1161.27 -115.958C1161.19 -115.796 1161.1 -115.634 1161.02 -115.472C1160.96 -115.352 1160.89 -115.232 1160.83 -115.112L1162.18 -114.324ZM1092.51 -1078.33C1092.33 -1078.62 1092.14 -1078.91 1091.95 -1079.2L1090.71 -1078.47C1090.9 -1078.18 1091.09 -1077.89 1091.28 -1077.6L1092.51 -1078.33ZM1159.7 -109.64C1159.78 -109.793 1159.87 -109.947 1159.95 -110.101L1158.6 -110.897C1158.51 -110.721 1158.42 -110.545 1158.32 -110.369C1158.27 -110.265 1158.21 -110.162 1158.16 -110.058L1159.5 -109.26C1159.57 -109.386 1159.63 -109.513 1159.7 -109.64ZM1089.09 -1083.54C1088.9 -1083.83 1088.71 -1084.12 1088.52 -1084.41L1087.29 -1083.67C1087.48 -1083.38 1087.67 -1083.09 1087.86 -1082.8L1089.09 -1083.54ZM1156.78 -104.239C1156.93 -104.517 1157.09 -104.795 1157.24 -105.073L1155.9 -105.88C1155.75 -105.602 1155.6 -105.325 1155.44 -105.048L1156.78 -104.239ZM1085.64 -1088.71C1085.45 -1089 1085.25 -1089.28 1085.06 -1089.57L1083.84 -1088.82L1084.41 -1087.96L1085.64 -1088.71ZM1153.99 -99.1967C1154.15 -99.4769 1154.31 -99.7572 1154.46 -100.038L1153.13 -100.855C1152.98 -100.575 1152.82 -100.296 1152.66 -100.016L1153.99 -99.1967ZM1081.53 -1094.76L1080.31 -1093.99L1080.91 -1093.13L1082.12 -1093.89L1081.53 -1094.76ZM1151.16 -94.1768C1151.32 -94.4544 1151.48 -94.7323 1151.63 -95.0103L1150.31 -95.8385C1150.15 -95.5611 1149.99 -95.2839 1149.83 -95.0069L1151.16 -94.1768ZM1078.55 -1099.06C1078.35 -1099.35 1078.15 -1099.64 1077.95 -1099.92L1076.74 -1099.15C1076.94 -1098.87 1077.14 -1098.58 1077.34 -1098.29L1078.55 -1099.06ZM1148.29 -89.2027C1148.45 -89.4777 1148.61 -89.753 1148.77 -90.0285L1147.45 -90.8674C1147.29 -90.5925 1147.13 -90.3178 1146.97 -90.0433L1148.29 -89.2027ZM1074.35 -1105.04L1073.15 -1104.26C1073.35 -1103.98 1073.55 -1103.7 1073.75 -1103.41L1074.95 -1104.19L1074.35 -1105.04ZM1145.38 -84.2747C1145.55 -84.5472 1145.71 -84.8199 1145.87 -85.0928L1144.56 -85.9423C1144.47 -85.7915 1144.38 -85.6408 1144.29 -85.4902C1144.22 -85.3687 1144.14 -85.2473 1144.07 -85.1259L1145.38 -84.2747ZM1071.32 -1109.28C1071.12 -1109.56 1070.92 -1109.84 1070.71 -1110.12L1069.52 -1109.33C1069.72 -1109.05 1069.92 -1108.77 1070.13 -1108.49L1071.32 -1109.28ZM1142.44 -79.3932C1142.61 -79.6631 1142.77 -79.9332 1142.94 -80.2035L1141.63 -81.0636C1141.46 -80.7939 1141.3 -80.5244 1141.14 -80.2551L1142.44 -79.3932ZM1067.05 -1115.16L1065.87 -1114.35C1066.07 -1114.07 1066.27 -1113.8 1066.48 -1113.52L1067.66 -1114.32L1067.05 -1115.16ZM1139.43 -74.5004C1139.6 -74.7725 1139.77 -75.0448 1139.94 -75.3173L1138.64 -76.1882C1138.47 -75.9163 1138.3 -75.6446 1138.13 -75.3731L1139.43 -74.5004ZM1063.94 -1119.36C1063.73 -1119.64 1063.52 -1119.92 1063.31 -1120.2L1062.14 -1119.39C1062.35 -1119.11 1062.56 -1118.83 1062.77 -1118.55L1063.94 -1119.36ZM1136.44 -69.7512C1136.59 -69.9794 1136.73 -70.2078 1136.88 -70.4364L1135.59 -71.3182C1135.41 -71.049 1135.24 -70.78 1135.07 -70.5113L1136.37 -69.6277L1136.44 -69.7512ZM1060.16 -1124.4C1059.95 -1124.68 1059.74 -1124.96 1059.53 -1125.23L1058.36 -1124.41C1058.57 -1124.13 1058.78 -1123.85 1058.99 -1123.57L1060.16 -1124.4ZM1133.27 -64.8043C1133.44 -65.0709 1133.61 -65.3377 1133.78 -65.6047L1132.5 -66.4973C1132.33 -66.2309 1132.15 -65.9647 1131.98 -65.6987L1133.27 -64.8043ZM1056.35 -1129.39C1056.14 -1129.67 1055.93 -1129.94 1055.71 -1130.22L1054.56 -1129.38C1054.77 -1129.1 1054.98 -1128.83 1055.19 -1128.55L1056.35 -1129.39ZM1130.13 -60.0305C1130.3 -60.2943 1130.48 -60.5584 1130.65 -60.8227L1129.37 -61.7261C1129.2 -61.4625 1129.03 -61.199 1128.85 -60.9358L1130.13 -60.0305ZM1052.51 -1134.33C1052.3 -1134.6 1052.09 -1134.88 1051.87 -1135.15L1050.72 -1134.3C1050.94 -1134.03 1051.15 -1133.76 1051.36 -1133.48L1052.51 -1134.33ZM1126.96 -55.3067C1127.14 -55.5677 1127.31 -55.829 1127.49 -56.0905L1126.22 -57.0048C1126.04 -56.7439 1125.86 -56.4833 1125.69 -56.2228L1126.96 -55.3067ZM1048.65 -1139.22C1048.43 -1139.5 1048.22 -1139.77 1048 -1140.04L1046.86 -1139.18L1047.51 -1138.37L1048.65 -1139.22ZM1123.71 -50.5749C1123.89 -50.8378 1124.08 -51.1009 1124.26 -51.3643L1122.99 -52.2896C1122.91 -52.1656 1122.82 -52.0416 1122.74 -51.9177C1122.64 -51.7791 1122.54 -51.6406 1122.45 -51.5021L1123.71 -50.5749ZM1044.05 -1144.93L1042.92 -1144.06C1043.14 -1143.79 1043.36 -1143.52 1043.58 -1143.25L1044.72 -1144.12L1044.05 -1144.93ZM1120.41 -45.8694C1120.6 -46.1293 1120.78 -46.3895 1120.96 -46.65L1119.71 -47.5863C1119.52 -47.3265 1119.34 -47.067 1119.16 -46.8076L1120.41 -45.8694ZM1040.72 -1149C1040.5 -1149.27 1040.28 -1149.54 1040.06 -1149.81L1038.93 -1148.92L1039.6 -1148.12L1040.72 -1149ZM1117.08 -41.2168C1117.26 -41.4738 1117.45 -41.731 1117.63 -41.9885L1116.38 -42.936C1116.2 -42.6791 1116.01 -42.4225 1115.83 -42.1661L1117.08 -41.2168ZM1036.7 -1153.83C1036.48 -1154.09 1036.26 -1154.36 1036.03 -1154.63L1034.92 -1153.73C1035.14 -1153.47 1035.36 -1153.2 1035.59 -1152.93L1036.7 -1153.83ZM1113.7 -36.6176C1113.89 -36.8716 1114.08 -37.1259 1114.27 -37.3804L1113.03 -38.339C1112.84 -38.0851 1112.65 -37.8314 1112.46 -37.578L1113.7 -36.6176ZM1031.98 -1159.4L1030.87 -1158.49C1031.1 -1158.23 1031.32 -1157.96 1031.55 -1157.7L1032.65 -1158.61L1031.98 -1159.4ZM1110.3 -32.0722C1110.49 -32.3232 1110.68 -32.5745 1110.87 -32.826L1109.63 -33.7956C1109.44 -33.5447 1109.25 -33.2941 1109.07 -33.0437L1110.3 -32.0722ZM1028.58 -1163.33C1028.35 -1163.59 1028.12 -1163.85 1027.9 -1164.11L1026.8 -1163.2C1027.03 -1162.94 1027.26 -1162.68 1027.48 -1162.42L1028.58 -1163.33ZM1106.8 -27.5159C1107 -27.7684 1107.2 -28.0211 1107.39 -28.2741L1106.17 -29.255C1105.97 -29.0026 1105.78 -28.7505 1105.58 -28.4986L1106.8 -27.5159ZM1024.43 -1168.06C1024.19 -1168.32 1023.96 -1168.58 1023.73 -1168.85L1022.64 -1167.92C1022.88 -1167.66 1023.11 -1167.39 1023.34 -1167.13L1024.43 -1168.06ZM1103.26 -22.9998C1103.46 -23.2491 1103.66 -23.4986 1103.86 -23.7485L1102.64 -24.7406C1102.44 -24.4914 1102.25 -24.2425 1102.05 -23.9938L1103.26 -22.9998ZM1020.22 -1172.76C1019.99 -1173.02 1019.75 -1173.28 1019.52 -1173.54L1018.44 -1172.6L1019.15 -1171.82L1020.22 -1172.76ZM1099.69 -18.5405C1099.89 -18.7867 1100.09 -19.0331 1100.29 -19.2798L1099.08 -20.2832C1098.88 -20.0371 1098.68 -19.7914 1098.48 -19.5458L1099.69 -18.5405ZM1015.99 -1177.41C1015.75 -1177.67 1015.51 -1177.92 1015.28 -1178.18L1014.22 -1177.23C1014.45 -1176.97 1014.69 -1176.71 1014.92 -1176.46L1015.99 -1177.41ZM1096.08 -14.1387C1096.28 -14.3817 1096.48 -14.6249 1096.68 -14.8684L1095.48 -15.883C1095.28 -15.6402 1095.08 -15.3976 1094.88 -15.1553L1096.08 -14.1387ZM1011.72 -1182C1011.49 -1182.26 1011.25 -1182.51 1011.01 -1182.76L1009.96 -1181.8C1010.2 -1181.54 1010.43 -1181.29 1010.67 -1181.04L1011.72 -1182ZM1092.73 -10.1565C1092.84 -10.2758 1092.94 -10.3952 1093.04 -10.5146L1091.85 -11.5406C1091.65 -11.3009 1091.44 -11.0616 1091.24 -10.8225L1092.43 -9.79469C1092.53 -9.91523 1092.63 -10.0358 1092.73 -10.1565ZM1007.44 -1186.54C1007.2 -1186.79 1006.96 -1187.04 1006.72 -1187.29L1005.68 -1186.31C1005.92 -1186.06 1006.16 -1185.81 1006.39 -1185.56L1007.44 -1186.54ZM1088.68 -5.43218C1088.89 -5.67286 1089.1 -5.91383 1089.31 -6.15508L1088.13 -7.19243C1087.92 -6.95181 1087.71 -6.71148 1087.5 -6.47142L1088.68 -5.43218ZM1003.06 -1191.08C1002.81 -1191.34 1002.57 -1191.59 1002.32 -1191.84L1001.29 -1190.85C1001.54 -1190.6 1001.78 -1190.35 1002.03 -1190.1L1003.06 -1191.08ZM1084.89 -1.13017C1085.1 -1.36748 1085.32 -1.60506 1085.53 -1.84292L1084.36 -2.89171C1084.15 -2.65447 1083.94 -2.41752 1083.73 -2.18085L1084.89 -1.13017ZM998.635 -1195.58C998.389 -1195.83 998.142 -1196.08 997.896 -1196.33L996.878 -1195.33C997.124 -1195.08 997.37 -1194.83 997.616 -1194.59L998.635 -1195.58ZM1081.07 3.11068C1081.29 2.87679 1081.5 2.64262 1081.71 2.40816L1080.55 1.34797C1080.43 1.48688 1080.3 1.62569 1080.17 1.76439C1080.09 1.85917 1080 1.95391 1079.92 2.0486L1081.07 3.11068ZM994.187 -1200.03C993.939 -1200.27 993.691 -1200.51 993.443 -1200.76L992.438 -1199.75L992.652 -1199.54C992.828 -1199.36 993.004 -1199.19 993.18 -1199.01L994.187 -1200.03ZM1077.22 7.28989C1077.43 7.05943 1077.65 6.82869 1077.86 6.59766L1076.71 5.52609C1076.5 5.75648 1076.28 5.98659 1076.07 6.21641L1077.22 7.28989ZM989.712 -1204.41C989.463 -1204.65 989.214 -1204.89 988.964 -1205.13L987.971 -1204.11C988.22 -1203.87 988.469 -1203.62 988.717 -1203.38L989.712 -1204.41ZM1073.3 11.4273C1073.52 11.1963 1073.75 10.9649 1073.97 10.7333L1072.83 9.65038C1072.61 9.88135 1072.39 10.112 1072.17 10.3424L1073.3 11.4273ZM985.202 -1208.73C984.947 -1208.98 984.692 -1209.22 984.436 -1209.46L983.456 -1208.42C983.711 -1208.18 983.965 -1207.94 984.22 -1207.7L985.202 -1208.73ZM1069.78 15.0734C1069.84 15.0056 1069.91 14.9378 1069.98 14.8699L1068.85 13.7754L1068.64 13.9863C1068.49 14.1432 1068.34 14.3 1068.18 14.4566L1069.31 15.5531C1069.46 15.3933 1069.62 15.2334 1069.78 15.0734ZM979.824 -1213.78L978.857 -1212.74C979.113 -1212.5 979.369 -1212.26 979.625 -1212.02L980.595 -1213.07L979.824 -1213.78ZM1065.52 19.3729C1065.66 19.2292 1065.8 19.0854 1065.95 18.9414L1064.83 17.8354C1064.71 17.9587 1064.59 18.0819 1064.46 18.205C1064.36 18.3053 1064.26 18.4056 1064.16 18.5058L1065.27 19.6137C1065.35 19.5334 1065.43 19.4532 1065.52 19.3729ZM975.96 -1217.34C975.702 -1217.57 975.444 -1217.81 975.185 -1218.04L974.231 -1216.98C974.489 -1216.75 974.746 -1216.52 975.004 -1216.28L975.96 -1217.34ZM1061.2 23.6086C1061.43 23.3885 1061.66 23.1681 1061.89 22.9474L1060.78 21.8299C1060.56 22.05 1060.33 22.2698 1060.1 22.4893L1061.2 23.6086ZM971.299 -1221.55C971.04 -1221.78 970.78 -1222.01 970.52 -1222.24L969.579 -1221.17C969.838 -1220.94 970.097 -1220.71 970.356 -1220.47L971.299 -1221.55ZM1057.1 27.5375C1057.33 27.3211 1057.56 27.1043 1057.79 26.8873L1056.7 25.7584C1056.47 25.9748 1056.24 26.1909 1056.01 26.4067L1057.1 27.5375ZM965.829 -1226.37L964.902 -1225.29C965.162 -1225.06 965.423 -1224.83 965.683 -1224.6L966.613 -1225.69L965.829 -1226.37ZM1052.91 31.4421C1053.15 31.2258 1053.38 31.0091 1053.62 30.7922L1052.54 29.6518C1052.31 29.8681 1052.07 30.0841 1051.84 30.2998L1052.91 31.4421ZM961.862 -1229.8C961.595 -1230.03 961.327 -1230.25 961.06 -1230.48L960.147 -1229.38C960.413 -1229.16 960.68 -1228.93 960.946 -1228.7L961.862 -1229.8ZM1048.67 35.3013C1048.9 35.0889 1049.14 34.8761 1049.38 34.663L1048.31 33.5111C1048.08 33.7236 1047.84 33.9357 1047.6 34.1475L1048.67 35.3013ZM957.042 -1233.88C956.773 -1234.1 956.505 -1234.32 956.236 -1234.55L955.337 -1233.44C955.605 -1233.22 955.873 -1232.99 956.141 -1232.77L957.042 -1233.88ZM1044.38 39.0907C1044.62 38.8822 1044.86 38.6733 1045.1 38.464L1044.05 37.3007C1043.81 37.5093 1043.57 37.7175 1043.33 37.9255L1044.38 39.0907ZM952.197 -1237.89C951.927 -1238.11 951.657 -1238.33 951.387 -1238.55L950.502 -1237.43C950.772 -1237.21 951.041 -1236.99 951.31 -1236.77L952.197 -1237.89ZM1040.07 42.8098C1040.31 42.6052 1040.55 42.4002 1040.79 42.1949L1039.75 41.0201C1039.51 41.2248 1039.27 41.4292 1039.03 41.6332L1040.07 42.8098ZM946.849 -1242.21L946.511 -1242.48L945.642 -1241.35C945.913 -1241.13 946.183 -1240.91 946.454 -1240.7L947.326 -1241.83L946.849 -1242.21ZM1035.71 46.4632C1035.95 46.2608 1036.2 46.0581 1036.44 45.855L1035.41 44.6689C1035.31 44.7591 1035.2 44.8491 1035.09 44.9391C1034.95 45.0512 1034.82 45.1633 1034.68 45.2752L1035.71 46.4632ZM942.43 -1245.7C942.155 -1245.92 941.88 -1246.13 941.605 -1246.34L940.75 -1245.2C941.025 -1244.99 941.299 -1244.77 941.573 -1244.56L942.43 -1245.7ZM1031.25 50.0981C1031.5 49.8982 1031.74 49.698 1031.99 49.4974L1030.98 48.2999C1030.73 48.4998 1030.48 48.6994 1030.24 48.8987L1031.25 50.0981ZM937.435 -1249.56C937.157 -1249.77 936.878 -1249.98 936.599 -1250.2L935.761 -1249.04C936.039 -1248.83 936.316 -1248.62 936.594 -1248.4L937.435 -1249.56ZM1026.75 53.6588C1027 53.4631 1027.25 53.267 1027.5 53.0706L1026.5 51.8617C1026.25 52.0575 1026 52.253 1025.75 52.4481L1026.75 53.6588ZM931.712 -1253.87L931.568 -1253.98L930.746 -1252.81L931.046 -1252.58L931.584 -1252.18L932.409 -1253.35C932.177 -1253.52 931.944 -1253.7 931.712 -1253.87ZM1022.22 57.145C1022.47 56.9534 1022.72 56.7615 1022.98 56.5692L1021.99 55.349C1021.87 55.4449 1021.74 55.5406 1021.62 55.6363C1021.49 55.7319 1021.36 55.8275 1021.24 55.923L1022.22 57.145ZM926.914 -1257.39L926.513 -1257.68L925.707 -1256.5C925.988 -1256.3 926.268 -1256.09 926.549 -1255.89L927.357 -1257.07L926.914 -1257.39ZM1017.65 60.556C1017.91 60.3686 1018.16 60.1808 1018.42 59.9927L1017.45 58.7614C1017.19 58.9489 1016.94 59.136 1016.69 59.3228L1017.65 60.556ZM922.282 -1260.71C921.999 -1260.91 921.716 -1261.11 921.433 -1261.31L920.644 -1260.12C920.926 -1259.92 921.208 -1259.72 921.49 -1259.52L922.282 -1260.71ZM1013.01 63.9215C1013.27 63.7356 1013.53 63.5493 1013.79 63.3626L1012.84 62.1202C1012.58 62.3062 1012.32 62.4919 1012.06 62.6772L1013.01 63.9215ZM916.724 -1264.6L916.283 -1264.9L915.511 -1263.7C915.798 -1263.5 916.086 -1263.3 916.373 -1263.11L917.148 -1264.31L916.724 -1264.6ZM1008.78 66.8959C1008.88 66.8251 1008.98 66.7542 1009.09 66.6832L1008.15 65.4297C1007.89 65.6114 1007.63 65.7927 1007.36 65.9736L1008.3 67.229C1008.46 67.1181 1008.62 67.0071 1008.78 66.8959ZM911.947 -1267.86C911.657 -1268.05 911.367 -1268.25 911.077 -1268.44L910.322 -1267.22C910.611 -1267.03 910.9 -1266.84 911.189 -1266.64L911.947 -1267.86ZM1003.56 70.4575C1003.82 70.2804 1004.09 70.1028 1004.35 69.9249L1003.43 68.6604C1003.17 68.8377 1002.9 69.0146 1002.64 69.1912L1003.56 70.4575ZM906.721 -1271.33C906.43 -1271.52 906.139 -1271.71 905.848 -1271.9L905.111 -1270.67C905.306 -1270.54 905.501 -1270.41 905.696 -1270.29L905.981 -1270.1L906.721 -1271.33ZM998.779 73.6064C999.046 73.4337 999.312 73.2606 999.578 73.0872L998.673 71.8118C998.408 71.9846 998.142 72.1571 997.877 72.3292L998.779 73.6064ZM901.472 -1274.72C901.18 -1274.91 900.887 -1275.09 900.595 -1275.28L899.876 -1274.04C900.167 -1273.85 900.459 -1273.67 900.75 -1273.48L901.472 -1274.72ZM993.955 76.6829C994.227 76.5124 994.498 76.3414 994.77 76.1701L993.882 74.884C993.611 75.0547 993.34 75.225 993.069 75.395L993.955 76.6829ZM896.199 -1278.03C895.901 -1278.22 895.603 -1278.4 895.305 -1278.59L894.605 -1277.33C894.902 -1277.15 895.198 -1276.97 895.495 -1276.78L896.199 -1278.03ZM989.041 79.7114C989.315 79.5455 989.589 79.3792 989.862 79.2125L988.991 77.9156C988.719 78.0817 988.446 78.2475 988.173 78.4128L989.041 79.7114ZM890.831 -1281.31C890.532 -1281.49 890.233 -1281.67 889.934 -1281.85L889.252 -1280.59C889.55 -1280.41 889.848 -1280.23 890.146 -1280.05L890.831 -1281.31ZM984.092 82.6565C984.368 82.4952 984.644 82.3335 984.92 82.1715L984.066 80.8641C983.792 81.0255 983.517 81.1866 983.242 81.3474L984.092 82.6565ZM885.121 -1284.69C884.927 -1284.81 884.733 -1284.92 884.539 -1285.03L883.877 -1283.76C884.053 -1283.66 884.229 -1283.55 884.405 -1283.45L884.774 -1283.24L885.44 -1284.51L885.121 -1284.69ZM979.109 85.5176C979.387 85.361 979.665 85.204 979.942 85.0466L979.107 83.7288C978.83 83.8857 978.554 84.0421 978.277 84.1981L979.109 85.5176ZM880.026 -1287.62C879.725 -1287.79 879.424 -1287.96 879.122 -1288.13L878.479 -1286.85C878.78 -1286.68 879.08 -1286.51 879.38 -1286.34L880.026 -1287.62ZM974.092 88.2942C974.372 88.1423 974.651 87.99 974.93 87.8373L974.113 86.5094C973.835 86.6615 973.556 86.8132 973.278 86.9645L974.092 88.2942ZM874.591 -1290.65C874.288 -1290.82 873.986 -1290.98 873.683 -1291.15L873.06 -1289.85C873.362 -1289.69 873.663 -1289.52 873.965 -1289.36L874.591 -1290.65ZM968.991 91.0117C969.276 90.8629 969.56 90.7136 969.845 90.5639L969.047 89.2259C968.763 89.375 968.479 89.5237 968.196 89.672L968.991 91.0117ZM869.091 -1293.62C868.784 -1293.79 868.476 -1293.95 868.169 -1294.11L867.566 -1292.8C867.873 -1292.64 868.179 -1292.48 868.485 -1292.32L869.091 -1293.62ZM963.845 93.6472C964.132 93.5032 964.418 93.3588 964.705 93.214L963.926 91.8661C963.64 92.0103 963.355 92.1541 963.069 92.2975L963.845 93.6472ZM863.547 -1296.52C863.239 -1296.68 862.93 -1296.83 862.621 -1296.99L862.04 -1295.67C862.347 -1295.52 862.655 -1295.36 862.962 -1295.2L863.547 -1296.52ZM958.665 96.1943C958.954 96.0553 959.242 95.9158 959.531 95.776L958.771 94.4183C958.484 94.5576 958.197 94.6966 957.909 94.8351L958.665 96.1943ZM857.982 -1299.33C857.672 -1299.48 857.363 -1299.63 857.053 -1299.79L856.492 -1298.46L856.908 -1298.25C857.078 -1298.17 857.248 -1298.08 857.418 -1298L857.982 -1299.33ZM953.452 98.6527C953.742 98.5186 954.033 98.3841 954.323 98.2492L953.583 96.882C953.294 97.0164 953.005 97.1504 952.715 97.284L953.452 98.6527ZM852.396 -1302.05C852.085 -1302.2 851.774 -1302.34 851.463 -1302.49L850.924 -1301.15C851.234 -1301.01 851.544 -1300.86 851.854 -1300.71L852.396 -1302.05ZM948.179 101.033C948.474 100.903 948.769 100.772 949.064 100.641L948.345 99.2646C948.051 99.3953 947.757 99.5255 947.463 99.6553L948.179 101.033ZM846.333 -1304.89L845.825 -1305.12L845.308 -1303.77C845.622 -1303.63 845.936 -1303.49 846.25 -1303.34L846.771 -1304.69L846.333 -1304.89ZM942.848 103.333C943.145 103.208 943.442 103.082 943.739 102.956L943.04 101.571C942.745 101.696 942.449 101.822 942.153 101.946L942.848 103.333ZM840.685 -1307.44L840.141 -1307.68L839.646 -1306.32C839.961 -1306.18 840.276 -1306.04 840.591 -1305.9L841.09 -1307.26L840.685 -1307.44ZM937.484 105.541C937.783 105.421 938.082 105.3 938.38 105.179L937.703 103.785C937.406 103.905 937.108 104.026 936.81 104.145L937.484 105.541ZM835.39 -1309.73C835.072 -1309.87 834.755 -1310 834.438 -1310.14L833.965 -1308.77C834.281 -1308.63 834.597 -1308.5 834.913 -1308.37L835.39 -1309.73ZM932.087 107.655C932.388 107.541 932.689 107.425 932.989 107.309L932.333 105.907C932.034 106.022 931.735 106.137 931.435 106.251L932.087 107.655ZM829.669 -1312.12C829.351 -1312.25 829.033 -1312.38 828.714 -1312.51L828.265 -1311.13C828.582 -1311 828.899 -1310.87 829.216 -1310.74L829.669 -1312.12ZM926.648 109.68C926.953 109.57 927.257 109.459 927.562 109.348L926.928 107.937C926.625 108.048 926.321 108.158 926.018 108.268L926.648 109.68ZM823.927 -1314.41C823.605 -1314.54 823.284 -1314.66 822.962 -1314.79L822.535 -1313.4C822.856 -1313.28 823.176 -1313.15 823.496 -1313.03L823.927 -1314.41ZM921.149 111.62C921.455 111.515 921.762 111.409 922.068 111.303L921.456 109.885C921.151 109.99 920.846 110.095 920.541 110.2L921.149 111.62ZM818.129 -1316.63C817.807 -1316.75 817.484 -1316.87 817.161 -1316.99L816.758 -1315.59C817.08 -1315.47 817.401 -1315.35 817.723 -1315.23L818.129 -1316.63ZM915.617 113.464C915.926 113.364 916.234 113.264 916.542 113.163L915.953 111.737C915.646 111.837 915.339 111.937 915.032 112.036L915.617 113.464ZM812.313 -1318.75C811.99 -1318.86 811.666 -1318.98 811.342 -1319.09L810.963 -1317.69C811.286 -1317.57 811.608 -1317.46 811.93 -1317.35L812.313 -1318.75ZM910.054 115.211C910.364 115.117 910.674 115.022 910.984 114.927L910.418 113.493C910.109 113.588 909.801 113.682 909.492 113.776L910.054 115.211ZM806.48 -1320.77C806.155 -1320.88 805.83 -1320.99 805.506 -1321.1L805.151 -1319.69C805.474 -1319.58 805.797 -1319.47 806.121 -1319.36L806.48 -1320.77ZM904.459 116.862C904.771 116.773 905.082 116.683 905.394 116.593L904.851 115.153C904.541 115.242 904.231 115.331 903.92 115.42L904.459 116.862ZM800.628 -1322.7C800.303 -1322.81 799.977 -1322.91 799.651 -1323.02L799.32 -1321.59L799.859 -1321.42L800.294 -1321.28L800.628 -1322.7ZM898.812 118.42C899.126 118.336 899.441 118.251 899.755 118.167L899.236 116.719C898.923 116.804 898.61 116.888 898.296 116.971L898.812 118.42ZM794.741 -1324.54C794.413 -1324.64 794.085 -1324.74 793.758 -1324.84L793.452 -1323.41C793.778 -1323.31 794.105 -1323.21 794.431 -1323.11L794.741 -1324.54ZM893.133 119.878C893.45 119.8 893.766 119.721 894.082 119.642L893.587 118.189C893.272 118.268 892.957 118.346 892.642 118.424L893.133 119.878ZM788.341 -1326.42L787.848 -1326.56L787.567 -1325.13C787.894 -1325.03 788.222 -1324.94 788.549 -1324.85L788.834 -1326.28L788.341 -1326.42ZM887.425 121.238C887.743 121.165 888.06 121.092 888.378 121.018L887.907 119.559C887.591 119.632 887.274 119.705 886.958 119.777L887.425 121.238ZM782.412 -1328.06L781.921 -1328.19L781.666 -1326.75C781.829 -1326.7 781.991 -1326.66 782.154 -1326.62L782.651 -1326.48L782.91 -1327.93L782.412 -1328.06ZM881.686 122.496C882.005 122.429 882.325 122.362 882.644 122.293L882.198 120.829C881.88 120.896 881.562 120.964 881.243 121.031L881.686 122.496ZM776.971 -1329.47C776.641 -1329.55 776.31 -1329.63 775.98 -1329.72L775.75 -1328.27C776.079 -1328.18 776.408 -1328.1 776.737 -1328.02L776.971 -1329.47ZM875.915 123.654C876.237 123.593 876.558 123.531 876.879 123.468L876.458 121.998C876.138 122.061 875.818 122.122 875.498 122.184L875.915 123.654ZM770.479 -1331.04L770.021 -1331.14L769.817 -1329.69C770.147 -1329.61 770.477 -1329.53 770.807 -1329.46L771.015 -1330.91L770.479 -1331.04ZM870.115 124.711C870.438 124.655 870.761 124.599 871.084 124.542L870.687 123.067C870.366 123.124 870.045 123.18 869.723 123.235L870.115 124.711ZM765.044 -1332.26C764.712 -1332.33 764.38 -1332.4 764.048 -1332.47L763.869 -1331.01C764.2 -1330.94 764.531 -1330.87 764.861 -1330.8L765.044 -1332.26ZM864.286 125.665C864.611 125.615 864.935 125.564 865.26 125.513L864.888 124.034C864.565 124.085 864.242 124.136 863.919 124.186L864.286 125.665ZM759.059 -1333.5C758.726 -1333.57 758.393 -1333.63 758.06 -1333.7L757.907 -1332.23C758.239 -1332.16 758.57 -1332.1 758.902 -1332.03L759.059 -1333.5ZM858.428 126.516C858.754 126.472 859.081 126.427 859.407 126.382L859.061 124.899C858.736 124.944 858.412 124.989 858.087 125.033L858.428 126.516ZM753.059 -1334.64C752.726 -1334.7 752.392 -1334.76 752.058 -1334.82L751.932 -1333.35C752.264 -1333.29 752.596 -1333.23 752.929 -1333.17L753.059 -1334.64ZM852.554 127.263C852.881 127.224 853.207 127.185 853.534 127.146L853.214 125.66C852.889 125.699 852.563 125.738 852.238 125.776L852.554 127.263ZM747.055 -1335.68C746.722 -1335.73 746.389 -1335.79 746.055 -1335.84L745.955 -1334.36C746.287 -1334.31 746.619 -1334.26 746.951 -1334.2L747.055 -1335.68ZM846.661 127.905C846.989 127.872 847.317 127.839 847.645 127.805L847.351 126.316C847.024 126.35 846.698 126.383 846.371 126.415L846.661 127.905ZM740.436 -1336.7L740.049 -1336.75L739.975 -1335.27C740.308 -1335.23 740.64 -1335.18 740.973 -1335.13L741.051 -1336.61L740.436 -1336.7ZM840.74 128.443C841.07 128.416 841.4 128.388 841.729 128.36L841.461 126.869C841.133 126.897 840.804 126.924 840.476 126.951L840.74 128.443ZM735.034 -1337.44C734.699 -1337.48 734.365 -1337.52 734.03 -1337.57L733.982 -1336.08C734.316 -1336.04 734.649 -1336 734.982 -1335.95L735.034 -1337.44ZM834.793 128.876C835.124 128.855 835.455 128.833 835.786 128.811L835.543 127.318C835.214 127.34 834.884 127.362 834.555 127.383L834.793 128.876ZM729.005 -1338.16C728.67 -1338.2 728.335 -1338.24 727.999 -1338.28L727.978 -1336.79C728.312 -1336.75 728.646 -1336.71 728.98 -1336.68L729.005 -1338.16ZM828.834 129.204C829.164 129.188 829.494 129.173 829.824 129.157L829.608 127.662C829.28 127.678 828.951 127.694 828.622 127.709L828.834 129.204ZM722.973 -1338.78C722.64 -1338.82 722.306 -1338.85 721.973 -1338.88L721.978 -1337.39C722.31 -1337.36 722.642 -1337.33 722.974 -1337.3L722.973 -1338.78ZM822.879 129.425C823.211 129.416 823.542 129.406 823.873 129.395L823.683 127.9C823.354 127.91 823.024 127.92 822.694 127.929L822.879 129.425ZM716.968 -1339.3C716.634 -1339.32 716.3 -1339.35 715.966 -1339.37L715.998 -1337.88C716.33 -1337.86 716.663 -1337.83 716.995 -1337.81L716.968 -1339.3ZM816.899 129.542C817.232 129.538 817.565 129.534 817.897 129.53L817.733 128.034C817.402 128.038 817.071 128.042 816.739 128.046L816.899 129.542ZM710.952 -1339.71C710.617 -1339.73 710.283 -1339.75 709.948 -1339.77L710.006 -1338.27C710.34 -1338.25 710.673 -1338.23 711.006 -1338.21L710.952 -1339.71ZM810.893 129.553C811.227 129.556 811.562 129.558 811.896 129.559L811.758 128.062C811.426 128.061 811.093 128.059 810.76 128.057L810.893 129.553ZM704.406 -1340.03L703.921 -1340.05L704.005 -1338.56C704.339 -1338.55 704.673 -1338.53 705.006 -1338.52L704.926 -1340.01L704.406 -1340.03ZM805.364 129.471C805.533 129.475 805.701 129.479 805.869 129.482L805.758 127.986C805.591 127.982 805.423 127.979 805.255 127.975C805.088 127.971 804.921 127.967 804.754 127.963L804.861 129.459C805.029 129.463 805.196 129.467 805.364 129.471ZM698.891 -1340.21L698.387 -1340.23L697.882 -1340.24L697.993 -1338.74L698.496 -1338.73L698.997 -1338.72L698.891 -1340.21ZM798.826 129.259C799.161 129.273 799.496 129.286 799.831 129.299L799.746 127.804C799.412 127.791 799.079 127.778 798.745 127.764L798.826 129.259ZM692.858 -1340.31C692.524 -1340.31 692.19 -1340.31 691.856 -1340.31L691.993 -1338.82C692.326 -1338.82 692.659 -1338.81 692.991 -1338.81L692.858 -1340.31ZM792.8 128.954C793.134 128.973 793.469 128.993 793.803 129.012L793.745 127.518C793.412 127.499 793.079 127.48 792.746 127.46L792.8 128.954ZM686.853 -1340.3C686.52 -1340.29 686.187 -1340.29 685.854 -1340.28L686.018 -1338.79C686.349 -1338.79 686.681 -1338.8 687.012 -1338.8L686.853 -1340.3ZM786.784 128.544C787.118 128.57 787.452 128.595 787.786 128.619L787.754 127.127C787.421 127.103 787.089 127.077 786.756 127.052L786.784 128.544ZM680.872 -1340.18C680.541 -1340.17 680.209 -1340.16 679.878 -1340.15L680.068 -1338.65C680.398 -1338.66 680.728 -1338.67 681.058 -1338.68L680.872 -1340.18ZM780.778 128.03C781.112 128.062 781.445 128.093 781.779 128.123L781.773 126.633C781.441 126.603 781.109 126.572 780.777 126.541L780.778 128.03ZM674.917 -1339.96C674.587 -1339.94 674.257 -1339.93 673.927 -1339.91L674.144 -1338.42C674.472 -1338.43 674.8 -1338.45 675.129 -1338.46L674.917 -1339.96ZM774.746 127.41C775.082 127.447 775.417 127.484 775.752 127.52L775.773 126.033C775.44 125.997 775.106 125.96 774.772 125.923L774.746 127.41ZM668.959 -1339.63C668.628 -1339.61 668.297 -1339.59 667.966 -1339.57L668.208 -1338.07C668.538 -1338.09 668.867 -1338.12 669.197 -1338.14L668.959 -1339.63ZM768.718 126.684C769.052 126.727 769.387 126.77 769.722 126.812L769.769 125.328C769.436 125.286 769.103 125.243 768.769 125.2L768.718 126.684ZM663.011 -1339.2C662.682 -1339.17 662.352 -1339.14 662.023 -1339.11L662.291 -1337.62C662.619 -1337.65 662.947 -1337.68 663.275 -1337.71L663.011 -1339.2ZM762.701 125.854C763.035 125.903 763.369 125.952 763.703 126L763.777 124.519C763.444 124.471 763.111 124.423 762.779 124.374L762.701 125.854ZM656.76 -1338.63C656.542 -1338.6 656.324 -1338.58 656.106 -1338.56L656.401 -1337.07C656.727 -1337.1 657.054 -1337.14 657.381 -1337.17L657.091 -1338.66L656.76 -1338.63ZM756.696 124.922C757.029 124.977 757.363 125.031 757.696 125.085L757.796 123.608C757.464 123.554 757.132 123.5 756.801 123.446L756.696 124.922ZM651.197 -1338.02C650.871 -1337.98 650.544 -1337.94 650.218 -1337.9L650.538 -1336.41L651.033 -1336.47L651.513 -1336.53L651.197 -1338.02ZM750.692 123.885C751.026 123.946 751.36 124.006 751.693 124.066L751.82 122.593C751.487 122.534 751.155 122.474 750.823 122.414L750.692 123.885ZM645.323 -1337.27C644.997 -1337.23 644.671 -1337.18 644.345 -1337.14L644.691 -1335.65C645.015 -1335.7 645.34 -1335.74 645.665 -1335.79L645.323 -1337.27ZM744.693 122.745C745.026 122.811 745.359 122.877 745.692 122.942L745.844 121.474C745.513 121.409 745.181 121.344 744.85 121.278L744.693 122.745ZM639.465 -1336.42C639.141 -1336.37 638.816 -1336.32 638.492 -1336.27L638.863 -1334.79C639.186 -1334.84 639.509 -1334.89 639.832 -1334.94L639.465 -1336.42ZM738.707 121.502C739.039 121.574 739.372 121.645 739.704 121.716L739.882 120.254C739.552 120.184 739.221 120.113 738.89 120.041L738.707 121.502ZM633.636 -1335.47C633.313 -1335.41 632.99 -1335.35 632.668 -1335.3L633.064 -1333.82C633.386 -1333.88 633.707 -1333.93 634.029 -1333.99L633.636 -1335.47ZM732.736 120.159C733.068 120.236 733.399 120.313 733.73 120.39L733.935 118.933C733.605 118.857 733.275 118.78 732.945 118.703L732.736 120.159ZM627.836 -1334.41C627.515 -1334.35 627.194 -1334.29 626.872 -1334.22L627.294 -1332.75C627.614 -1332.82 627.934 -1332.88 628.254 -1332.94L627.836 -1334.41ZM726.781 118.715C727.111 118.798 727.441 118.88 727.772 118.962L728.002 117.512C727.673 117.43 727.344 117.348 727.015 117.265L726.781 118.715ZM622.066 -1333.25C621.746 -1333.18 621.427 -1333.12 621.107 -1333.05L621.554 -1331.58C621.872 -1331.65 622.19 -1331.72 622.508 -1331.79L622.066 -1333.25ZM720.841 117.171C721.171 117.26 721.501 117.348 721.83 117.435L722.086 115.992C721.757 115.904 721.429 115.817 721.101 115.729L720.841 117.171ZM616.327 -1331.99C616.009 -1331.92 615.691 -1331.85 615.373 -1331.77L615.844 -1330.31C616.161 -1330.39 616.477 -1330.46 616.794 -1330.53L616.327 -1331.99ZM714.918 115.528C715.247 115.622 715.575 115.716 715.904 115.809L716.185 114.372C715.857 114.28 715.53 114.186 715.203 114.093L714.918 115.528ZM610.618 -1330.63C610.302 -1330.55 609.986 -1330.48 609.67 -1330.4L610.165 -1328.94C610.48 -1329.02 610.794 -1329.1 611.109 -1329.18L610.618 -1330.63ZM709.011 113.787C709.338 113.887 709.666 113.986 709.994 114.084L710.3 112.655C709.973 112.556 709.647 112.458 709.32 112.359L709.011 113.787ZM604.94 -1329.17C604.625 -1329.09 604.311 -1329.01 603.997 -1328.92L604.516 -1327.47C604.829 -1327.56 605.142 -1327.64 605.455 -1327.73L604.94 -1329.17ZM703.123 111.949C703.449 112.053 703.775 112.157 704.101 112.261L704.431 110.839C704.107 110.736 703.782 110.632 703.458 110.528L703.123 111.949ZM599.293 -1327.62C598.981 -1327.53 598.669 -1327.44 598.358 -1327.35L598.9 -1325.91C599.211 -1326 599.521 -1326.09 599.832 -1326.17L599.293 -1327.62ZM697.272 110.02C697.597 110.13 697.921 110.239 698.246 110.348L698.601 108.934C698.277 108.826 697.954 108.717 697.631 108.607L697.272 110.02ZM593.697 -1325.97C593.387 -1325.87 593.078 -1325.78 592.768 -1325.68L593.334 -1324.25C593.642 -1324.34 593.951 -1324.44 594.26 -1324.53L593.697 -1325.97ZM691.438 107.995C691.762 108.11 692.085 108.225 692.409 108.339L692.788 106.933C692.466 106.82 692.143 106.705 691.821 106.591L691.438 107.995ZM588.134 -1324.22C587.826 -1324.12 587.518 -1324.02 587.21 -1323.92L587.799 -1322.49C588.106 -1322.59 588.412 -1322.69 588.719 -1322.79L588.134 -1324.22ZM685.622 105.874C685.945 105.995 686.268 106.115 686.59 106.234L686.993 104.837C686.672 104.718 686.35 104.599 686.029 104.479L685.622 105.874ZM581.911 -1322.14L581.684 -1322.06L582.295 -1320.64C582.6 -1320.74 582.905 -1320.85 583.21 -1320.95L582.603 -1322.37C582.372 -1322.3 582.142 -1322.22 581.911 -1322.14ZM679.825 103.659C680.146 103.785 680.468 103.91 680.79 104.035L681.216 102.647C680.896 102.523 680.575 102.398 680.255 102.273L679.825 103.659ZM576.727 -1320.3L576.19 -1320.1L576.824 -1318.69C577.127 -1318.8 577.43 -1318.91 577.734 -1319.02L577.103 -1320.43L576.727 -1320.3ZM674.082 101.365C674.4 101.495 674.719 101.624 675.037 101.753L675.487 100.374C675.17 100.246 674.853 100.117 674.536 99.9874L674.082 101.365ZM571.301 -1318.27L570.763 -1318.06L571.418 -1316.66C571.718 -1316.78 572.017 -1316.89 572.317 -1317.01L571.664 -1318.41L571.301 -1318.27ZM668.362 98.9793C668.679 99.1144 668.997 99.249 669.314 99.3832L669.787 98.0139C669.47 97.8802 669.154 97.7461 668.838 97.6116L668.362 98.9793ZM566.268 -1316.3C565.969 -1316.18 565.67 -1316.05 565.371 -1315.93L566.049 -1314.54C566.254 -1314.62 566.46 -1314.71 566.665 -1314.79L566.941 -1314.9L566.268 -1316.3ZM663.298 96.784L663.61 96.9215L664.105 95.5619C663.79 95.4232 663.475 95.284 663.16 95.1444L662.661 96.5023C662.874 96.5964 663.086 96.6903 663.298 96.784ZM560.904 -1314.09C560.607 -1313.96 560.31 -1313.84 560.013 -1313.71L560.711 -1312.33C561.007 -1312.45 561.303 -1312.58 561.599 -1312.7L560.904 -1314.09ZM656.981 93.9344C657.296 94.0796 657.611 94.2243 657.926 94.3687L658.444 93.0191C658.13 92.8753 657.816 92.7311 657.502 92.5865L656.981 93.9344ZM555.573 -1311.79C555.278 -1311.66 554.983 -1311.53 554.688 -1311.4L555.407 -1310.02C555.701 -1310.15 555.995 -1310.28 556.289 -1310.41L555.573 -1311.79ZM651.835 91.5217C651.986 91.5938 652.137 91.6657 652.288 91.7376L652.827 90.3982C652.518 90.2508 652.208 90.1031 651.898 89.9549L651.355 91.2926C651.515 91.3691 651.675 91.4455 651.835 91.5217ZM550.3 -1309.41C550.009 -1309.27 549.719 -1309.14 549.429 -1309L550.168 -1307.64C550.374 -1307.73 550.579 -1307.83 550.785 -1307.92L551.036 -1308.04L550.3 -1309.41ZM646.211 88.79C646.373 88.8705 646.536 88.9509 646.699 89.0312L647.259 87.7021C647.029 87.5884 646.798 87.4743 646.567 87.3601L646.333 87.2443L645.769 88.5716C645.916 88.6445 646.064 88.7173 646.211 88.79ZM545.086 -1306.95C544.798 -1306.81 544.509 -1306.67 544.221 -1306.53L544.98 -1305.17C545.268 -1305.31 545.555 -1305.45 545.843 -1305.59L545.086 -1306.95ZM640.204 85.7631C640.513 85.9215 640.822 86.0795 641.13 86.2372L641.712 84.9187C641.404 84.7617 641.097 84.6042 640.789 84.4464L640.204 85.7631ZM539.907 -1304.4C539.62 -1304.26 539.333 -1304.11 539.047 -1303.97L539.826 -1302.62C540.111 -1302.76 540.397 -1302.91 540.682 -1303.05L539.907 -1304.4ZM635.086 83.0933C635.252 83.181 635.417 83.2687 635.583 83.3562L636.185 82.0486L635.817 81.8539C635.634 81.7567 635.45 81.6593 635.266 81.5618L634.661 82.8676C634.802 82.9429 634.944 83.0182 635.086 83.0933ZM534.761 -1301.77C534.476 -1301.62 534.191 -1301.47 533.907 -1301.32L534.705 -1299.98C534.988 -1300.13 535.272 -1300.28 535.556 -1300.43L534.761 -1301.77ZM629.161 79.898C629.463 80.064 629.766 80.2297 630.069 80.3949L630.691 79.0983C630.39 78.9336 630.088 78.7686 629.787 78.6031L629.161 79.898ZM529.66 -1299.05C529.38 -1298.9 529.101 -1298.74 528.821 -1298.59L529.638 -1297.26C529.917 -1297.42 530.195 -1297.57 530.474 -1297.72L529.66 -1299.05ZM623.725 76.8674C624.026 77.038 624.328 77.2083 624.629 77.3782L625.272 76.0926C624.972 75.9233 624.671 75.7536 624.371 75.5836L623.725 76.8674ZM524.642 -1296.27C524.365 -1296.12 524.087 -1295.96 523.809 -1295.8L524.645 -1294.48C524.921 -1294.64 525.198 -1294.8 525.475 -1294.95L524.642 -1296.27ZM618.312 73.7536C618.612 73.9289 618.912 74.1038 619.212 74.2783L619.875 73.0039C619.576 72.83 619.276 72.6558 618.977 72.4811L618.312 73.7536ZM519.659 -1293.41C519.383 -1293.25 519.108 -1293.09 518.832 -1292.93L519.685 -1291.62C519.899 -1291.74 520.112 -1291.87 520.326 -1291.99L520.51 -1292.1L519.659 -1293.41ZM613.334 70.8057C613.495 70.9025 613.657 70.9992 613.818 71.0957L614.499 69.8327C614.328 69.73 614.156 69.6271 613.985 69.5241L613.606 69.2962L612.921 70.5573C613.059 70.6402 613.196 70.723 613.334 70.8057ZM514.711 -1290.47C514.437 -1290.3 514.163 -1290.13 513.889 -1289.97L514.76 -1288.67C515.033 -1288.84 515.306 -1289 515.579 -1289.17L514.711 -1290.47ZM607.553 67.279C607.851 67.4634 608.148 67.6474 608.446 67.8311L609.147 66.5796C608.85 66.3966 608.553 66.2132 608.257 66.0295L607.553 67.279ZM509.797 -1287.44C509.525 -1287.27 509.253 -1287.1 508.981 -1286.92L509.87 -1285.64C510.14 -1285.81 510.411 -1285.98 510.682 -1286.15L509.797 -1287.44ZM602.704 64.2349C602.855 64.3308 603.006 64.4266 603.157 64.5223L603.876 63.2823C603.584 63.0974 603.293 62.9122 603.002 62.7265L602.28 63.9646C602.421 64.0548 602.562 64.1449 602.704 64.2349ZM504.572 -1284.1L504.174 -1283.84L505.079 -1282.57C505.344 -1282.74 505.609 -1282.91 505.875 -1283.08L504.972 -1284.36L504.572 -1284.1ZM597.03 60.5722C597.321 60.7629 597.612 60.9532 597.904 61.1431L598.641 59.9147C598.351 59.7255 598.061 59.5358 597.771 59.3459L597.03 60.5722ZM500.195 -1281.21C499.93 -1281.03 499.666 -1280.86 499.402 -1280.68L500.323 -1279.41C500.586 -1279.59 500.85 -1279.77 501.113 -1279.95L500.195 -1281.21ZM591.805 57.1018C592.095 57.2967 592.384 57.4914 592.674 57.6856L593.429 56.469C593.14 56.2754 592.851 56.0815 592.563 55.8872L591.805 57.1018ZM495.008 -1277.68L494.665 -1277.44L495.602 -1276.18C495.795 -1276.32 495.987 -1276.45 496.18 -1276.58L496.387 -1276.73L495.452 -1277.98C495.304 -1277.88 495.156 -1277.78 495.008 -1277.68ZM586.603 53.5537C586.892 53.753 587.18 53.9519 587.469 54.1504L588.241 52.9457C587.953 52.7478 587.666 52.5496 587.379 52.351L586.603 53.5537ZM490.744 -1274.68C490.484 -1274.49 490.223 -1274.3 489.963 -1274.12L490.916 -1272.87C491.176 -1273.06 491.435 -1273.25 491.695 -1273.43L490.744 -1274.68ZM581.47 49.9597C581.752 50.1602 582.035 50.3603 582.318 50.56L583.108 49.3672C582.826 49.1681 582.544 48.9686 582.262 48.7689L581.47 49.9597ZM485.559 -1270.91L485.337 -1270.75L486.305 -1269.52L486.545 -1269.69C486.719 -1269.82 486.892 -1269.95 487.066 -1270.08L486.1 -1271.31C485.92 -1271.18 485.739 -1271.04 485.559 -1270.91ZM576.394 46.3149C576.675 46.5194 576.957 46.7236 577.238 46.9275L578.044 45.7465C577.764 45.5434 577.483 45.3398 577.203 45.1359L576.394 46.3149ZM481.533 -1267.9C481.28 -1267.71 481.028 -1267.52 480.775 -1267.32L481.759 -1266.1C482.01 -1266.3 482.262 -1266.49 482.514 -1266.68L481.533 -1267.9ZM571.343 42.5964C571.623 42.805 571.903 43.0133 572.183 43.2212L573.005 42.0522C572.726 41.845 572.447 41.6373 572.168 41.4294L571.343 42.5964ZM477.001 -1264.41C476.751 -1264.22 476.5 -1264.02 476.249 -1263.83L477.248 -1262.62C477.497 -1262.81 477.747 -1263.01 477.997 -1263.2L477.001 -1264.41ZM566.316 38.8047C566.595 39.0174 566.874 39.2297 567.152 39.4417L567.991 38.2847C567.713 38.0734 567.435 37.8617 567.158 37.6497L566.316 38.8047ZM472.505 -1260.85C472.256 -1260.65 472.008 -1260.45 471.759 -1260.25L472.771 -1259.05C473.019 -1259.25 473.267 -1259.45 473.515 -1259.65L472.505 -1260.85ZM561.322 34.9455C561.597 35.1605 561.872 35.3751 562.147 35.5894L563.001 34.4446C562.727 34.2309 562.452 34.0169 562.178 33.8026L561.322 34.9455ZM468.045 -1257.22C467.8 -1257.02 467.555 -1256.81 467.31 -1256.61L468.337 -1255.42C468.58 -1255.63 468.824 -1255.83 469.068 -1256.03L468.045 -1257.22ZM556.942 31.4857L557.24 31.7233L558.109 30.5905C557.839 30.3747 557.568 30.1586 557.298 29.9422L556.426 31.0731C556.598 31.2107 556.77 31.3483 556.942 31.4857ZM463.18 -1253.13L462.963 -1252.95L464.002 -1251.77C464.242 -1251.98 464.482 -1252.18 464.722 -1252.39L463.685 -1253.56C463.517 -1253.42 463.348 -1253.28 463.18 -1253.13ZM551.555 27.1314C551.825 27.3523 552.095 27.5728 552.365 27.7931L553.249 26.6723C552.98 26.4527 552.711 26.2328 552.442 26.0126L551.555 27.1314ZM458.992 -1249.52L458.65 -1249.22L459.703 -1248.06C459.941 -1248.26 460.179 -1248.47 460.417 -1248.68L459.367 -1249.85C459.242 -1249.74 459.117 -1249.63 458.992 -1249.52ZM546.71 23.1208C546.978 23.3455 547.247 23.5699 547.515 23.794L548.414 22.6853C548.146 22.4619 547.879 22.2382 547.611 22.0141L546.71 23.1208ZM455.084 -1246.06C454.847 -1245.84 454.61 -1245.63 454.374 -1245.42L455.439 -1244.27C455.675 -1244.48 455.911 -1244.69 456.148 -1244.9L455.084 -1246.06ZM541.89 19.042C542.157 19.2705 542.424 19.4986 542.691 19.7265L543.605 18.6299C543.338 18.4027 543.072 18.1752 542.806 17.9474L541.89 19.042ZM450.837 -1242.2C450.602 -1241.98 450.367 -1241.76 450.133 -1241.55L451.211 -1240.41C451.445 -1240.62 451.679 -1240.84 451.913 -1241.05L450.837 -1242.2ZM537.139 14.9323C537.4 15.1606 537.661 15.3886 537.923 15.6163L538.85 14.5318C538.589 14.3048 538.329 14.0774 538.069 13.8498L537.139 14.9323ZM446.652 -1238.29C446.423 -1238.08 446.194 -1237.86 445.965 -1237.64L447.056 -1236.51C447.284 -1236.73 447.512 -1236.95 447.74 -1237.16L446.652 -1238.29ZM532.452 10.7907C532.712 11.0225 532.972 11.2541 533.231 11.4854L534.172 10.4129C533.913 10.1823 533.654 9.95139 533.395 9.72017L532.452 10.7907ZM442.547 -1234.36C442.32 -1234.14 442.093 -1233.92 441.867 -1233.7L442.969 -1232.58C443.195 -1232.8 443.421 -1233.02 443.648 -1233.24L442.547 -1234.36ZM527.791 6.58442C528.05 6.81989 528.308 7.05505 528.566 7.28993L529.521 6.22947C529.263 5.99527 529.005 5.76077 528.748 5.52598L527.791 6.58442ZM437.804 -1229.7L438.918 -1228.59C439.142 -1228.81 439.366 -1229.04 439.59 -1229.26L438.478 -1230.37L437.804 -1229.7ZM523.157 2.31403C523.414 2.55305 523.67 2.79176 523.927 3.03019L524.895 1.98179C524.639 1.74404 524.383 1.50599 524.127 1.26765L523.157 2.31403ZM434.445 -1226.31C434.222 -1226.08 433.999 -1225.85 433.776 -1225.62L434.902 -1224.53C435.124 -1224.76 435.346 -1224.98 435.569 -1225.21L434.445 -1226.31ZM518.549 -2.02C518.804 -1.77747 519.06 -1.53522 519.315 -1.29327L520.296 -2.32958C520.041 -2.57086 519.786 -2.81243 519.532 -3.0543L518.549 -2.02ZM430.448 -1222.18C430.227 -1221.95 430.006 -1221.72 429.785 -1221.49L430.922 -1220.4C431.142 -1220.64 431.362 -1220.87 431.583 -1221.1L430.448 -1222.18ZM514.039 -6.34867C514.288 -6.10698 514.538 -5.86556 514.787 -5.62443L515.78 -6.64878C515.531 -6.88926 515.283 -7.13001 515.034 -7.37105L514.039 -6.34867ZM426.536 -1218.04C426.321 -1217.81 426.106 -1217.58 425.891 -1217.35L427.038 -1216.28C427.253 -1216.51 427.467 -1216.74 427.682 -1216.97L426.536 -1218.04ZM510.122 -10.179L510.308 -9.99505L511.313 -11.0075C511.066 -11.2513 510.819 -11.4954 510.572 -11.7398L509.564 -10.7294C509.75 -10.5458 509.936 -10.3623 510.122 -10.179ZM422.68 -1213.87C422.466 -1213.63 422.253 -1213.4 422.04 -1213.16L423.198 -1212.1L423.836 -1212.8L422.68 -1213.87ZM505.856 -14.4259L506.873 -15.4264C506.627 -15.6736 506.381 -15.921 506.136 -16.1687L505.116 -15.1702L505.856 -14.4259ZM418.858 -1209.62C418.647 -1209.39 418.436 -1209.15 418.225 -1208.91L419.393 -1207.86C419.603 -1208.1 419.814 -1208.34 420.025 -1208.57L418.858 -1209.62ZM500.696 -19.6706C500.94 -19.4189 501.185 -19.1676 501.431 -18.9164L502.459 -19.905C502.299 -20.0696 502.138 -20.2342 501.978 -20.399L501.726 -20.6572L500.696 -19.6706ZM415.073 -1205.32C414.864 -1205.08 414.655 -1204.84 414.446 -1204.6L415.624 -1203.56C415.832 -1203.8 416.041 -1204.04 416.249 -1204.28L415.073 -1205.32ZM496.315 -24.2165C496.554 -23.9661 496.793 -23.7159 497.033 -23.466L498.073 -24.4427C497.834 -24.6919 497.596 -24.9414 497.358 -25.1912L496.315 -24.2165ZM411.324 -1200.96C411.12 -1200.72 410.917 -1200.48 410.714 -1200.24L411.901 -1199.21C412.104 -1199.45 412.307 -1199.69 412.51 -1199.93L411.324 -1200.96ZM492.027 -28.7523C492.264 -28.4987 492.502 -28.2454 492.74 -27.9924L493.791 -28.9573C493.643 -29.115 493.495 -29.2728 493.347 -29.4307L493.08 -29.7153L492.027 -28.7523ZM407.072 -1195.89L408.269 -1194.87C408.47 -1195.11 408.671 -1195.36 408.872 -1195.6L407.676 -1196.62L407.072 -1195.89ZM487.765 -33.3444C488.001 -33.0877 488.237 -32.8313 488.474 -32.5751L489.536 -33.5283C489.3 -33.7838 489.065 -34.0396 488.829 -34.2956L487.765 -33.3444ZM404.064 -1192.21C403.865 -1191.97 403.665 -1191.72 403.466 -1191.47L404.672 -1190.47C404.871 -1190.72 405.07 -1190.96 405.269 -1191.21L404.064 -1192.21ZM483.531 -37.9923C483.765 -37.7325 484 -37.473 484.235 -37.2138L485.308 -38.1553C485.074 -38.4139 484.84 -38.6727 484.606 -38.9318L483.531 -37.9923ZM400.211 -1187.41L399.895 -1187.01L401.111 -1186.01C401.308 -1186.26 401.505 -1186.51 401.702 -1186.76L400.488 -1187.75L400.211 -1187.41ZM479.325 -42.6956C479.557 -42.4328 479.791 -42.1702 480.024 -41.9079L481.107 -42.8377L480.41 -43.6234L479.325 -42.6956ZM396.947 -1183.24C396.751 -1182.99 396.556 -1182.73 396.36 -1182.48L397.585 -1181.5C397.78 -1181.75 397.975 -1182 398.17 -1182.26L396.947 -1183.24ZM475.173 -47.4226C475.401 -47.1615 475.628 -46.9007 475.855 -46.6401L476.949 -47.5582C476.722 -47.8181 476.496 -48.0784 476.269 -48.3388L475.173 -47.4226ZM393.455 -1178.68C393.265 -1178.43 393.075 -1178.18 392.885 -1177.93L394.118 -1176.96C394.307 -1177.21 394.497 -1177.46 394.686 -1177.71L393.455 -1178.68ZM471.097 -52.1488C471.322 -51.8848 471.548 -51.621 471.774 -51.3574L472.878 -52.264C472.653 -52.5269 472.427 -52.7901 472.202 -53.0535L471.097 -52.1488ZM390.048 -1174.14C389.86 -1173.88 389.672 -1173.63 389.484 -1173.37L390.725 -1172.42C390.912 -1172.67 391.1 -1172.92 391.288 -1173.18L390.048 -1174.14ZM467.721 -56.1271L468.834 -57.0222C468.611 -57.288 468.387 -57.554 468.163 -57.8203L467.048 -56.9271L467.721 -56.1271ZM386.676 -1169.54C386.49 -1169.28 386.304 -1169.02 386.118 -1168.77L387.367 -1167.82C387.553 -1168.08 387.739 -1168.33 387.924 -1168.59L386.676 -1169.54ZM463.352 -61.3632C463.466 -61.2249 463.581 -61.0868 463.695 -60.9487L464.818 -61.8323C464.7 -61.975 464.582 -62.1177 464.464 -62.2605L464.152 -62.6391L463.027 -61.7574L463.352 -61.3632ZM383.34 -1164.89C383.156 -1164.63 382.972 -1164.37 382.788 -1164.1L384.045 -1163.17C384.229 -1163.43 384.412 -1163.69 384.596 -1163.95L383.34 -1164.89ZM459.034 -66.639C459.255 -66.3664 459.476 -66.094 459.697 -65.8219L460.83 -66.694C460.609 -66.9655 460.389 -67.2373 460.168 -67.5093L459.034 -66.639ZM380.04 -1160.18C379.858 -1159.92 379.675 -1159.65 379.493 -1159.39L380.758 -1158.46L381.304 -1159.25L380.04 -1160.18ZM455.407 -71.1484C455.521 -71.0051 455.636 -70.8619 455.75 -70.7188L456.892 -71.5795C456.677 -71.849 456.461 -72.1186 456.246 -72.3885L455.103 -71.5297L455.407 -71.1484ZM376.793 -1155.45C376.616 -1155.19 376.439 -1154.93 376.263 -1154.66L377.535 -1153.75C377.711 -1154.01 377.888 -1154.27 378.065 -1154.53L376.793 -1155.45ZM451.237 -76.4233C451.451 -76.1501 451.665 -75.8771 451.879 -75.6043L453.03 -76.4538C452.89 -76.6319 452.751 -76.8101 452.611 -76.9884L452.389 -77.2709L451.237 -76.4233ZM373.622 -1150.72C373.447 -1150.46 373.272 -1150.2 373.097 -1149.93L374.377 -1149.03L374.901 -1149.82L373.622 -1150.72ZM447.816 -80.8245L448.037 -80.5383L449.196 -81.3766C448.984 -81.6515 448.772 -81.9265 448.56 -82.2018L447.399 -81.3654C447.538 -81.185 447.677 -81.0047 447.816 -80.8245ZM370.486 -1145.95C370.313 -1145.68 370.14 -1145.42 369.967 -1145.15L371.254 -1144.26C371.426 -1144.52 371.599 -1144.79 371.772 -1145.06L370.486 -1145.95ZM443.59 -86.3556C443.8 -86.077 444.011 -85.7987 444.223 -85.5205L445.391 -86.3476C445.18 -86.6251 444.969 -86.9028 444.759 -87.1807L443.59 -86.3556ZM367.386 -1141.13C367.215 -1140.86 367.043 -1140.59 366.872 -1140.32L368.166 -1139.44C368.337 -1139.71 368.507 -1139.97 368.678 -1140.24L367.386 -1141.13ZM439.809 -91.3935C440.018 -91.1123 440.227 -90.8313 440.437 -90.5505L441.613 -91.3664L440.986 -92.2075L439.809 -91.3935ZM364.321 -1136.25C364.151 -1135.98 363.982 -1135.71 363.813 -1135.44L365.114 -1134.57C365.283 -1134.84 365.451 -1135.11 365.62 -1135.38L364.321 -1136.25ZM436.701 -95.5982L437.886 -96.403C437.682 -96.6807 437.479 -96.9587 437.275 -97.2368L436.089 -96.4339L436.701 -95.5982ZM361.309 -1131.36C361.145 -1131.09 360.981 -1130.82 360.817 -1130.55L362.124 -1129.69C362.287 -1129.96 362.451 -1130.23 362.615 -1130.5L361.309 -1131.36ZM432.431 -101.475C432.634 -101.193 432.836 -100.912 433.039 -100.631L434.232 -101.425C434.029 -101.705 433.827 -101.986 433.625 -102.267L432.431 -101.475ZM358.368 -1126.48C358.206 -1126.21 358.044 -1125.93 357.882 -1125.66L359.195 -1124.81L359.681 -1125.63L358.368 -1126.48ZM428.802 -106.56C429.003 -106.276 429.204 -105.993 429.405 -105.71L430.605 -106.492C430.405 -106.775 430.204 -107.058 430.004 -107.341L428.802 -106.56ZM355.463 -1121.55C355.302 -1121.28 355.142 -1121 354.982 -1120.73L356.301 -1119.89L356.781 -1120.71L355.463 -1121.55ZM425.543 -111.2L425.799 -110.832L427.008 -111.604C426.809 -111.889 426.61 -112.175 426.411 -112.461L425.201 -111.69C425.315 -111.527 425.429 -111.363 425.543 -111.2ZM352.592 -1116.58C352.433 -1116.3 352.275 -1116.02 352.117 -1115.74L353.443 -1114.92L353.917 -1115.75L352.592 -1116.58ZM421.629 -116.865C421.827 -116.576 422.025 -116.288 422.223 -115.999L423.439 -116.76L423.146 -117.187C423.046 -117.332 422.946 -117.478 422.846 -117.624L421.629 -116.865ZM349.757 -1111.56C349.6 -1111.28 349.444 -1111 349.288 -1110.72L350.62 -1109.9C350.775 -1110.18 350.931 -1110.46 351.088 -1110.74L349.757 -1111.56ZM418.691 -121.187L419.914 -121.937C419.722 -122.222 419.53 -122.507 419.337 -122.793L418.113 -122.044L418.691 -121.187ZM346.97 -1106.52C346.818 -1106.24 346.666 -1105.96 346.515 -1105.68L347.852 -1104.87C348.004 -1105.15 348.155 -1105.43 348.307 -1105.71L346.97 -1106.52ZM414.66 -127.214C414.851 -126.925 415.043 -126.637 415.234 -126.349L416.464 -127.089C416.273 -127.376 416.083 -127.664 415.892 -127.951L414.66 -127.214ZM344.254 -1101.49C344.104 -1101.21 343.954 -1100.93 343.805 -1100.65L345.148 -1099.86L345.596 -1100.7L344.254 -1101.49ZM411.237 -132.425C411.426 -132.134 411.616 -131.844 411.805 -131.554L413.043 -132.282C412.853 -132.572 412.664 -132.862 412.475 -133.152L411.237 -132.425ZM341.129 -1095.58L342.478 -1094.8C342.625 -1095.08 342.773 -1095.36 342.92 -1095.64L341.573 -1096.43L341.129 -1095.58ZM407.842 -137.677C408.03 -137.385 408.217 -137.092 408.406 -136.799L409.65 -137.517C409.462 -137.809 409.275 -138.101 409.087 -138.394L407.842 -137.677ZM338.926 -1091.32C338.78 -1091.04 338.635 -1090.75 338.489 -1090.47L339.843 -1089.69C339.988 -1089.98 340.134 -1090.26 340.28 -1090.55L338.926 -1091.32ZM404.783 -142.485L405.035 -142.086L406.286 -142.793C406.1 -143.088 405.914 -143.382 405.728 -143.677L404.476 -142.971C404.578 -142.809 404.681 -142.647 404.783 -142.485ZM336.315 -1086.17C336.171 -1085.89 336.027 -1085.6 335.884 -1085.31L337.243 -1084.55C337.386 -1084.83 337.53 -1085.12 337.674 -1085.41L336.315 -1086.17ZM401.155 -148.281C401.336 -147.988 401.518 -147.696 401.699 -147.404L402.957 -148.101C402.776 -148.392 402.595 -148.684 402.414 -148.976L401.155 -148.281ZM333.744 -1080.99C333.605 -1080.71 333.465 -1080.42 333.326 -1080.14L334.69 -1079.38C334.8 -1079.61 334.91 -1079.83 335.02 -1080.06L335.108 -1080.24L333.744 -1080.99ZM397.904 -153.563C398.084 -153.268 398.264 -152.974 398.444 -152.68L399.708 -153.366C399.529 -153.66 399.349 -153.953 399.17 -154.247L397.904 -153.563ZM330.835 -1074.99L332.204 -1074.24C332.341 -1074.53 332.478 -1074.82 332.616 -1075.1L331.247 -1075.85L330.835 -1074.99ZM394.683 -158.883C394.861 -158.587 395.039 -158.29 395.218 -157.994L396.488 -158.67C396.31 -158.966 396.132 -159.261 395.954 -159.558L394.683 -158.883ZM328.785 -1070.67C328.649 -1070.38 328.513 -1070.09 328.378 -1069.8L329.752 -1069.06C329.887 -1069.35 330.023 -1069.64 330.158 -1069.93L328.785 -1070.67ZM391.49 -164.242C391.667 -163.944 391.843 -163.645 392.02 -163.347L393.297 -164.012C393.121 -164.31 392.944 -164.608 392.768 -164.906L391.49 -164.242ZM326.357 -1065.44C326.224 -1065.15 326.09 -1064.86 325.956 -1064.57L327.335 -1063.84C327.468 -1064.13 327.602 -1064.42 327.736 -1064.72L326.357 -1065.44ZM388.852 -168.737L390.135 -169.392C389.96 -169.692 389.786 -169.992 389.611 -170.293L388.327 -169.639L388.852 -168.737ZM323.965 -1060.18C323.833 -1059.89 323.701 -1059.59 323.57 -1059.3L324.953 -1058.58C325.084 -1058.88 325.216 -1059.17 325.348 -1059.46L323.965 -1060.18ZM385.195 -175.072C385.368 -174.77 385.541 -174.468 385.714 -174.166L387.003 -174.81C386.83 -175.112 386.657 -175.413 386.484 -175.715L385.195 -175.072ZM321.608 -1054.88C321.478 -1054.58 321.348 -1054.29 321.219 -1053.99L322.607 -1053.29C322.736 -1053.58 322.865 -1053.88 322.995 -1054.17L321.608 -1054.88ZM382.649 -179.553L383.944 -180.188C383.775 -180.487 383.607 -180.786 383.438 -181.085L382.143 -180.452L382.649 -179.553ZM318.941 -1048.73L320.333 -1048.04L320.71 -1048.92L319.318 -1049.61L318.941 -1048.73ZM379.12 -185.868C379.287 -185.566 379.454 -185.265 379.621 -184.963L380.922 -185.588C380.755 -185.889 380.588 -186.19 380.421 -186.491L379.12 -185.868ZM317.069 -1044.32C316.945 -1044.03 316.821 -1043.73 316.698 -1043.44L318.094 -1042.75C318.172 -1042.94 318.249 -1043.12 318.327 -1043.31L318.465 -1043.64L317.069 -1044.32ZM376.126 -191.32C376.291 -191.016 376.457 -190.712 376.623 -190.409L377.929 -191.023C377.763 -191.326 377.598 -191.629 377.433 -191.932L376.126 -191.32ZM314.489 -1038.11L315.89 -1037.43L316.255 -1038.32L314.855 -1039L314.489 -1038.11ZM373.162 -196.806C373.326 -196.501 373.49 -196.195 373.654 -195.889L374.965 -196.494C374.801 -196.799 374.638 -197.104 374.474 -197.409L373.162 -196.806ZM312.675 -1033.63C312.555 -1033.34 312.435 -1033.04 312.315 -1032.74L313.72 -1032.07L314.079 -1032.97L312.675 -1033.63ZM370.228 -202.328C370.39 -202.02 370.552 -201.713 370.715 -201.405L372.031 -201.999C371.869 -202.306 371.707 -202.613 371.545 -202.92L370.228 -202.328ZM310.176 -1027.33L311.584 -1026.68C311.702 -1026.98 311.82 -1027.28 311.938 -1027.58L310.53 -1028.24L310.176 -1027.33ZM367.355 -207.822C367.513 -207.517 367.671 -207.213 367.829 -206.909L369.151 -207.493C368.993 -207.797 368.836 -208.1 368.678 -208.404L367.355 -207.822ZM308.438 -1022.85C308.324 -1022.55 308.209 -1022.25 308.095 -1021.95L309.508 -1021.31C309.621 -1021.6 309.735 -1021.9 309.85 -1022.2L308.438 -1022.85ZM364.527 -213.32C364.684 -213.014 364.84 -212.708 364.997 -212.402L366.324 -212.976C366.167 -213.282 366.011 -213.587 365.855 -213.893L364.527 -213.32ZM306.397 -1017.47C306.284 -1017.17 306.172 -1016.87 306.06 -1016.57L307.476 -1015.93C307.588 -1016.23 307.7 -1016.53 307.812 -1016.83L306.397 -1017.47ZM361.729 -218.852C361.884 -218.544 362.038 -218.236 362.193 -217.928L363.525 -218.492C363.371 -218.8 363.216 -219.107 363.062 -219.415L361.729 -218.852ZM304.059 -1011.14L305.478 -1010.52C305.588 -1010.82 305.698 -1011.12 305.809 -1011.42L304.39 -1012.05L304.059 -1011.14ZM358.96 -224.416C359.113 -224.106 359.266 -223.796 359.419 -223.486L360.757 -224.041C360.604 -224.35 360.451 -224.659 360.298 -224.969L358.96 -224.416ZM302.417 -1006.6C302.309 -1006.3 302.2 -1005.99 302.092 -1005.69L303.515 -1005.07C303.623 -1005.38 303.731 -1005.68 303.84 -1005.98L302.417 -1006.6ZM356.221 -230.012C356.373 -229.7 356.524 -229.389 356.676 -229.077L358.017 -229.622C357.866 -229.933 357.715 -230.244 357.564 -230.555L356.221 -230.012ZM300.479 -1001.12C300.373 -1000.81 300.266 -1000.51 300.16 -1000.2L301.586 -999.593C301.692 -999.898 301.799 -1000.2 301.905 -1000.51L300.479 -1001.12ZM353.523 -235.617C353.671 -235.309 353.818 -235 353.966 -234.692L355.312 -235.227C355.165 -235.535 355.018 -235.843 354.871 -236.151L353.523 -235.617ZM298.579 -995.608C298.476 -995.305 298.373 -995.002 298.27 -994.7L299.7 -994.103C299.803 -994.405 299.905 -994.707 300.008 -995.009L298.579 -995.608ZM350.887 -241.187C351.033 -240.877 351.178 -240.567 351.324 -240.257L352.675 -240.782C352.53 -241.092 352.384 -241.401 352.239 -241.711L350.887 -241.187ZM296.74 -990.146C296.639 -989.841 296.538 -989.537 296.437 -989.232L297.87 -988.645C297.971 -988.949 298.072 -989.253 298.173 -989.557L296.74 -990.146ZM348.28 -246.788C348.424 -246.476 348.568 -246.164 348.713 -245.852L350.068 -246.368C349.924 -246.679 349.78 -246.99 349.637 -247.302L348.28 -246.788ZM294.936 -984.652C294.837 -984.346 294.737 -984.04 294.638 -983.733L296.074 -983.155C296.173 -983.461 296.272 -983.767 296.371 -984.072L294.936 -984.652ZM345.703 -252.418C345.845 -252.104 345.988 -251.791 346.131 -251.477L347.491 -251.983C347.348 -252.296 347.206 -252.609 347.064 -252.922L345.703 -252.418ZM293.166 -979.127C293.068 -978.819 292.971 -978.511 292.874 -978.203L294.313 -977.634C294.41 -977.942 294.507 -978.249 294.604 -978.556L293.166 -979.127ZM343.297 -257.763C343.39 -257.553 343.484 -257.343 343.578 -257.133L344.943 -257.629C344.802 -257.943 344.662 -258.258 344.521 -258.573L343.156 -258.078L343.297 -257.763ZM291.43 -973.57C291.334 -973.26 291.239 -972.951 291.144 -972.641L292.585 -972.081C292.68 -972.391 292.776 -972.7 292.871 -973.009L291.43 -973.57ZM340.639 -263.768C340.778 -263.451 340.917 -263.134 341.057 -262.817L342.425 -263.304C342.286 -263.62 342.147 -263.937 342.009 -264.253L340.639 -263.768ZM289.728 -967.982C289.635 -967.671 289.541 -967.359 289.448 -967.048L290.893 -966.498C290.986 -966.809 291.079 -967.12 291.172 -967.431L289.728 -967.982ZM338.181 -269.422C338.316 -269.108 338.451 -268.794 338.587 -268.481L339.96 -268.958C339.824 -269.271 339.689 -269.584 339.554 -269.897L338.181 -269.422ZM288.076 -962.413C287.986 -962.105 287.896 -961.797 287.806 -961.488L289.253 -960.948C289.343 -961.256 289.433 -961.563 289.523 -961.871L288.076 -962.413ZM335.762 -275.081C335.896 -274.765 336.029 -274.45 336.163 -274.135L337.54 -274.603C337.406 -274.918 337.273 -275.232 337.14 -275.547L335.762 -275.081ZM286.469 -956.851C286.381 -956.541 286.292 -956.231 286.204 -955.921L287.654 -955.39C287.742 -955.7 287.83 -956.009 287.919 -956.319L286.469 -956.851ZM333.373 -280.768C333.505 -280.451 333.637 -280.134 333.769 -279.818L335.15 -280.276C335.018 -280.592 334.887 -280.908 334.755 -281.224L333.373 -280.768ZM284.637 -950.325L286.089 -949.803L286.348 -950.737L284.896 -951.26L284.637 -950.325ZM331.015 -286.482C331.145 -286.164 331.275 -285.846 331.406 -285.528L332.79 -285.977L332.4 -286.929L331.015 -286.482ZM283.357 -945.64C283.272 -945.327 283.188 -945.013 283.103 -944.7L284.559 -944.187C284.643 -944.5 284.727 -944.813 284.811 -945.125L283.357 -945.64ZM328.686 -292.224C328.815 -291.904 328.943 -291.585 329.072 -291.265L330.461 -291.705C330.332 -292.024 330.204 -292.343 330.075 -292.662L328.686 -292.224ZM281.852 -939.99C281.769 -939.676 281.687 -939.361 281.604 -939.046L283.062 -938.543C283.144 -938.857 283.227 -939.171 283.309 -939.486L281.852 -939.99ZM326.393 -297.981C326.518 -297.663 326.643 -297.346 326.769 -297.029L328.161 -297.46C328.036 -297.776 327.911 -298.093 327.786 -298.409L326.393 -297.981ZM280.382 -934.313C280.302 -934 280.222 -933.688 280.143 -933.376L281.603 -932.881C281.682 -933.193 281.762 -933.505 281.841 -933.817L280.382 -934.313ZM324.159 -303.69C324.282 -303.372 324.406 -303.054 324.529 -302.736L325.925 -303.157C325.802 -303.474 325.679 -303.792 325.555 -304.109L324.159 -303.69ZM278.734 -927.75L280.196 -927.265C280.274 -927.578 280.351 -927.891 280.429 -928.203L278.966 -928.69L278.734 -927.75ZM321.955 -309.424C322.077 -309.105 322.198 -308.786 322.32 -308.467L323.72 -308.878C323.598 -309.197 323.476 -309.516 323.355 -309.834L321.955 -309.424ZM277.586 -923.042C277.51 -922.727 277.434 -922.412 277.359 -922.098L278.824 -921.622C278.899 -921.936 278.974 -922.25 279.05 -922.564L277.586 -923.042ZM320.141 -314.223L321.544 -314.625C321.424 -314.945 321.304 -315.265 321.185 -315.585L319.781 -315.185L320.141 -314.223ZM276.239 -917.367C276.165 -917.051 276.091 -916.735 276.018 -916.418L277.485 -915.951C277.558 -916.267 277.632 -916.583 277.705 -916.898L276.239 -917.367ZM317.638 -320.97C317.756 -320.648 317.874 -320.326 317.993 -320.004L319.399 -320.397C319.281 -320.719 319.163 -321.04 319.045 -321.362L317.638 -320.97ZM274.711 -910.712L276.18 -910.254L276.395 -911.206L274.926 -911.665L274.711 -910.712ZM315.524 -326.78C315.641 -326.457 315.758 -326.134 315.875 -325.81L317.284 -326.194C317.168 -326.517 317.051 -326.84 316.935 -327.163L315.524 -326.78ZM273.648 -905.937C273.578 -905.618 273.508 -905.299 273.438 -904.979L274.909 -904.531C274.978 -904.849 275.048 -905.168 275.118 -905.486L273.648 -905.937ZM313.456 -332.577C313.569 -332.257 313.682 -331.937 313.796 -331.617L315.209 -331.992C315.095 -332.311 314.982 -332.631 314.869 -332.95L313.456 -332.577ZM272.409 -900.206C272.341 -899.89 272.274 -899.575 272.207 -899.259L273.68 -898.819L273.881 -899.765L272.409 -900.206ZM311.433 -338.351C311.545 -338.03 311.657 -337.709 311.768 -337.387L313.185 -337.753C313.073 -338.074 312.962 -338.395 312.85 -338.716L311.433 -338.351ZM271.216 -894.51C271.151 -894.192 271.085 -893.875 271.02 -893.558L272.495 -893.127C272.56 -893.444 272.625 -893.761 272.69 -894.077L271.216 -894.51ZM309.441 -344.15C309.551 -343.827 309.661 -343.504 309.771 -343.182L311.191 -343.538C311.081 -343.86 310.971 -344.183 310.861 -344.505L309.441 -344.15ZM270.057 -888.788C269.994 -888.469 269.93 -888.151 269.867 -887.832L271.344 -887.41C271.407 -887.728 271.47 -888.047 271.533 -888.365L270.057 -888.788ZM307.48 -349.971C307.588 -349.647 307.696 -349.323 307.804 -348.999L309.227 -349.347L308.902 -350.317L307.48 -349.971ZM268.748 -882.081L270.226 -881.668L270.41 -882.627L268.932 -883.042L268.748 -882.081ZM305.548 -355.815C305.655 -355.49 305.761 -355.165 305.868 -354.839L307.293 -355.178C307.187 -355.503 307.08 -355.828 306.974 -356.152L305.548 -355.815ZM267.662 -876.306L269.142 -875.902C269.201 -876.223 269.261 -876.544 269.32 -876.865L267.841 -877.27L267.662 -876.306ZM303.648 -361.682C303.752 -361.356 303.857 -361.029 303.962 -360.703L305.391 -361.033C305.286 -361.358 305.181 -361.684 305.077 -362.011L303.648 -361.682ZM266.784 -871.475C266.726 -871.153 266.668 -870.83 266.611 -870.507L268.092 -870.112L268.265 -871.079L266.784 -871.475ZM301.796 -367.515C301.897 -367.192 301.999 -366.869 302.101 -366.546L303.532 -366.867C303.431 -367.189 303.329 -367.512 303.227 -367.834L301.796 -367.515ZM265.768 -865.698C265.713 -865.379 265.658 -865.059 265.603 -864.74L267.086 -864.354L267.251 -865.311L265.768 -865.698ZM300.227 -372.552L300.283 -372.371L301.717 -372.683C301.617 -373.007 301.517 -373.33 301.417 -373.654L299.983 -373.344C300.064 -373.08 300.145 -372.816 300.227 -372.552ZM264.793 -859.937C264.74 -859.617 264.687 -859.296 264.634 -858.975L266.118 -858.598C266.155 -858.82 266.192 -859.042 266.228 -859.264L266.277 -859.558L264.793 -859.937ZM298.2 -379.194C298.298 -378.868 298.396 -378.543 298.495 -378.217L299.931 -378.521C299.833 -378.845 299.735 -379.17 299.637 -379.496L298.2 -379.194ZM263.852 -854.153C263.8 -853.832 263.749 -853.509 263.698 -853.187L265.184 -852.819L265.337 -853.783L263.852 -854.153ZM296.447 -385.065C296.544 -384.739 296.64 -384.412 296.737 -384.085L298.176 -384.38C298.08 -384.706 297.983 -385.032 297.887 -385.358L296.447 -385.065ZM262.944 -848.347C262.894 -848.024 262.845 -847.7 262.796 -847.377L264.283 -847.017L264.431 -847.985L262.944 -848.347ZM294.725 -390.958C294.82 -390.63 294.915 -390.302 295.01 -389.974L296.452 -390.26L296.168 -391.242L294.725 -390.958ZM262.07 -842.518C262.022 -842.193 261.975 -841.869 261.927 -841.544L263.416 -841.193L263.558 -842.165L262.07 -842.518ZM293.314 -395.884L294.758 -396.16C294.665 -396.489 294.572 -396.817 294.479 -397.146L293.034 -396.871L293.314 -395.884ZM261.23 -836.666C261.184 -836.34 261.139 -836.015 261.093 -835.689L262.583 -835.346C262.628 -835.672 262.674 -835.997 262.719 -836.322L261.23 -836.666ZM291.393 -402.737C291.483 -402.411 291.574 -402.085 291.664 -401.76L293.111 -402.028C293.021 -402.353 292.931 -402.678 292.841 -403.003L291.393 -402.737ZM260.431 -830.846C260.388 -830.524 260.345 -830.201 260.302 -829.879L261.793 -829.545C261.836 -829.867 261.879 -830.189 261.922 -830.511L260.431 -830.846ZM289.786 -408.609C289.875 -408.283 289.963 -407.956 290.052 -407.629L291.501 -407.888C291.413 -408.214 291.324 -408.541 291.236 -408.867L289.786 -408.609ZM259.67 -825.032C259.628 -824.708 259.587 -824.384 259.546 -824.06L261.038 -823.735C261.079 -824.059 261.12 -824.382 261.161 -824.705L259.67 -825.032ZM288.21 -414.501C288.296 -414.173 288.383 -413.846 288.47 -413.518L289.922 -413.768C289.835 -414.096 289.748 -414.423 289.662 -414.75L288.21 -414.501ZM258.941 -819.196C258.902 -818.871 258.862 -818.546 258.823 -818.221L260.316 -817.905L260.434 -818.878L258.941 -819.196ZM286.664 -420.413C286.749 -420.084 286.834 -419.755 286.919 -419.426L288.373 -419.668C288.288 -419.996 288.203 -420.324 288.118 -420.653L286.664 -420.413ZM258.247 -813.339C258.209 -813.013 258.172 -812.687 258.134 -812.361L259.628 -812.053C259.666 -812.379 259.703 -812.704 259.741 -813.03L258.247 -813.339ZM285.399 -425.353L286.855 -425.586C286.772 -425.916 286.689 -426.245 286.606 -426.575L285.149 -426.343L285.399 -425.353ZM257.586 -807.462C257.55 -807.135 257.515 -806.808 257.479 -806.48L258.974 -806.181C259.01 -806.508 259.045 -806.835 259.081 -807.161L257.586 -807.462ZM283.665 -432.292C283.747 -431.961 283.828 -431.63 283.91 -431.3L285.369 -431.524C285.287 -431.854 285.205 -432.185 285.124 -432.515L283.665 -432.292ZM256.959 -801.564C256.925 -801.236 256.891 -800.908 256.858 -800.579L258.354 -800.289C258.387 -800.617 258.421 -800.945 258.455 -801.272L256.959 -801.564ZM282.467 -437.206L283.927 -437.422L283.69 -438.403L282.23 -438.189L282.467 -437.206ZM256.372 -795.705C256.34 -795.38 256.309 -795.055 256.277 -794.729L257.774 -794.447C257.805 -794.772 257.837 -795.097 257.868 -795.421L256.372 -795.705ZM281.058 -443.11L282.521 -443.317L282.289 -444.301L280.827 -444.096L281.058 -443.11ZM255.82 -789.846C255.79 -789.52 255.76 -789.194 255.731 -788.867L257.229 -788.594C257.258 -788.919 257.288 -789.245 257.317 -789.571L255.82 -789.846ZM279.454 -450.02C279.53 -449.691 279.605 -449.361 279.681 -449.032L281.145 -449.23L280.919 -450.217L279.454 -450.02ZM255.301 -783.968C255.273 -783.641 255.245 -783.313 255.218 -782.986L256.716 -782.721C256.744 -783.048 256.771 -783.374 256.799 -783.701L255.301 -783.968ZM278.113 -455.962C278.186 -455.632 278.26 -455.301 278.334 -454.971L279.8 -455.161C279.727 -455.491 279.653 -455.821 279.579 -456.151L278.113 -455.962ZM254.816 -778.07C254.79 -777.742 254.764 -777.414 254.738 -777.086L256.237 -776.829C256.263 -777.157 256.289 -777.485 256.315 -777.812L254.816 -778.07ZM276.802 -461.922C276.874 -461.59 276.946 -461.258 277.018 -460.927L278.487 -461.109C278.414 -461.439 278.343 -461.77 278.271 -462.102L276.802 -461.922ZM254.364 -772.155C254.34 -771.825 254.316 -771.496 254.292 -771.167L255.792 -770.919C255.816 -771.248 255.84 -771.576 255.864 -771.905L254.364 -772.155ZM275.523 -467.898C275.593 -467.565 275.663 -467.233 275.734 -466.901L277.204 -467.073L276.993 -468.069L275.523 -467.898ZM253.88 -765.229L255.381 -764.99C255.402 -765.32 255.425 -765.649 255.447 -765.979L253.947 -766.22L253.88 -765.229ZM274.289 -473.822C274.357 -473.493 274.424 -473.164 274.492 -472.835L275.964 -472.999C275.896 -473.328 275.829 -473.656 275.761 -473.985L274.289 -473.822ZM253.566 -760.323C253.546 -759.996 253.526 -759.669 253.506 -759.342L255.007 -759.111C255.027 -759.438 255.047 -759.764 255.067 -760.091L253.566 -760.323ZM273.087 -479.754C273.153 -479.424 273.219 -479.094 273.286 -478.764L274.759 -478.92L274.561 -479.909L273.087 -479.754ZM253.22 -754.429C253.202 -754.101 253.184 -753.773 253.166 -753.445L254.667 -753.222C254.685 -753.55 254.703 -753.878 254.721 -754.205L253.22 -754.429ZM271.917 -485.703C271.981 -485.372 272.045 -485.041 272.11 -484.71L273.585 -484.858C273.521 -485.188 273.457 -485.518 273.392 -485.849L271.917 -485.703ZM252.907 -748.518C252.891 -748.189 252.875 -747.86 252.859 -747.531L254.36 -747.316C254.377 -747.645 254.393 -747.973 254.409 -748.302L252.907 -748.518ZM270.965 -490.672L272.442 -490.811C272.379 -491.142 272.317 -491.473 272.254 -491.804L270.777 -491.667L270.965 -490.672ZM252.628 -742.589C252.614 -742.259 252.599 -741.929 252.585 -741.599L254.087 -741.393C254.101 -741.723 254.116 -742.052 254.13 -742.381L252.628 -742.589ZM269.851 -496.649L271.33 -496.779C271.269 -497.111 271.208 -497.443 271.148 -497.776L269.669 -497.646L269.851 -496.649ZM252.382 -736.643C252.37 -736.312 252.357 -735.981 252.345 -735.65L253.847 -735.453C253.86 -735.783 253.872 -736.114 253.885 -736.444L252.382 -736.643ZM268.592 -503.641C268.651 -503.308 268.71 -502.974 268.769 -502.641L270.249 -502.763C270.19 -503.096 270.131 -503.429 270.072 -503.762L268.592 -503.641ZM252.17 -730.68C252.159 -730.349 252.149 -730.017 252.138 -729.685L253.641 -729.496C253.652 -729.827 253.662 -730.158 253.673 -730.49L252.17 -730.68ZM267.726 -508.601L269.208 -508.714L269.038 -509.703L267.556 -509.591L267.726 -508.601ZM251.967 -723.763L253.47 -723.582C253.479 -723.91 253.487 -724.239 253.496 -724.567L251.993 -724.749L251.967 -723.763ZM266.719 -514.548L268.202 -514.653C268.147 -514.983 268.092 -515.314 268.038 -515.644L266.555 -515.54L266.719 -514.548ZM251.85 -718.828C251.843 -718.499 251.836 -718.169 251.829 -717.84L253.333 -717.667C253.339 -717.996 253.346 -718.325 253.353 -718.654L251.85 -718.828ZM265.584 -521.504C265.637 -521.172 265.69 -520.841 265.743 -520.509L267.228 -520.606C267.174 -520.937 267.121 -521.269 267.068 -521.6L265.584 -521.504ZM251.74 -712.892C251.735 -712.561 251.73 -712.231 251.725 -711.901L253.228 -711.736C253.233 -712.066 253.238 -712.396 253.243 -712.726L251.74 -712.892ZM264.644 -527.482C264.695 -527.15 264.747 -526.817 264.798 -526.485L266.284 -526.574C266.232 -526.906 266.181 -527.238 266.13 -527.57L264.644 -527.482ZM251.663 -706.939C251.66 -706.608 251.657 -706.277 251.654 -705.946L253.157 -705.79C253.16 -706.121 253.163 -706.451 253.167 -706.782L251.663 -706.939ZM263.735 -533.474C263.785 -533.141 263.835 -532.808 263.885 -532.474L265.371 -532.555C265.322 -532.888 265.272 -533.22 265.222 -533.553L263.735 -533.474ZM251.62 -700.972C251.618 -700.64 251.617 -700.308 251.616 -699.976L253.119 -699.828C253.121 -700.159 253.122 -700.491 253.123 -700.822L251.62 -700.972ZM262.858 -539.48C262.906 -539.146 262.954 -538.812 263.002 -538.478L264.49 -538.55C264.442 -538.884 264.394 -539.217 264.346 -539.551L262.858 -539.48ZM251.61 -694.989C251.61 -694.656 251.611 -694.323 251.612 -693.99L253.115 -693.85C253.114 -694.183 253.114 -694.515 253.113 -694.848L251.61 -694.989ZM262.019 -545.452C262.065 -545.121 262.11 -544.791 262.156 -544.46L263.645 -544.524C263.6 -544.854 263.554 -545.184 263.509 -545.515L262.019 -545.452ZM251.633 -689.025C251.636 -688.696 251.638 -688.366 251.641 -688.037L253.144 -687.905C253.142 -688.234 253.139 -688.564 253.137 -688.893L251.633 -689.025ZM261.215 -551.411C261.259 -551.079 261.303 -550.748 261.347 -550.417L262.837 -550.473C262.793 -550.803 262.749 -551.134 262.705 -551.465L261.215 -551.411ZM251.702 -682.095L253.206 -681.971C253.202 -682.302 253.197 -682.632 253.193 -682.961L251.69 -683.086L251.702 -682.095ZM260.442 -557.383C260.484 -557.05 260.526 -556.718 260.568 -556.386L262.06 -556.434C262.017 -556.766 261.975 -557.097 261.933 -557.429L260.442 -557.383ZM251.779 -677.132C251.785 -676.801 251.791 -676.47 251.797 -676.139L253.301 -676.024C253.295 -676.354 253.288 -676.685 253.283 -677.016L251.779 -677.132ZM259.7 -563.367C259.74 -563.034 259.78 -562.701 259.821 -562.369L261.313 -562.408C261.273 -562.74 261.232 -563.073 261.192 -563.405L259.7 -563.367ZM251.902 -671.164C251.91 -670.832 251.918 -670.5 251.926 -670.168L253.429 -670.061C253.421 -670.393 253.413 -670.725 253.405 -671.056L251.902 -671.164ZM258.989 -569.364C259.028 -569.03 259.066 -568.697 259.105 -568.363L260.599 -568.395C260.56 -568.728 260.521 -569.061 260.482 -569.394L258.989 -569.364ZM252.058 -665.182C252.067 -664.85 252.077 -664.517 252.087 -664.184L253.59 -664.085C253.58 -664.418 253.57 -664.75 253.561 -665.082L252.058 -665.182ZM258.31 -575.373C258.347 -575.039 258.384 -574.705 258.421 -574.371L259.915 -574.394C259.878 -574.727 259.841 -575.061 259.804 -575.395L258.31 -575.373ZM252.247 -659.187C252.258 -658.853 252.27 -658.52 252.282 -658.186L253.784 -658.095C253.773 -658.429 253.761 -658.762 253.75 -659.095L252.247 -659.187ZM257.665 -581.365C257.7 -581.034 257.735 -580.704 257.77 -580.373L259.265 -580.388L259.161 -581.379L257.665 -581.365ZM252.469 -653.194C252.482 -652.864 252.496 -652.533 252.509 -652.203L254.011 -652.121C253.998 -652.451 253.985 -652.781 253.971 -653.11L252.469 -653.194ZM257.057 -587.326C257.089 -586.995 257.123 -586.663 257.156 -586.332L258.652 -586.339C258.619 -586.67 258.586 -587 258.553 -587.331L257.057 -587.326ZM252.722 -647.243C252.737 -646.912 252.752 -646.581 252.767 -646.25L254.269 -646.176C254.254 -646.507 254.239 -646.837 254.224 -647.168L252.722 -647.243ZM256.479 -593.298C256.51 -592.966 256.542 -592.634 256.573 -592.302L258.07 -592.301L257.976 -593.296L256.479 -593.298ZM253.008 -641.28C253.025 -640.948 253.042 -640.616 253.059 -640.285L254.56 -640.219C254.543 -640.55 254.526 -640.881 254.51 -641.212L253.008 -641.28ZM255.933 -599.282C255.962 -598.949 255.992 -598.616 256.022 -598.284L257.519 -598.274C257.489 -598.606 257.46 -598.939 257.43 -599.271L255.933 -599.282ZM253.383 -634.306L254.884 -634.248C254.866 -634.58 254.847 -634.912 254.828 -635.244L253.327 -635.304L253.383 -634.306ZM255.418 -605.276C255.446 -604.943 255.474 -604.61 255.502 -604.276L257 -604.259C256.972 -604.592 256.944 -604.925 256.916 -605.257L255.418 -605.276ZM253.679 -629.315C253.7 -628.982 253.72 -628.649 253.741 -628.315L255.242 -628.265C255.221 -628.598 255.2 -628.931 255.18 -629.263L253.679 -629.315ZM255.013 -610.28L256.512 -610.254C256.486 -610.588 256.46 -610.921 256.434 -611.255L254.935 -611.282L255.013 -610.28ZM254.064 -623.313C254.087 -622.98 254.109 -622.646 254.132 -622.312L255.632 -622.27C255.609 -622.604 255.587 -622.937 255.565 -623.27L254.064 -623.313ZM254.556 -616.294L256.056 -616.261L255.983 -617.265L254.483 -617.3L254.556 -616.294Z" fill="#18181A"/>
<path d="M751.93 -604.631C614.94 -607.776 493.936 -569.583 409.037 -505.325C324.138 -441.067 275.379 -350.781 282.736 -249.715C290.092 -148.649 352.179 -55.8183 446.733 12.5605C541.287 80.9392 668.265 124.828 805.255 127.973C942.245 131.119 1063.25 92.9253 1148.15 28.6674C1233.05 -35.5905 1281.81 -125.876 1274.45 -226.942C1267.09 -328.008 1205.01 -420.839 1110.45 -489.218C1015.9 -557.596 888.92 -601.485 751.93 -604.631Z" stroke="#18181A" stroke-width="1.5"/>
<path d="M734.822 -839.659C460.953 -845.948 254.734 -634.418 274.182 -367.229C293.63 -100.041 531.385 121.684 805.255 127.973C1079.12 134.262 1285.34 -77.2673 1265.9 -344.456C1246.45 -611.645 1008.69 -833.37 734.822 -839.659Z" stroke="#18181A" stroke-width="1.5"/>
<path d="M762.621 -1123.36C488.904 -1129.65 286.586 -862.43 311.062 -526.166C335.538 -189.902 577.5 87.519 851.216 93.8045C1124.93 100.09 1327.25 -167.129 1302.78 -503.393C1278.3 -839.657 1036.34 -1117.08 762.621 -1123.36Z" stroke="#18181A" stroke-width="1.5"/>
</svg>
